<svg width="97" height="75" viewBox="0 0 97 75" fill="none" xmlns="http://www.w3.org/2000/svg">
<path d="M24.96 45.535C24.258 46.003 23.439 46.38 22.503 46.666C21.593 46.952 20.475 47.186 19.149 47.368C18.889 45.262 18.59 43.299 18.252 41.479C17.94 39.633 17.589 37.891 17.199 36.253C15.509 36.253 13.897 36.305 12.363 36.409C10.855 36.487 9.425 36.617 8.073 36.799C7.527 38.203 6.994 39.503 6.474 40.699C5.954 41.895 5.421 43.013 4.875 44.053C3.887 43.871 2.964 43.559 2.106 43.117C1.274 42.675 0.598 42.142 0.078 41.518C2.236 37.592 4.056 33.705 5.538 29.857C7.02 25.983 8.502 21.16 9.984 15.388C10.998 15.414 11.908 15.479 12.714 15.583C13.52 15.661 14.391 15.804 15.327 16.012C17.667 20.094 19.617 24.54 21.177 29.35C22.763 34.134 24.024 39.529 24.96 45.535ZM12.558 22.174C12.09 24.046 11.596 25.866 11.076 27.634C10.582 29.402 10.062 31.092 9.516 32.704C10.712 32.548 11.856 32.431 12.948 32.353C14.04 32.249 15.106 32.184 16.146 32.158C15.626 30.338 15.067 28.596 14.469 26.932C13.871 25.268 13.234 23.682 12.558 22.174ZM32.6201 34.849C32.6201 36.721 32.6721 38.424 32.7761 39.958C32.8801 41.466 33.0361 42.948 33.2441 44.404C32.5681 44.638 31.8271 44.807 31.0211 44.911C30.2411 45.015 29.3051 45.067 28.2131 45.067C27.8751 42.831 27.6281 40.621 27.4721 38.437C27.3421 36.253 27.2771 33.887 27.2771 31.339C27.2771 28.453 27.3681 25.333 27.5501 21.979C27.7581 18.599 28.0181 15.96 28.3301 14.062C29.2401 14.036 30.3581 14.127 31.6841 14.335C33.0361 14.517 34.0241 14.751 34.6481 15.037C34.2321 16.909 33.8551 19.223 33.5171 21.979C33.1791 24.709 32.9321 27.374 32.7761 29.974C33.9461 28.856 35.1031 27.595 36.2471 26.191C37.3911 24.787 38.8081 22.889 40.4981 20.497C41.2261 20.861 41.9541 21.368 42.6821 22.018C43.4101 22.668 43.9821 23.318 44.3981 23.968C43.2801 25.424 42.0711 26.802 40.7711 28.102C39.4711 29.376 37.9111 30.715 36.0911 32.119C37.1571 33.393 38.3791 34.615 39.7571 35.785C41.1611 36.929 42.9161 38.19 45.0221 39.568C44.1121 40.712 43.3191 41.557 42.6431 42.103C41.9671 42.649 41.2651 43.039 40.5371 43.273C39.0811 42.051 37.7291 40.764 36.4811 39.412C35.2331 38.034 33.9721 36.422 32.6981 34.576L32.6201 34.615C32.6201 34.641 32.6201 34.68 32.6201 34.732C32.6201 34.758 32.6201 34.797 32.6201 34.849ZM52.6869 13.75C53.3109 13.776 53.8829 13.841 54.4029 13.945C54.9229 14.049 55.3519 14.192 55.6899 14.374C55.4559 14.92 55.1959 15.661 54.9099 16.597C54.6239 17.533 54.4029 18.417 54.2469 19.249C53.5189 19.353 52.7519 19.431 51.9459 19.483C51.1399 19.509 50.2689 19.509 49.3329 19.483C49.2029 19.067 49.0989 18.651 49.0209 18.235C48.9689 17.819 48.9429 17.403 48.9429 16.987C48.9429 16.519 48.9819 16.064 49.0599 15.622C49.1379 15.18 49.2419 14.79 49.3719 14.452C49.8659 14.218 50.3729 14.049 50.8929 13.945C51.4389 13.815 52.0369 13.75 52.6869 13.75ZM48.2409 23.461C48.7869 23.149 49.3979 22.915 50.0739 22.759C50.7759 22.577 51.5169 22.486 52.2969 22.486C52.6609 22.486 53.0249 22.512 53.3889 22.564C53.7789 22.59 54.1559 22.642 54.5199 22.72C53.9739 24.8 53.5319 27.686 53.1939 31.378C52.8559 35.07 52.6869 38.879 52.6869 42.805C52.2709 42.987 51.7509 43.13 51.1269 43.234C50.5289 43.364 49.9049 43.429 49.2549 43.429C48.9689 43.429 48.7089 43.416 48.4749 43.39C48.2669 43.364 48.0719 43.338 47.8899 43.312C47.4739 39.75 47.2919 36.24 47.3439 32.782C47.4219 29.324 47.7209 26.217 48.2409 23.461ZM74.5171 30.676C76.6491 32.08 78.0661 33.302 78.7681 34.342C79.4701 35.382 79.8211 36.539 79.8211 37.813C79.8211 39.789 79.0411 41.427 77.4811 42.727C75.9471 44.027 74.0491 44.677 71.7871 44.677C69.7071 44.677 67.9781 44.014 66.6001 42.688C65.2481 41.336 64.5721 39.672 64.5721 37.696C65.0921 37.462 65.7421 37.28 66.5221 37.15C67.3021 36.994 67.9781 36.929 68.5501 36.955C68.5241 38.333 68.7971 39.438 69.3691 40.27C69.9411 41.076 70.7341 41.479 71.7481 41.479C72.5021 41.479 73.0871 41.271 73.5031 40.855C73.9451 40.413 74.1661 39.802 74.1661 39.022C74.1661 38.346 73.9321 37.709 73.4641 37.111C73.0221 36.487 72.0211 35.655 70.4611 34.615C68.3811 33.211 67.0031 32.002 66.3271 30.988C65.6771 29.948 65.3521 28.791 65.3521 27.517C65.3521 25.619 66.0151 24.072 67.3411 22.876C68.6931 21.654 70.4481 21.043 72.6061 21.043C74.7381 21.043 76.4411 21.563 77.7151 22.603C79.0151 23.617 79.8601 25.125 80.2501 27.127C79.6781 27.491 79.0151 27.777 78.2611 27.985C77.5331 28.193 76.6101 28.336 75.4921 28.414C75.3101 27.062 74.9981 26.074 74.5561 25.45C74.1141 24.826 73.5161 24.514 72.7621 24.514C72.1641 24.514 71.6961 24.696 71.3581 25.06C71.0461 25.424 70.8901 25.931 70.8901 26.581C70.8901 27.205 71.1111 27.803 71.5531 28.375C71.9951 28.921 72.9831 29.688 74.5171 30.676ZM87.832 30.676C89.964 32.08 91.381 33.302 92.083 34.342C92.785 35.382 93.136 36.539 93.136 37.813C93.136 39.789 92.356 41.427 90.796 42.727C89.262 44.027 87.364 44.677 85.102 44.677C83.022 44.677 81.293 44.014 79.915 42.688C78.563 41.336 77.887 39.672 77.887 37.696C78.407 37.462 79.057 37.28 79.837 37.15C80.617 36.994 81.293 36.929 81.865 36.955C81.839 38.333 82.112 39.438 82.684 40.27C83.256 41.076 84.049 41.479 85.063 41.479C85.817 41.479 86.402 41.271 86.818 40.855C87.26 40.413 87.481 39.802 87.481 39.022C87.481 38.346 87.247 37.709 86.779 37.111C86.337 36.487 85.336 35.655 83.776 34.615C81.696 33.211 80.318 32.002 79.642 30.988C78.992 29.948 78.667 28.791 78.667 27.517C78.667 25.619 79.33 24.072 80.656 22.876C82.008 21.654 83.763 21.043 85.921 21.043C88.053 21.043 89.756 21.563 91.03 22.603C92.33 23.617 93.175 25.125 93.565 27.127C92.993 27.491 92.33 27.777 91.576 27.985C90.848 28.193 89.925 28.336 88.807 28.414C88.625 27.062 88.313 26.074 87.871 25.45C87.429 24.826 86.831 24.514 86.077 24.514C85.479 24.514 85.011 24.696 84.673 25.06C84.361 25.424 84.205 25.931 84.205 26.581C84.205 27.205 84.426 27.803 84.868 28.375C85.31 28.921 86.298 29.688 87.832 30.676Z" fill="white"/>
<path d="M7.32422 56.7495C7.03516 56.7495 6.78125 56.8276 6.5625 56.9839C6.34375 57.1323 6.15625 57.3433 6 57.6167C5.84375 57.8823 5.71484 58.1987 5.61328 58.5659C5.51172 58.9253 5.42969 59.3198 5.36719 59.7495C5.30469 60.1792 5.26172 60.6284 5.23828 61.0972C5.21484 61.5659 5.20312 62.0386 5.20312 62.5151C5.20312 63.1401 5.22656 63.7573 5.27344 64.3667C5.32812 64.9683 5.35547 65.5269 5.35547 66.0425C5.35547 66.3784 5.23047 66.6401 4.98047 66.8276C4.73047 67.0229 4.375 67.1206 3.91406 67.1206C3.82812 67.1206 3.73047 67.1128 3.62109 67.0972C3.51172 67.0815 3.40625 67.0503 3.30469 67.0034C3.21094 66.9565 3.125 66.8901 3.04688 66.8042C2.97656 66.7261 2.9375 66.6167 2.92969 66.4761C2.85938 65.7886 2.75781 65.0854 2.625 64.3667C2.49219 63.6479 2.32422 62.9331 2.12109 62.2222C1.92578 61.5034 1.6875 60.7925 1.40625 60.0894C1.13281 59.3862 0.816406 58.6987 0.457031 58.0269C0.394531 57.9097 0.339844 57.8003 0.292969 57.6987C0.253906 57.5972 0.234375 57.4995 0.234375 57.4058C0.234375 57.2886 0.285156 57.1636 0.386719 57.0308C0.496094 56.8901 0.628906 56.7612 0.785156 56.644C0.949219 56.5269 1.125 56.4331 1.3125 56.3628C1.50781 56.2847 1.69531 56.2456 1.875 56.2456C2.17188 56.2456 2.43359 56.4526 2.66016 56.8667C2.88672 57.2729 3.09766 57.9253 3.29297 58.8237C3.33203 58.98 3.36328 59.0894 3.38672 59.1519C3.41016 59.2144 3.44141 59.2456 3.48047 59.2456C3.56641 59.2456 3.62109 59.1128 3.64453 58.8472C3.73828 58.105 3.89844 57.4683 4.125 56.937C4.35156 56.3979 4.63281 55.9565 4.96875 55.6128C5.3125 55.2612 5.70312 55.0034 6.14062 54.8394C6.58594 54.6753 7.07422 54.5933 7.60547 54.5933C7.91016 54.5933 8.21875 54.6206 8.53125 54.6753C8.84375 54.73 9.125 54.812 9.375 54.9214C9.625 55.0308 9.82812 55.1636 9.98438 55.3198C10.1406 55.4761 10.2188 55.6519 10.2188 55.8472C10.2188 55.9878 10.1875 56.1558 10.125 56.3511C10.0703 56.5386 9.99609 56.7222 9.90234 56.9019C9.80859 57.0737 9.69922 57.2222 9.57422 57.3472C9.45703 57.4644 9.33594 57.5229 9.21094 57.5229C9.07031 57.5229 8.93359 57.4839 8.80078 57.4058C8.66797 57.3198 8.52344 57.23 8.36719 57.1362C8.21875 57.0425 8.05859 56.9565 7.88672 56.8784C7.72266 56.7925 7.53516 56.7495 7.32422 56.7495ZM9.63281 61.6245C9.63281 61.4917 9.64844 61.3433 9.67969 61.1792C9.71094 61.0151 9.72656 60.8354 9.72656 60.6401C9.72656 60.5073 9.66797 60.4058 9.55078 60.3354C9.44141 60.2651 9.31641 60.187 9.17578 60.1011C9.03516 60.0151 8.90625 59.9058 8.78906 59.7729C8.67969 59.6401 8.625 59.4487 8.625 59.1987C8.625 59.019 8.67188 58.8394 8.76562 58.6597C8.86719 58.48 9.01172 58.3159 9.19922 58.1675C9.66016 57.8237 10.1367 57.5151 10.6289 57.2417C11.1289 56.9683 11.625 56.7378 12.1172 56.5503C12.6172 56.3628 13.1094 56.2183 13.5938 56.1167C14.0781 56.0151 14.543 55.9644 14.9883 55.9644C15.7383 55.9644 16.4414 56.105 17.0977 56.3862C17.7617 56.6597 18.3359 57.0386 18.8203 57.5229C19.3125 57.9995 19.6992 58.562 19.9805 59.2104C20.2695 59.8511 20.4141 60.5386 20.4141 61.2729C20.4141 61.9917 20.2617 62.6753 19.957 63.3237C19.6602 63.9644 19.2578 64.5269 18.75 65.0112C18.2422 65.4956 17.6445 65.8784 16.957 66.1597C16.2773 66.4487 15.5586 66.5933 14.8008 66.5933C14.0586 66.5933 13.3711 66.4683 12.7383 66.2183C12.1055 65.9683 11.5586 65.6245 11.0977 65.187C10.6367 64.7417 10.2773 64.2183 10.0195 63.6167C9.76172 63.0073 9.63281 62.3433 9.63281 61.6245ZM15.0586 64.4839C15.3867 64.4839 15.7266 64.4175 16.0781 64.2847C16.4297 64.1519 16.75 63.9604 17.0391 63.7104C17.3359 63.4526 17.5781 63.1401 17.7656 62.7729C17.9609 62.4058 18.0586 61.9917 18.0586 61.5308C18.0586 61.062 17.9727 60.6245 17.8008 60.2183C17.6289 59.812 17.3906 59.4604 17.0859 59.1636C16.7891 58.8589 16.4336 58.6206 16.0195 58.4487C15.6133 58.2769 15.1719 58.1909 14.6953 58.1909C13.8281 58.1909 13.1641 58.4175 12.7031 58.8706C12.2422 59.3159 12.0117 60.0034 12.0117 60.9331C12.0117 61.4409 12.0859 61.9136 12.2344 62.3511C12.3906 62.7808 12.6055 63.1558 12.8789 63.4761C13.1523 63.7886 13.4727 64.0347 13.8398 64.2144C14.2148 64.394 14.6211 64.4839 15.0586 64.4839ZM26.0859 55.8472C26.4922 55.8472 26.8867 55.9058 27.2695 56.0229C27.6523 56.1401 27.9883 56.3003 28.2773 56.5034C28.5742 56.6987 28.8125 56.9253 28.9922 57.1831C29.1719 57.4331 29.2617 57.6909 29.2617 57.9565C29.2617 58.1284 29.2266 58.2964 29.1562 58.4604C29.0859 58.6167 28.9922 58.7573 28.875 58.8823C28.7578 58.9995 28.625 59.0972 28.4766 59.1753C28.3281 59.2456 28.1719 59.2808 28.0078 59.2808C27.8281 59.2808 27.6641 59.2144 27.5156 59.0815C27.3672 58.9409 27.207 58.7886 27.0352 58.6245C26.8711 58.4526 26.6836 58.3003 26.4727 58.1675C26.2695 58.0269 26.0234 57.9565 25.7344 57.9565C25.4531 57.9565 25.1992 58.0229 24.9727 58.1558C24.7461 58.2886 24.5547 58.4761 24.3984 58.7183C24.25 58.9526 24.1328 59.2339 24.0469 59.562C23.9688 59.8823 23.9297 60.2339 23.9297 60.6167C23.9297 61.7104 24.1367 62.5464 24.5508 63.1245C24.9648 63.6948 25.5586 63.98 26.332 63.98C26.6992 63.98 27.0117 63.9214 27.2695 63.8042C27.5352 63.687 27.7656 63.5581 27.9609 63.4175C28.1641 63.2769 28.3477 63.1479 28.5117 63.0308C28.6758 62.9136 28.8438 62.855 29.0156 62.855C29.1094 62.855 29.2031 62.8862 29.2969 62.9487C29.3906 63.0034 29.4727 63.0776 29.543 63.1714C29.6211 63.2573 29.6836 63.355 29.7305 63.4644C29.7852 63.5737 29.8125 63.6831 29.8125 63.7925C29.8125 64.0503 29.6836 64.3159 29.4258 64.5894C29.1758 64.8628 28.8516 65.1128 28.4531 65.3394C28.0547 65.5581 27.6094 65.7378 27.1172 65.8784C26.6328 66.019 26.1602 66.0894 25.6992 66.0894C25.082 66.0894 24.5156 65.9683 24 65.7261C23.4844 65.4917 23.0391 65.1636 22.6641 64.7417C22.2891 64.312 21.9961 63.8003 21.7852 63.2065C21.582 62.6128 21.4805 61.9565 21.4805 61.2378C21.4805 60.4565 21.5938 59.7378 21.8203 59.0815C22.0547 58.4253 22.375 57.8589 22.7812 57.3823C23.1953 56.8979 23.6836 56.5229 24.2461 56.2573C24.8086 55.9839 25.4219 55.8472 26.0859 55.8472ZM30.8086 65.2808C30.8086 64.6011 30.7891 63.8628 30.75 63.0659C30.7109 62.269 30.6602 61.4644 30.5977 60.6519C30.543 59.8315 30.4805 59.0308 30.4102 58.2495C30.3477 57.4683 30.2852 56.7534 30.2227 56.105C30.168 55.4565 30.1211 54.8979 30.082 54.4292C30.043 53.9604 30.0234 53.6323 30.0234 53.4448C30.0234 53.1323 30.1406 52.894 30.375 52.73C30.6094 52.5659 30.9492 52.4839 31.3945 52.4839C31.5898 52.4839 31.7539 52.5034 31.8867 52.5425C32.0273 52.5815 32.1406 52.6479 32.2266 52.7417C32.3125 52.8354 32.3789 52.9604 32.4258 53.1167C32.4805 53.2651 32.5195 53.4526 32.543 53.6792C32.5742 53.9917 32.6016 54.3276 32.625 54.687C32.6484 55.0386 32.6719 55.4409 32.6953 55.894C32.7266 56.3472 32.7578 56.8589 32.7891 57.4292C32.8203 57.9995 32.8594 58.6558 32.9062 59.3979C32.9062 59.5073 32.9258 59.5854 32.9648 59.6323C33.0039 59.6792 33.0469 59.7026 33.0938 59.7026C33.1797 59.7026 33.2578 59.6323 33.3281 59.4917C33.9922 58.1401 34.6875 57.1089 35.4141 56.3979C36.1406 55.6792 36.8477 55.3198 37.5352 55.3198C37.9414 55.3198 38.2617 55.4409 38.4961 55.6831C38.7305 55.9253 38.8477 56.2495 38.8477 56.6558C38.8477 57.0933 38.75 57.4995 38.5547 57.8745C38.3672 58.2417 38.1289 58.5894 37.8398 58.9175C37.5586 59.2456 37.25 59.5542 36.9141 59.8433C36.5859 60.1323 36.2773 60.4136 35.9883 60.687C35.707 60.9604 35.4688 61.23 35.2734 61.4956C35.0859 61.7534 34.9922 62.0151 34.9922 62.2808C34.9922 62.5229 35.1328 62.7729 35.4141 63.0308C35.7031 63.2808 36.1172 63.5308 36.6562 63.7808C37.1953 64.0229 37.8555 64.2612 38.6367 64.4956C39.418 64.7222 40.3047 64.9409 41.2969 65.1519C41.4531 65.1909 41.5625 65.2534 41.625 65.3394C41.6953 65.4253 41.7305 65.5386 41.7305 65.6792C41.7305 65.8511 41.6914 66.0269 41.6133 66.2065C41.5352 66.394 41.4375 66.562 41.3203 66.7104C41.2031 66.8667 41.0703 66.9917 40.9219 67.0854C40.7812 67.187 40.6445 67.2378 40.5117 67.2378C40.2461 67.2378 39.9297 67.2026 39.5625 67.1323C39.1953 67.062 38.7969 66.9644 38.3672 66.8394C37.9453 66.7222 37.5078 66.5815 37.0547 66.4175C36.6016 66.2612 36.1602 66.0894 35.7305 65.9019C35.3086 65.7222 34.9062 65.5347 34.5234 65.3394C34.1484 65.1362 33.8242 64.937 33.5508 64.7417C33.4648 64.6948 33.3945 64.6558 33.3398 64.6245C33.293 64.5933 33.25 64.5776 33.2109 64.5776C33.1641 64.5776 33.1367 64.5972 33.1289 64.6362C33.1211 64.6675 33.1172 64.7378 33.1172 64.8472C33.1172 65.1206 33.0938 65.3433 33.0469 65.5151C33.0078 65.687 32.9375 65.8198 32.8359 65.9136C32.7344 66.0151 32.5938 66.0854 32.4141 66.1245C32.2344 66.1636 32.0117 66.1831 31.7461 66.1831C31.3945 66.1831 31.1484 66.1167 31.0078 65.9839C30.875 65.8511 30.8086 65.6167 30.8086 65.2808ZM43.7344 55.3433C44.2578 55.3433 44.7969 55.4136 45.3516 55.5542C45.9062 55.687 46.4141 55.8628 46.875 56.0815C47.3359 56.2925 47.7148 56.5308 48.0117 56.7964C48.3086 57.062 48.457 57.3198 48.457 57.5698C48.457 57.6948 48.4023 57.8354 48.293 57.9917C48.1836 58.1401 48.0508 58.2847 47.8945 58.4253C47.7383 58.5581 47.5664 58.6714 47.3789 58.7651C47.1992 58.8511 47.0391 58.894 46.8984 58.894C46.7109 58.894 46.5 58.8159 46.2656 58.6597C46.0391 58.5034 45.7852 58.3315 45.5039 58.144C45.2305 57.9487 44.9297 57.7729 44.6016 57.6167C44.2734 57.4604 43.918 57.3823 43.5352 57.3823C43.2852 57.3823 43.0781 57.4448 42.9141 57.5698C42.7578 57.687 42.6797 57.855 42.6797 58.0737C42.6797 58.269 42.7734 58.4683 42.9609 58.6714C43.1484 58.8667 43.3945 59.0698 43.6992 59.2808C44.0117 59.4917 44.3633 59.7144 44.7539 59.9487C45.1445 60.1831 45.543 60.4331 45.9492 60.6987C46.3633 60.9644 46.7656 61.2534 47.1562 61.5659C47.5469 61.8784 47.8945 62.2183 48.1992 62.5854C48.5117 62.9526 48.7617 63.355 48.9492 63.7925C49.1367 64.2222 49.2305 64.6909 49.2305 65.1987C49.2305 65.6362 49.1523 66.0347 48.9961 66.394C48.8398 66.7534 48.6172 67.062 48.3281 67.3198C48.0391 67.5776 47.6953 67.7769 47.2969 67.9175C46.8984 68.0581 46.4609 68.1284 45.9844 68.1284C45.3828 68.1284 44.8281 68.0347 44.3203 67.8472C43.8125 67.6675 43.375 67.4175 43.0078 67.0972C42.6406 66.7769 42.3516 66.394 42.1406 65.9487C41.9375 65.5034 41.8359 65.0151 41.8359 64.4839C41.8359 63.7964 41.957 63.2964 42.1992 62.9839C42.4492 62.6714 42.8398 62.5151 43.3711 62.5151C43.6992 62.5151 43.9609 62.5776 44.1562 62.7026C44.3516 62.8276 44.4492 62.98 44.4492 63.1597C44.4492 63.2534 44.4336 63.3511 44.4023 63.4526C44.3711 63.5464 44.3359 63.6479 44.2969 63.7573C44.2656 63.8589 44.2344 63.9683 44.2031 64.0854C44.1797 64.2026 44.168 64.3198 44.168 64.437C44.168 64.6401 44.2148 64.8354 44.3086 65.0229C44.4023 65.2104 44.5273 65.3745 44.6836 65.5151C44.8477 65.6636 45.0352 65.7808 45.2461 65.8667C45.457 65.9526 45.6797 65.9956 45.9141 65.9956C46.5391 65.9956 46.8516 65.7378 46.8516 65.2222C46.8516 64.8159 46.6914 64.4331 46.3711 64.0737C46.0508 63.7065 45.6484 63.3511 45.1641 63.0073C44.6797 62.6558 44.1562 62.3042 43.5938 61.9526C43.0391 61.6011 42.5195 61.2339 42.0352 60.8511C41.5508 60.4683 41.1484 60.062 40.8281 59.6323C40.5078 59.1948 40.3477 58.7222 40.3477 58.2144C40.3477 57.7925 40.4336 57.4058 40.6055 57.0542C40.7852 56.7026 41.0273 56.4019 41.332 56.1519C41.6367 55.894 41.9922 55.6948 42.3984 55.5542C42.8125 55.4136 43.2578 55.3433 43.7344 55.3433Z" fill="white"/>
<rect x="-0.612255" y="-0.363993" width="13.7263" height="13.3336" rx="1.5" transform="matrix(-0.970938 0.23933 -0.253572 -0.967316 76.634 63.7197)" fill="#87DADE" stroke="#87DADE"/>
<rect x="0.692489" y="0.183885" width="13.6418" height="13.4199" rx="1.5" transform="matrix(0.871527 -0.490348 0.513451 0.858119 69.8299 62.7381)" fill="#FDED74" stroke="#FDED74"/>
</svg>
