<svg width="111" height="111" viewBox="0 0 111 111" fill="none" xmlns="http://www.w3.org/2000/svg">
<g clip-path="url(#clip0_106_92)">
<path d="M42.4215 24.1059C42.4215 24.1059 41.6291 18.1359 42.7407 17.3837C43.8587 16.6293 49.629 15.9208 52.7508 16.3999C57.1101 17.0631 60.513 19.5191 62.4337 23.2858C64.484 27.3221 64.0804 31.4408 64.0804 31.4408C64.0804 31.4408 67.1295 27.8098 71.859 26.6197C76.5886 25.4296 80.7989 26.4453 82.6845 27.627C84.5638 28.8109 86.9963 29.981 87.0342 30.8907C87.07 31.7941 83.3525 36.402 83.8506 37.0513C84.3573 37.7047 89.7826 35.3492 90.6928 36.1339C91.6094 36.9163 94.9564 42.8261 92.347 48.7866C89.7375 54.747 85.8705 56.8314 85.8705 56.8314C85.8705 56.8314 91.3587 59.2763 93.4252 64.509C95.1178 68.7916 94.855 71.7951 92.7973 73.5281C90.7374 75.2547 85.3114 73.9328 85.3114 73.9328C85.3114 73.9328 91.5551 79.47 90.2101 81.1335C88.8588 82.7993 87.3477 81.1937 86.7018 81.6191C86.1723 81.9681 87.6526 83.0335 86.7737 84.7206C85.8948 86.4077 80.5266 89.1941 74.5884 88.2296C68.6502 87.2651 65.6107 83.552 65.6107 83.552C65.6107 83.552 66.0652 89.189 60.8348 93.9521C55.6045 98.7151 50.0138 97.0643 49.026 96.8576C48.0382 96.6509 46.9941 92.6074 46.931 91.8925C46.8679 91.1775 47.0592 89.3651 46.4546 89.2109C45.8499 89.0567 45.0083 91.9185 44.1178 93.0587C43.2273 94.199 42.038 95.5292 40.1352 94.8113C38.2323 94.0935 33.2832 91.2247 32.271 85.4243C31.2587 79.624 33.2873 75.4256 33.2873 75.4256C33.2873 75.4256 26.5349 77.1346 21.3977 72.6785C16.2605 68.2225 14.7408 62.5059 15.0571 61.5657C15.3734 60.6256 20.2594 58.8372 20.2594 58.8372C20.2594 58.8372 14.6466 57.7594 14.3976 55.4636C14.1463 53.1615 17.0911 53.9742 17.5192 53.088C17.9474 52.2019 14.7516 50.5251 16.1356 48.5833C17.1736 47.127 18.9644 44.4639 23.4652 42.4735C28.2059 40.3708 32.4538 41.6381 32.4538 41.6381C32.4538 41.6381 29.1381 38.8369 28.6033 34.53C28.1811 31.1213 29.5797 27.5789 31.2448 25.2529C32.9099 22.927 35.4348 20.6663 36.7427 20.2106C38.0506 19.7549 42.4215 24.1059 42.4215 24.1059Z" fill="#FE6596"/>
<path d="M61.1451 40.3266C62.379 41.0342 63.7532 39.0028 64.2515 36.511C64.6339 34.6106 64.7613 31.5469 64.2692 31.3463C63.7772 31.1457 61.6612 34.4158 61.0677 35.8747C60.4829 37.3377 60.1696 39.765 61.1451 40.3266Z" fill="#BF0477"/>
<path d="M72.9661 58.3587C73.2547 59.9467 77.3775 59.705 79.4567 59.2452C81.4294 58.8082 86.0864 57.4717 85.8747 56.8229C85.6693 56.1718 81.1717 54.9271 78.0895 55.3214C75.3848 55.67 72.7234 57.0052 72.9661 58.3587Z" fill="#BF0477"/>
<path d="M62.1757 72.8935C60.8666 73.2638 61.4286 76.4164 62.4649 78.631C63.5013 80.8455 65.0374 83.673 65.6061 83.5392C66.1748 83.4055 65.9695 79.7566 65.1229 76.5672C64.5893 74.5638 63.3486 72.5635 62.1757 72.8935Z" fill="#BF0477"/>
<path d="M33.2937 75.4234C33.5319 75.8197 37.9597 74.2769 40.0911 72.7758C42.2224 71.2748 43.2266 69.3723 42.6051 68.4512C41.9837 67.5302 39.1106 68.8532 37.6633 70.0587C35.7828 71.6226 33.064 75.0312 33.2937 75.4234Z" fill="#BF0477"/>
<path d="M32.7849 41.7874C32.4098 42.3331 35.1041 44.85 36.6489 45.7928C38.1937 46.7355 40.3913 47.6011 41.1023 46.9312C41.8219 46.2655 40.112 43.8634 37.6243 42.7198C36.4224 42.1655 33.1663 41.2395 32.7849 41.7874Z" fill="#BF0477"/>
<path d="M60.244 40.3686C58.8738 40.1735 56.9426 46.3556 52.6334 47.6639C48.3243 48.9722 42.378 45.9929 41.8461 46.951C41.3142 47.909 46.149 51.8051 46.2224 57.2314C46.2917 62.1941 42.1299 66.964 43.0737 67.8658C43.9548 68.7107 48.2462 64.8257 53.1673 65.4792C58.9085 66.2476 60.1734 72.8757 61.9052 72.3223C63.637 71.769 60.9459 66.4892 64.2508 62.3398C67.4295 58.3417 72.4788 58.8289 72.3909 57.3856C72.2804 55.6927 66.0841 55.7125 63.0908 50.8385C59.6216 45.2146 61.6655 40.5673 60.244 40.3686Z" fill="#BF0477"/>
<path d="M51.1868 52.7113C50.415 53.3093 49.9574 59.2856 50.537 59.7991C51.1166 60.3126 57.1661 62.705 58.3974 62.276C59.6288 61.8469 62.324 56.5434 62.1534 55.9303C61.9849 55.3236 58.1194 50.7392 57.3053 50.5793C56.4912 50.4194 51.9248 52.1393 51.1868 52.7113Z" fill="#F2A159"/>
<path d="M55.9176 47.6643C55.2405 48.9448 55.7673 50.7646 57.3285 51.3439C58.9949 51.9581 60.6158 50.9426 60.9999 49.6425C61.3414 48.5075 60.9183 47.0881 59.4786 46.4879C58.5911 46.1175 56.776 46.0416 55.9176 47.6643Z" fill="#FDD0B1"/>
<path d="M60.9746 57.0851C61.3847 58.8167 63.2371 59.595 64.636 59.0718C66.4665 58.3911 66.6134 56.6156 66.2297 55.5759C65.7065 54.177 64.308 53.305 62.7712 53.9048C61.2345 54.5047 60.63 55.624 60.9746 57.0851Z" fill="#FDD0B1"/>
<path d="M58.0424 61.4624C56.8158 61.9255 55.8096 63.2062 56.4687 65.0157C57.0767 66.6784 58.6384 66.9713 59.9335 66.52C61.2287 66.0687 61.9718 64.7724 61.4205 63.1901C60.8691 61.6078 59.3584 60.968 58.0424 61.4624Z" fill="#FDD0B1"/>
<path d="M48.274 58.8276C46.4301 59.4701 46.0941 61.011 46.5966 62.4529C47.099 63.8948 48.529 64.5699 50.2081 63.9061C51.6555 63.3374 52.1343 61.7753 51.5202 60.4439C50.851 58.9957 49.8307 58.2852 48.274 58.8276Z" fill="#FDD0B1"/>
<path d="M46.7761 50.4633C46.0749 51.8596 46.6525 53.6402 48.1041 54.1718C49.238 54.5924 50.8964 54.3007 51.5565 52.8687C52.2252 51.4408 51.5152 49.9782 50.2853 49.4051C49.0531 48.8257 47.4648 49.0929 46.7761 50.4633Z" fill="#FDD0B1"/>
</g>
<defs>
<clipPath id="clip0_106_92">
<rect width="86.4808" height="86.4808" fill="white" transform="translate(0 28.4558) rotate(-19.2106)"/>
</clipPath>
</defs>
</svg>
