<svg width="154" height="154" viewBox="0 0 154 154" fill="none" xmlns="http://www.w3.org/2000/svg">
<path d="M73.8839 17.5416C73.8839 17.5416 76.0496 7.03833 78.3596 6.42473C80.6816 5.81114 90.7999 8.00083 95.7688 10.6357C102.711 14.3052 106.994 20.4291 108.017 27.8885C109.099 35.8772 106.007 42.5666 106.007 42.5666C106.007 42.5666 113.262 38.2474 121.913 39.0174C130.563 39.7874 137.048 43.9622 139.526 47.0543C141.993 50.1463 145.398 53.5391 144.928 55.0911C144.459 56.6311 135.508 62.2016 135.965 63.5852C136.434 64.9808 146.938 64.1988 148.008 66.0516C149.091 67.9044 151.257 79.8033 143.376 88.2974C135.496 96.7915 127.772 98.0307 127.772 98.0307C127.772 98.0307 135.568 105.358 135.977 115.368C136.314 123.561 134.112 128.458 129.637 130.166C125.161 131.863 116.811 126.461 116.811 126.461C116.811 126.461 124.066 139.43 120.83 141.439C117.581 143.449 115.981 139.863 114.646 140.2C113.551 140.477 115.416 143.136 112.949 145.458C110.483 147.78 99.8233 149.32 90.4028 144.219C80.9824 139.117 78.0468 131.093 78.0468 131.093C78.0468 131.093 75.5082 140.838 63.9221 145.783C52.336 150.728 43.9021 144.676 42.3621 143.749C40.8221 142.823 41.4357 135.412 41.7485 134.173C42.0613 132.933 43.4449 129.998 42.5185 129.384C41.5921 128.771 38.5 133.09 36.3344 134.485C34.1688 135.881 31.3896 137.421 28.6103 135.099C25.8311 132.777 19.1899 125.053 20.8863 114.706C22.5827 104.359 28.4539 98.4879 28.4539 98.4879C28.4539 98.4879 16.0978 97.4051 10.0702 86.9018C4.04253 76.3985 4.83659 65.8952 5.9194 64.4996C7.00222 63.104 16.2663 62.9596 16.2663 62.9596C16.2663 62.9596 7.4594 57.8583 8.38581 53.8519C9.31222 49.8335 13.7878 52.9255 15.0271 51.6863C16.2663 50.4471 11.8749 45.7549 15.3399 43.3005C17.9386 41.4597 22.5105 38.0308 31.2452 37.321C40.4491 36.563 46.8497 41.183 46.8497 41.183C46.8497 41.183 42.9155 34.5297 44.5397 26.9741C45.8271 20.9946 50.2546 15.8572 54.4174 12.9216C58.5802 9.98598 64.1507 7.66395 66.6171 7.66395C69.0835 7.66395 73.8839 17.5416 73.8839 17.5416Z" fill="#FE6596"/>
<path d="M95.865 55.7889C97.5253 57.7018 101.026 55.091 103.324 51.1929C105.081 48.2212 107.09 43.144 106.38 42.5184C105.67 41.8928 100.196 46.1518 98.3434 48.2573C96.5026 50.3748 94.5536 54.2729 95.865 55.7889Z" fill="#BF0477"/>
<path d="M105.177 93.0376C104.732 95.877 111.806 97.8862 115.572 98.3314C119.145 98.7525 127.76 99.2337 127.784 98.0186C127.82 96.8034 120.986 92.0751 115.572 90.9322C110.82 89.9336 105.562 90.6193 105.177 93.0376Z" fill="#BF0477"/>
<path d="M78.516 111.157C76.0977 111.012 75.1953 116.643 75.6405 120.974C76.0856 125.306 77.0121 130.96 78.0467 131.068C79.0814 131.177 80.8741 124.921 81.3192 119.061C81.596 115.38 80.6816 111.289 78.516 111.157Z" fill="#BF0477"/>
<path d="M28.4659 98.4878C28.6344 99.2939 36.9841 99.2939 41.4477 98.0186C45.9112 96.7432 48.7145 94.1325 48.2092 92.2195C47.7039 90.3065 42.0973 90.8479 38.9572 92.027C34.8786 93.555 28.3095 97.6937 28.4659 98.4878Z" fill="#BF0477"/>
<path d="M47.3189 41.6281C46.3684 42.3259 49.4244 48.137 51.4697 50.6275C53.515 53.118 56.7033 55.8611 58.2914 55.1512C59.8916 54.4534 58.4238 49.4123 54.9106 46.0316C53.2142 44.3953 48.2814 40.9303 47.3189 41.6281Z" fill="#BF0477"/>
<path d="M94.325 55.3317C92.1353 54.2008 85.2655 63.4649 77.2527 63.14C69.2399 62.8152 60.9864 54.3211 59.5306 55.6205C58.0749 56.9199 63.9221 66.3042 60.8661 75.4721C58.0749 83.8578 48.2814 89.4403 49.3402 91.5097C50.3267 93.4467 59.8194 89.4283 67.7119 93.4107C76.9158 98.0667 75.1592 109.954 78.3957 110.038C81.6321 110.122 80.2003 99.6669 88.1891 94.6258C95.8771 89.7652 104.082 93.543 104.78 91.0646C105.586 88.153 95.1552 84.5556 92.9775 74.6058C90.4389 63.116 96.5989 56.4988 94.325 55.3317Z" fill="#BF0477"/>
<path d="M71.8627 70.7799C70.2144 71.3333 65.9433 81.1147 66.617 82.3178C67.2908 83.521 76.0616 91.0886 78.3836 91.0886C80.7056 91.0886 88.3455 83.7495 88.4177 82.6186C88.4899 81.4997 84.676 71.5258 83.4006 70.7799C82.1253 70.0339 73.4388 70.2505 71.8627 70.7799Z" fill="#F2A159"/>
<path d="M82.775 65.0651C80.8861 66.8216 80.7056 70.1904 82.9916 72.0793C85.4339 74.0885 88.7545 73.3305 90.1622 71.3694C91.4014 69.661 91.5217 67.0261 89.4523 65.1733C88.177 64.0304 85.1692 62.8393 82.775 65.0651Z" fill="#FDD0B1"/>
<path d="M85.7588 83.8699C85.4339 87.0221 88.0928 89.4163 90.7517 89.3561C94.2288 89.284 95.5161 86.3844 95.48 84.4113C95.4199 81.7524 93.5791 79.4665 90.6435 79.5747C87.7078 79.683 86.0355 81.211 85.7588 83.8699Z" fill="#FDD0B1"/>
<path d="M78.2633 89.5125C75.9292 89.5726 73.4869 91.1367 73.535 94.5656C73.5831 97.7178 76.0375 99.1254 78.4799 99.1254C80.9222 99.1254 82.9314 97.3809 82.9314 94.3971C82.9314 91.4134 80.7658 89.4523 78.2633 89.5125Z" fill="#FDD0B1"/>
<path d="M63.3806 79.3582C59.9036 79.3582 58.4358 81.7524 58.4358 84.4714C58.4358 87.1905 60.445 89.1636 63.6574 89.0313C66.4245 88.923 68.145 86.5769 67.8924 83.9782C67.6156 81.1508 66.3163 79.3582 63.3806 79.3582Z" fill="#FDD0B1"/>
<path d="M65.7628 64.4153C63.7656 66.3523 63.6934 69.685 65.823 71.4295C67.4833 72.801 70.443 73.2823 72.392 71.2611C74.3531 69.2518 74.0162 66.3764 72.2837 64.692C70.5512 62.9956 67.7239 62.5143 65.7628 64.4153Z" fill="#FDD0B1"/>
</svg>
