<svg width="22" height="24" viewBox="0 0 22 24" fill="none" xmlns="http://www.w3.org/2000/svg">
<path d="M8.25031 19.0001C3.25031 20.5001 3.25031 16.5001 1.25031 16.0001M15.2503 22.0001V18.1301C15.2878 17.6532 15.2234 17.1739 15.0613 16.7239C14.8992 16.2738 14.6432 15.8635 14.3103 15.5201C17.4503 15.1701 20.7503 13.9801 20.7503 8.52006C20.75 7.12389 20.213 5.78126 19.2503 4.77006C19.7062 3.54857 19.6739 2.19841 19.1603 1.00006C19.1603 1.00006 17.9803 0.65006 15.2503 2.48006C12.9583 1.85888 10.5423 1.85888 8.25031 2.48006C5.52031 0.65006 4.34031 1.00006 4.34031 1.00006C3.82668 2.19841 3.79445 3.54857 4.25031 4.77006C3.28043 5.78876 2.74283 7.14352 2.75031 8.55006C2.75031 13.9701 6.0503 15.1601 9.1903 15.5501C8.8613 15.89 8.60757 16.2955 8.44561 16.74C8.28366 17.1845 8.21711 17.6581 8.25031 18.1301V22.0001" stroke="#FE6596" stroke-width="2.5" stroke-linecap="round" stroke-linejoin="round"/>
</svg>
