<svg width="106" height="124" viewBox="0 0 106 124" fill="none" xmlns="http://www.w3.org/2000/svg">
<rect x="3.5" y="12.5" width="99" height="99" stroke="#FE6596"/>
<rect x="0.5" y="9.5" width="6" height="6" fill="#FE6596" stroke="#FE6596"/>
<rect x="99.5" y="9.5" width="6" height="6" fill="#FE6596" stroke="#FE6596"/>
<rect x="98.5" y="107.5" width="7" height="7" fill="#FE6596" stroke="#FE6596"/>
<rect x="0.5" y="108.5" width="6" height="6" fill="#FE6596" stroke="#FE6596"/>
<mask id="path-6-outside-1_40_2" maskUnits="userSpaceOnUse" x="44" y="26" width="20" height="63" fill="black">
<rect fill="white" x="44" y="26" width="20" height="63"/>
<path d="M56.378 27.75C57.642 27.8027 58.8007 27.9343 59.854 28.145C60.9073 28.3557 61.7763 28.6453 62.461 29.014C61.987 30.12 61.4603 31.621 60.881 33.517C60.3017 35.413 59.854 37.2037 59.538 38.889C58.0633 39.0997 56.5097 39.2577 54.877 39.363C53.2443 39.4157 51.48 39.4157 49.584 39.363C49.3207 38.5203 49.11 37.6777 48.952 36.835C48.8467 35.9923 48.794 35.1497 48.794 34.307C48.794 33.359 48.873 32.4373 49.031 31.542C49.189 30.6467 49.3997 29.8567 49.663 29.172C50.6637 28.698 51.6907 28.3557 52.744 28.145C53.85 27.8817 55.0613 27.75 56.378 27.75ZM47.372 47.421C48.478 46.789 49.7157 46.315 51.085 45.999C52.507 45.6303 54.008 45.446 55.588 45.446C56.3253 45.446 57.0627 45.4987 57.8 45.604C58.59 45.6567 59.3537 45.762 60.091 45.92C58.985 50.1333 58.0897 55.9793 57.405 63.458C56.7203 70.9367 56.378 78.6523 56.378 86.605C55.5353 86.9737 54.482 87.2633 53.218 87.474C52.0067 87.7373 50.7427 87.869 49.426 87.869C48.8467 87.869 48.32 87.8427 47.846 87.79C47.4247 87.7373 47.0297 87.6847 46.661 87.632C45.8183 80.4167 45.4497 73.3067 45.555 66.302C45.713 59.2973 46.3187 53.0037 47.372 47.421Z"/>
</mask>
<path d="M56.378 27.75C57.642 27.8027 58.8007 27.9343 59.854 28.145C60.9073 28.3557 61.7763 28.6453 62.461 29.014C61.987 30.12 61.4603 31.621 60.881 33.517C60.3017 35.413 59.854 37.2037 59.538 38.889C58.0633 39.0997 56.5097 39.2577 54.877 39.363C53.2443 39.4157 51.48 39.4157 49.584 39.363C49.3207 38.5203 49.11 37.6777 48.952 36.835C48.8467 35.9923 48.794 35.1497 48.794 34.307C48.794 33.359 48.873 32.4373 49.031 31.542C49.189 30.6467 49.3997 29.8567 49.663 29.172C50.6637 28.698 51.6907 28.3557 52.744 28.145C53.85 27.8817 55.0613 27.75 56.378 27.75ZM47.372 47.421C48.478 46.789 49.7157 46.315 51.085 45.999C52.507 45.6303 54.008 45.446 55.588 45.446C56.3253 45.446 57.0627 45.4987 57.8 45.604C58.59 45.6567 59.3537 45.762 60.091 45.92C58.985 50.1333 58.0897 55.9793 57.405 63.458C56.7203 70.9367 56.378 78.6523 56.378 86.605C55.5353 86.9737 54.482 87.2633 53.218 87.474C52.0067 87.7373 50.7427 87.869 49.426 87.869C48.8467 87.869 48.32 87.8427 47.846 87.79C47.4247 87.7373 47.0297 87.6847 46.661 87.632C45.8183 80.4167 45.4497 73.3067 45.555 66.302C45.713 59.2973 46.3187 53.0037 47.372 47.421Z" fill="#FE6596"/>
<path d="M56.378 27.75L56.4196 26.7509L56.3988 26.75H56.378V27.75ZM59.854 28.145L60.0501 27.1644H60.0501L59.854 28.145ZM62.461 29.014L63.3801 29.4079L63.7405 28.5672L62.9351 28.1335L62.461 29.014ZM59.538 38.889L59.6794 39.8789L60.3888 39.7776L60.5209 39.0733L59.538 38.889ZM54.877 39.363L54.9092 40.3625L54.9253 40.362L54.9414 40.3609L54.877 39.363ZM49.584 39.363L48.6295 39.6613L48.8425 40.3428L49.5562 40.3626L49.584 39.363ZM48.952 36.835L47.9597 36.959L47.9635 36.9893L47.9691 37.0193L48.952 36.835ZM49.031 31.542L50.0158 31.7158V31.7158L49.031 31.542ZM49.663 29.172L49.2349 28.2683L48.8733 28.4396L48.7297 28.813L49.663 29.172ZM52.744 28.145L52.9401 29.1256L52.9579 29.122L52.9756 29.1178L52.744 28.145ZM47.372 47.421L46.8759 46.5528L46.475 46.7818L46.3893 47.2356L47.372 47.421ZM51.085 45.999L51.3099 46.9734L51.323 46.9704L51.336 46.967L51.085 45.999ZM57.8 45.604L57.6586 46.5939L57.6959 46.5993L57.7335 46.6018L57.8 45.604ZM60.091 45.92L61.0582 46.1739L61.324 45.1615L60.3005 44.9422L60.091 45.92ZM57.405 63.458L58.4008 63.5492L57.405 63.458ZM56.378 86.605L56.7788 87.5212L57.378 87.259V86.605H56.378ZM53.218 87.474L53.0536 86.4876L53.0295 86.4916L53.0056 86.4968L53.218 87.474ZM47.846 87.79L47.722 88.7824L47.7356 88.7839L47.846 87.79ZM46.661 87.632L45.6678 87.748L45.7571 88.513L46.5196 88.6219L46.661 87.632ZM45.555 66.302L44.5552 66.2794L44.5551 66.287L45.555 66.302ZM56.378 27.75L56.3364 28.7491C57.5573 28.8 58.6635 28.9267 59.6579 29.1256L59.854 28.145L60.0501 27.1644C58.9378 26.942 57.7267 26.8053 56.4196 26.7509L56.378 27.75ZM59.854 28.145L59.6579 29.1256C60.6483 29.3237 61.4155 29.5868 61.9869 29.8945L62.461 29.014L62.9351 28.1335C62.1371 27.7038 61.1664 27.3877 60.0501 27.1644L59.854 28.145ZM62.461 29.014L61.5419 28.6201C61.0475 29.7736 60.5087 31.3132 59.9246 33.2248L60.881 33.517L61.8374 33.8092C62.4119 31.9288 62.9265 30.4664 63.3801 29.4079L62.461 29.014ZM60.881 33.517L59.9246 33.2248C59.3361 35.1509 58.8789 36.9778 58.5551 38.7047L59.538 38.889L60.5209 39.0733C60.8291 37.4295 61.2672 35.6751 61.8374 33.8092L60.881 33.517ZM59.538 38.889L59.3966 37.899C57.9498 38.1057 56.422 38.2612 54.8126 38.3651L54.877 39.363L54.9414 40.3609C56.5973 40.2541 58.1768 40.0936 59.6794 39.8789L59.538 38.889ZM54.877 39.363L54.8448 38.3635C53.235 38.4154 51.4909 38.4156 49.6118 38.3634L49.584 39.363L49.5562 40.3626C51.4691 40.4157 53.2537 40.4159 54.9092 40.3625L54.877 39.363ZM49.584 39.363L50.5385 39.0647C50.2865 38.2584 50.0854 37.4537 49.9349 36.6507L48.952 36.835L47.9691 37.0193C48.1346 37.9016 48.3548 38.7823 48.6295 39.6613L49.584 39.363ZM48.952 36.835L49.9443 36.711C49.844 35.9091 49.794 35.1079 49.794 34.307H48.794H47.794C47.794 35.1915 47.8493 36.0755 47.9597 36.959L48.952 36.835ZM48.794 34.307H49.794C49.794 33.4148 49.8683 32.5514 50.0158 31.7158L49.031 31.542L48.0462 31.3682C47.8777 32.3233 47.794 33.3032 47.794 34.307H48.794ZM49.031 31.542L50.0158 31.7158C50.1652 30.8693 50.3608 30.1435 50.5963 29.531L49.663 29.172L48.7297 28.813C48.4386 29.5698 48.2128 30.424 48.0462 31.3682L49.031 31.542ZM49.663 29.172L50.0911 30.0757C51.0201 29.6357 51.9694 29.3197 52.9401 29.1256L52.744 28.145L52.5479 27.1644C51.4119 27.3916 50.3072 27.7603 49.2349 28.2683L49.663 29.172ZM52.744 28.145L52.9756 29.1178C53.9949 28.8751 55.1274 28.75 56.378 28.75V27.75V26.75C54.9953 26.75 53.7051 26.8882 52.5124 27.1722L52.744 28.145ZM47.372 47.421L47.8681 48.2892C48.8811 47.7104 50.0259 47.2697 51.3099 46.9734L51.085 45.999L50.8601 45.0246C49.4054 45.3603 48.0749 45.8676 46.8759 46.5528L47.372 47.421ZM51.085 45.999L51.336 46.967C52.6701 46.6211 54.0863 46.446 55.588 46.446V45.446V44.446C53.9297 44.446 52.3439 44.6395 50.834 45.031L51.085 45.999ZM55.588 45.446V46.446C56.2775 46.446 56.9676 46.4952 57.6586 46.5939L57.8 45.604L57.9414 44.614C57.1577 44.5021 56.3731 44.446 55.588 44.446V45.446ZM57.8 45.604L57.7335 46.6018C58.4778 46.6514 59.1935 46.7504 59.8815 46.8978L60.091 45.92L60.3005 44.9422C59.5138 44.7736 58.7022 44.6619 57.8665 44.6062L57.8 45.604ZM60.091 45.92L59.1238 45.6661C57.9973 49.9575 57.0958 55.8665 56.4092 63.3668L57.405 63.458L58.4008 63.5492C59.0835 56.0922 59.9727 50.3092 61.0582 46.1739L60.091 45.92ZM57.405 63.458L56.4092 63.3668C55.7216 70.8775 55.378 78.6237 55.378 86.605H56.378H57.378C57.378 78.681 57.7191 70.9958 58.4008 63.5492L57.405 63.458ZM56.378 86.605L55.9772 85.6888C55.2332 86.0143 54.2655 86.2856 53.0536 86.4876L53.218 87.474L53.3824 88.4604C54.6985 88.241 55.8375 87.933 56.7788 87.5212L56.378 86.605ZM53.218 87.474L53.0056 86.4968C51.8682 86.7441 50.6757 86.869 49.426 86.869V87.869V88.869C50.8097 88.869 52.1451 88.7306 53.4304 88.4512L53.218 87.474ZM49.426 87.869V86.869C48.876 86.869 48.387 86.844 47.9564 86.7961L47.846 87.79L47.7356 88.7839C48.253 88.8414 48.8173 88.869 49.426 88.869V87.869ZM47.846 87.79L47.97 86.7977C47.5537 86.7457 47.1646 86.6938 46.8024 86.6421L46.661 87.632L46.5196 88.6219C46.8948 88.6755 47.2956 88.729 47.722 88.7823L47.846 87.79ZM46.661 87.632L47.6542 87.516C46.8165 80.3426 46.4502 73.2763 46.5549 66.317L45.555 66.302L44.5551 66.287C44.4491 73.337 44.8202 80.4908 45.6678 87.748L46.661 87.632ZM45.555 66.302L46.5547 66.3245C46.7118 59.3625 47.3135 53.1247 48.3547 47.6064L47.372 47.421L46.3893 47.2356C45.3239 52.8827 44.7142 59.2322 44.5553 66.2794L45.555 66.302Z" fill="#FE6596" mask="url(#path-6-outside-1_40_2)"/>
</svg>
