<svg width="54" height="54" viewBox="0 0 54 54" fill="none" xmlns="http://www.w3.org/2000/svg">
<mask id="path-1-outside-1_14_149" maskUnits="userSpaceOnUse" x="18.1423" y="18.2167" width="19.2139" height="18.291" fill="black">
<rect fill="white" x="18.1423" y="18.2167" width="19.2139" height="18.291"/>
<path d="M21.244 27.1907C21.2572 27.0141 21.2927 26.8182 21.3505 26.6032C21.4083 26.3882 21.4469 26.1508 21.4662 25.8911C21.4794 25.7145 21.4116 25.5736 21.2627 25.4685C21.1243 25.3642 20.9658 25.2479 20.7873 25.1197C20.6089 24.9915 20.4483 24.8333 20.3057 24.6451C20.1734 24.4577 20.1196 24.1978 20.1444 23.8653C20.1622 23.6264 20.2424 23.3921 20.3848 23.1625C20.5377 22.9337 20.7461 22.7298 21.0101 22.5511C21.6571 22.1397 22.3213 21.7766 23.0029 21.4618C23.6948 21.1478 24.3773 20.8905 25.0503 20.69C25.7337 20.4902 26.4025 20.3469 27.0566 20.2598C27.7107 20.1728 28.3338 20.1513 28.9259 20.1955C29.9231 20.2698 30.8441 20.5265 31.6888 20.9655C32.5447 21.3949 33.2706 21.9556 33.8667 22.6477C34.4739 23.3301 34.9323 24.1164 35.242 25.0064C35.5629 25.8869 35.6869 26.8153 35.6141 27.7918C35.5429 28.7475 35.2725 29.6413 34.8031 30.4733C34.3449 31.2957 33.7542 32.0037 33.031 32.5974C32.3078 33.1912 31.4751 33.6409 30.5331 33.9467C29.6007 34.2637 28.6307 34.3847 27.6231 34.3096C26.6363 34.236 25.7345 34.0016 24.9179 33.6065C24.1013 33.2114 23.4082 32.7001 22.8387 32.0727C22.2699 31.4349 21.8439 30.7033 21.5608 29.8779C21.2784 29.0421 21.1728 28.1463 21.244 27.1907ZM28.175 31.5304C28.6113 31.5629 29.0697 31.5083 29.5503 31.3665C30.031 31.2248 30.4758 31.002 30.885 30.6983C31.3052 30.3849 31.6582 29.9934 31.9439 29.5238C32.24 29.0549 32.4109 28.514 32.4566 27.9011C32.5031 27.2779 32.4322 26.6876 32.2439 26.1304C32.0556 25.5732 31.7737 25.0821 31.3979 24.6572C31.0334 24.2227 30.5844 23.8706 30.0509 23.601C29.5277 23.3322 28.9493 23.1742 28.3157 23.127C27.1626 23.041 26.2572 23.2764 25.5994 23.8333C24.9424 24.3797 24.5678 25.271 24.4757 26.5071C24.4253 27.1823 24.4772 27.8182 24.6312 28.4146C24.7963 29.0014 25.0448 29.5213 25.3767 29.9743C25.7093 30.4169 26.1108 30.7759 26.5812 31.0512C27.062 31.3273 27.5933 31.487 28.175 31.5304Z"/>
</mask>
<path d="M21.244 27.1907C21.2572 27.0141 21.2927 26.8182 21.3505 26.6032C21.4083 26.3882 21.4469 26.1508 21.4662 25.8911C21.4794 25.7145 21.4116 25.5736 21.2627 25.4685C21.1243 25.3642 20.9658 25.2479 20.7873 25.1197C20.6089 24.9915 20.4483 24.8333 20.3057 24.6451C20.1734 24.4577 20.1196 24.1978 20.1444 23.8653C20.1622 23.6264 20.2424 23.3921 20.3848 23.1625C20.5377 22.9337 20.7461 22.7298 21.0101 22.5511C21.6571 22.1397 22.3213 21.7766 23.0029 21.4618C23.6948 21.1478 24.3773 20.8905 25.0503 20.69C25.7337 20.4902 26.4025 20.3469 27.0566 20.2598C27.7107 20.1728 28.3338 20.1513 28.9259 20.1955C29.9231 20.2698 30.8441 20.5265 31.6888 20.9655C32.5447 21.3949 33.2706 21.9556 33.8667 22.6477C34.4739 23.3301 34.9323 24.1164 35.242 25.0064C35.5629 25.8869 35.6869 26.8153 35.6141 27.7918C35.5429 28.7475 35.2725 29.6413 34.8031 30.4733C34.3449 31.2957 33.7542 32.0037 33.031 32.5974C32.3078 33.1912 31.4751 33.6409 30.5331 33.9467C29.6007 34.2637 28.6307 34.3847 27.6231 34.3096C26.6363 34.236 25.7345 34.0016 24.9179 33.6065C24.1013 33.2114 23.4082 32.7001 22.8387 32.0727C22.2699 31.4349 21.8439 30.7033 21.5608 29.8779C21.2784 29.0421 21.1728 28.1463 21.244 27.1907ZM28.175 31.5304C28.6113 31.5629 29.0697 31.5083 29.5503 31.3665C30.031 31.2248 30.4758 31.002 30.885 30.6983C31.3052 30.3849 31.6582 29.9934 31.9439 29.5238C32.24 29.0549 32.4109 28.514 32.4566 27.9011C32.5031 27.2779 32.4322 26.6876 32.2439 26.1304C32.0556 25.5732 31.7737 25.0821 31.3979 24.6572C31.0334 24.2227 30.5844 23.8706 30.0509 23.601C29.5277 23.3322 28.9493 23.1742 28.3157 23.127C27.1626 23.041 26.2572 23.2764 25.5994 23.8333C24.9424 24.3797 24.5678 25.271 24.4757 26.5071C24.4253 27.1823 24.4772 27.8182 24.6312 28.4146C24.7963 29.0014 25.0448 29.5213 25.3767 29.9743C25.7093 30.4169 26.1108 30.7759 26.5812 31.0512C27.062 31.3273 27.5933 31.487 28.175 31.5304Z" fill="#FE6596"/>
<path d="M21.2627 25.4685L20.6609 26.2672L20.6733 26.2765L20.6859 26.2854L21.2627 25.4685ZM20.3057 24.6451L19.4886 25.2217L19.4984 25.2356L19.5087 25.2492L20.3057 24.6451ZM20.3848 23.1625L19.5533 22.6071L19.5439 22.6211L19.5351 22.6353L20.3848 23.1625ZM21.0101 22.5511L20.4736 21.7072L20.4614 21.715L20.4494 21.723L21.0101 22.5511ZM23.0029 21.4618L22.5896 20.5512L22.5836 20.554L23.0029 21.4618ZM25.0503 20.69L24.7697 19.7301L24.7648 19.7316L25.0503 20.69ZM31.6888 20.9655L31.2277 21.8528L31.234 21.8561L31.2404 21.8593L31.6888 20.9655ZM33.8667 22.6477L33.1089 23.3002L33.1142 23.3064L33.1196 23.3124L33.8667 22.6477ZM35.242 25.0064L34.2975 25.335L34.2999 25.3419L34.3024 25.3488L35.242 25.0064ZM34.8031 30.4733L33.9322 29.9819L33.9296 29.9866L34.8031 30.4733ZM30.5331 33.9467L30.2243 32.9955L30.2113 33L30.5331 33.9467ZM22.8387 32.0727L22.0923 32.7383L22.0982 32.7448L22.8387 32.0727ZM21.5608 29.8779L20.6134 30.198L20.6149 30.2024L21.5608 29.8779ZM30.885 30.6983L31.4811 31.5012L31.4827 31.5L30.885 30.6983ZM31.9439 29.5238L31.0984 28.9898L31.094 28.9969L31.0896 29.004L31.9439 29.5238ZM31.3979 24.6572L30.6318 25.2999L30.6402 25.3098L30.6488 25.3196L31.3979 24.6572ZM30.0509 23.601L29.5938 24.4905L29.5999 24.4936L30.0509 23.601ZM25.5994 23.8333L26.2389 24.6021L26.2455 24.5965L25.5994 23.8333ZM24.6312 28.4146L23.6629 28.6646L23.6656 28.6751L23.6686 28.6855L24.6312 28.4146ZM25.3767 29.9743L24.5699 30.5653L24.5772 30.5751L25.3767 29.9743ZM26.5812 31.0512L26.0761 31.9143L26.0832 31.9184L26.5812 31.0512ZM21.244 27.1907L22.2413 27.265C22.2487 27.1646 22.2707 27.0319 22.3162 26.8628L21.3505 26.6032L20.3848 26.3436C20.3146 26.6045 20.2656 26.8636 20.2468 27.1163L21.244 27.1907ZM21.3505 26.6032L22.3162 26.8628C22.3928 26.578 22.4402 26.2775 22.4635 25.9654L21.4662 25.8911L20.469 25.8167C20.4536 26.0241 20.4238 26.1983 20.3848 26.3436L21.3505 26.6032ZM21.4662 25.8911L22.4635 25.9654C22.5037 25.4263 22.2651 24.9522 21.8395 24.6517L21.2627 25.4685L20.6859 26.2854C20.6446 26.2563 20.5755 26.1933 20.5243 26.087C20.4724 25.9793 20.4643 25.8797 20.469 25.8167L21.4662 25.8911ZM21.2627 25.4685L21.8645 24.6699C21.7186 24.56 21.5539 24.4391 21.3708 24.3076L20.7873 25.1197L20.2039 25.9319C20.3777 26.0568 20.5299 26.1684 20.6609 26.2672L21.2627 25.4685ZM20.7873 25.1197L21.3708 24.3076C21.2793 24.2419 21.1894 24.1556 21.1026 24.0411L20.3057 24.6451L19.5087 25.2492C19.7072 25.5111 19.9384 25.7412 20.2039 25.9319L20.7873 25.1197ZM20.3057 24.6451L21.1227 24.0685C21.1472 24.1033 21.1488 24.1235 21.1454 24.1071C21.1415 24.0879 21.1345 24.0358 21.1417 23.9397L20.1444 23.8653L19.1472 23.791C19.1128 24.2527 19.1736 24.7753 19.4886 25.2217L20.3057 24.6451ZM20.1444 23.8653L21.1417 23.9397C21.146 23.881 21.166 23.8002 21.2346 23.6897L20.3848 23.1625L19.5351 22.6353C19.3187 22.9841 19.1784 23.3719 19.1472 23.791L20.1444 23.8653ZM20.3848 23.1625L21.2164 23.7179C21.287 23.6123 21.3971 23.4967 21.5708 23.3791L21.0101 22.5511L20.4494 21.723C20.0951 21.963 19.7884 22.2551 19.5533 22.6071L20.3848 23.1625ZM21.0101 22.5511L21.5467 23.3949C22.1569 23.0069 22.782 22.6654 23.4222 22.3696L23.0029 21.4618L22.5836 20.554C21.8607 20.8878 21.1573 21.2724 20.4736 21.7072L21.0101 22.5511ZM23.0029 21.4618L23.4161 22.3724C24.07 22.0757 24.7098 21.8349 25.3358 21.6484L25.0503 20.69L24.7648 19.7316C24.0447 19.9462 23.3196 20.2199 22.5896 20.5512L23.0029 21.4618ZM25.0503 20.69L25.3308 21.6498C25.9694 21.4632 26.5884 21.3309 27.1885 21.2511L27.0566 20.2598L26.9247 19.2686C26.2165 19.3628 25.498 19.5173 24.7697 19.7302L25.0503 20.69ZM27.0566 20.2598L27.1885 21.2511C27.7817 21.1721 28.3353 21.1542 28.8516 21.1927L28.9259 20.1955L29.0002 19.1982C28.3322 19.1484 27.6397 19.1734 26.9247 19.2686L27.0566 20.2598ZM28.9259 20.1955L28.8516 21.1927C29.7207 21.2575 30.5091 21.4794 31.2277 21.8528L31.6888 20.9655L32.15 20.0782C31.1791 19.5736 30.1256 19.2821 29.0002 19.1982L28.9259 20.1955ZM31.6888 20.9655L31.2404 21.8593C31.984 22.2324 32.6032 22.713 33.1089 23.3002L33.8667 22.6477L34.6244 21.9951C33.938 21.1982 33.1053 20.5574 32.1372 20.0717L31.6888 20.9655ZM33.8667 22.6477L33.1196 23.3124C33.6368 23.8937 34.0296 24.5649 34.2975 25.335L35.242 25.0064L36.1865 24.6778C35.8351 23.6679 35.3109 22.7665 34.6138 21.9829L33.8667 22.6477ZM35.242 25.0064L34.3024 25.3488C34.5726 26.09 34.6796 26.8759 34.6169 27.7175L35.6141 27.7918L36.6113 27.8661C36.6942 26.7547 36.5532 25.6837 36.1816 24.664L35.242 25.0064ZM35.6141 27.7918L34.6169 27.7175C34.5565 28.527 34.3291 29.2784 33.9322 29.9819L34.8031 30.4733L35.6741 30.9647C36.216 30.0042 36.5292 28.9679 36.6113 27.8661L35.6141 27.7918ZM34.8031 30.4733L33.9296 29.9866C33.532 30.7001 33.0222 31.3109 32.3965 31.8245L33.031 32.5974L33.6655 33.3704C34.4862 32.6966 35.1578 31.8913 35.6767 30.96L34.8031 30.4733ZM33.031 32.5974L32.3965 31.8245C31.7753 32.3345 31.0546 32.7261 30.2243 32.9956L30.5331 33.9467L30.8419 34.8979C31.8956 34.5558 32.8402 34.0478 33.6655 33.3704L33.031 32.5974ZM30.5331 33.9467L30.2113 33C29.4095 33.2725 28.5745 33.3777 27.6974 33.3123L27.6231 34.3096L27.5488 35.3068C28.6869 35.3916 29.7919 35.2549 30.855 34.8935L30.5331 33.9467ZM27.6231 34.3096L27.6974 33.3123C26.8246 33.2473 26.047 33.0419 25.3534 32.7063L24.9179 33.6065L24.4823 34.5067C25.4221 34.9614 26.4479 35.2247 27.5488 35.3068L27.6231 34.3096ZM24.9179 33.6065L25.3534 32.7063C24.6439 32.363 24.0566 31.9266 23.5791 31.4006L22.8387 32.0727L22.0982 32.7448C22.7598 33.4736 23.5586 34.0597 24.4823 34.5067L24.9179 33.6065ZM22.8387 32.0727L23.585 31.4072C23.1067 30.8708 22.7476 30.2557 22.5067 29.5534L21.5608 29.8779L20.6149 30.2024C20.9403 31.1509 21.4331 31.9991 22.0923 32.7383L22.8387 32.0727ZM21.5608 29.8779L22.5082 29.5578C22.2722 28.8594 22.1791 28.0988 22.2413 27.265L21.244 27.1907L20.2468 27.1163C20.1665 28.1939 20.2846 29.2248 20.6134 30.198L21.5608 29.8779ZM28.175 31.5304L28.1006 32.5276C28.6735 32.5703 29.2534 32.4967 29.8332 32.3257L29.5503 31.3665L29.2675 30.4074C28.886 30.5199 28.5491 30.5555 28.2493 30.5332L28.175 31.5304ZM29.5503 31.3665L29.8332 32.3257C30.4286 32.1501 30.9792 31.8738 31.4811 31.5012L30.885 30.6983L30.2888 29.8954C29.9725 30.1303 29.6334 30.2995 29.2675 30.4074L29.5503 31.3665ZM30.885 30.6983L31.4827 31.5C32.0108 31.1062 32.4492 30.6173 32.7983 30.0435L31.9439 29.5238L31.0896 29.004C30.8673 29.3695 30.5997 29.6636 30.2872 29.8966L30.885 30.6983ZM31.9439 29.5238L32.7895 30.0577C33.1822 29.4359 33.3973 28.7337 33.4538 27.9755L32.4566 27.9011L31.4594 27.8268C31.4245 28.2944 31.2979 28.6739 31.0984 28.9898L31.9439 29.5238ZM32.4566 27.9011L33.4538 27.9755C33.5096 27.2272 33.425 26.5022 33.1913 25.8103L32.2439 26.1304L31.2965 26.4505C31.4393 26.8731 31.4965 27.3285 31.4594 27.8268L32.4566 27.9011ZM32.2439 26.1304L33.1913 25.8103C32.962 25.1317 32.6143 24.5232 32.1471 23.9948L31.3979 24.6572L30.6488 25.3196C30.933 25.6411 31.1493 26.0147 31.2965 26.4505L32.2439 26.1304ZM31.3979 24.6572L32.1641 24.0145C31.7078 23.4707 31.1496 23.0358 30.5018 22.7085L30.0509 23.601L29.5999 24.4936C30.0191 24.7054 30.359 24.9747 30.6318 25.2999L31.3979 24.6572ZM30.0509 23.601L30.5079 22.7116C29.8564 22.3768 29.1463 22.1861 28.39 22.1297L28.3157 23.127L28.2413 24.1242C28.7523 24.1623 29.1991 24.2876 29.5938 24.4905L30.0509 23.601ZM28.3157 23.127L28.39 22.1297C27.0673 22.0311 25.872 22.2923 24.9533 23.07L25.5994 23.8333L26.2455 24.5965C26.6424 24.2606 27.258 24.0509 28.2413 24.1242L28.3157 23.127ZM25.5994 23.8333L24.96 23.0644C24.0158 23.8497 23.5816 25.0489 23.4784 26.4328L24.4757 26.5071L25.4729 26.5815C25.554 25.4931 25.869 24.9097 26.2388 24.6021L25.5994 23.8333ZM24.4757 26.5071L23.4784 26.4328C23.4208 27.2062 23.479 27.9524 23.6629 28.6646L24.6312 28.4146L25.5994 28.1646C25.4753 27.6839 25.4299 27.1584 25.4729 26.5815L24.4757 26.5071ZM24.6312 28.4146L23.6686 28.6855C23.8634 29.3776 24.1616 30.0078 24.5699 30.5652L25.3767 29.9743L26.1834 29.3834C25.9281 29.0348 25.7293 28.6252 25.5938 28.1436L24.6312 28.4146ZM25.3767 29.9743L24.5772 30.5751C24.9883 31.1221 25.4893 31.5708 26.0761 31.9143L26.5812 31.0512L27.0863 30.1882C26.7323 29.981 26.4303 29.7118 26.1761 29.3736L25.3767 29.9743ZM26.5812 31.0512L26.0832 31.9184C26.7005 32.2729 27.3777 32.4737 28.1006 32.5276L28.175 31.5304L28.2493 30.5332C27.8088 30.5003 27.4235 30.3817 27.0792 30.184L26.5812 31.0512Z" fill="#FE6596" mask="url(#path-1-outside-1_14_149)"/>
<rect x="5.48423" y="2.05214" width="46.1698" height="46.1698" transform="rotate(4.26309 5.48423 2.05214)" stroke="#FE6596"/>
<rect x="4.17826" y="0.535785" width="2.30189" height="2.30189" transform="rotate(4.26309 4.17826 0.535785)" fill="#FE6596" stroke="#FE6596"/>
<rect x="50.7472" y="4.00716" width="2.30189" height="2.30189" transform="rotate(4.26309 50.7472 4.00716)" fill="#FE6596" stroke="#FE6596"/>
<rect x="46.8405" y="50.0706" width="2.77358" height="2.77358" transform="rotate(4.26309 46.8405 50.0706)" fill="#FE6596" stroke="#FE6596"/>
<rect x="0.70689" y="47.1047" width="2.30189" height="2.30189" transform="rotate(4.26309 0.70689 47.1047)" fill="#FE6596" stroke="#FE6596"/>
</svg>
