<svg width="61" height="61" viewBox="0 0 61 61" fill="none" xmlns="http://www.w3.org/2000/svg">
<mask id="path-1-outside-1_14_141" maskUnits="userSpaceOnUse" x="20.0929" y="18.629" width="20.3171" height="23.2449" fill="black">
<rect fill="white" x="20.0929" y="18.629" width="20.3171" height="23.2449"/>
<path d="M31.5773 24.0677C31.203 24.1598 30.8992 24.3419 30.6658 24.6139C30.4299 24.8758 30.2544 25.2087 30.1392 25.6125C30.0216 26.0062 29.9556 26.4569 29.9411 26.9647C29.9242 27.4623 29.9437 27.9993 29.9997 28.5755C30.0558 29.1517 30.1433 29.747 30.2624 30.3614C30.3815 30.9757 30.5169 31.5914 30.6688 32.2084C30.868 33.0176 31.0951 33.8091 31.35 34.5832C31.6126 35.3446 31.826 36.059 31.9904 36.7266C32.0974 37.1615 32.019 37.5402 31.7551 37.8626C31.4937 38.1952 31.0646 38.4349 30.4678 38.5818C30.3566 38.6092 30.2277 38.6303 30.0811 38.6449C29.9345 38.6595 29.788 38.6527 29.6415 38.6244C29.5052 38.5936 29.3728 38.535 29.2443 38.4486C29.1283 38.3699 29.0429 38.2407 28.988 38.0611C28.6778 37.1935 28.3222 36.3155 27.9212 35.4273C27.5201 34.5391 27.0748 33.6671 26.5852 32.8114C26.1033 31.9431 25.5682 31.0987 24.9799 30.278C24.4018 29.4548 23.773 28.6656 23.0936 27.9103C22.9753 27.7785 22.8697 27.6543 22.7766 27.5377C22.6937 27.4187 22.6373 27.2985 22.6074 27.1771C22.57 27.0254 22.5959 26.8474 22.6851 26.6431C22.7819 26.4261 22.9127 26.2169 23.0777 26.0154C23.2527 25.8114 23.4504 25.634 23.6708 25.4832C23.8987 25.3198 24.129 25.2094 24.3617 25.1522C24.746 25.0575 25.1509 25.2422 25.5762 25.706C25.999 26.1598 26.48 26.9371 27.0192 28.038C27.1196 28.2279 27.1949 28.3595 27.2452 28.433C27.2954 28.5064 27.3459 28.5369 27.3964 28.5245C27.5077 28.4971 27.5362 28.3077 27.4819 27.9563C27.3667 26.9656 27.3711 26.0902 27.4951 25.3302C27.6166 24.56 27.84 23.8989 28.1654 23.3468C28.4984 22.7821 28.9219 22.3238 29.4361 21.9719C29.9603 21.6176 30.5663 21.3557 31.2541 21.1864C31.6486 21.0893 32.0568 21.0263 32.4789 20.9975C32.9009 20.9687 33.2911 20.9853 33.6497 21.0472C34.0082 21.1091 34.3135 21.2164 34.5656 21.3688C34.8177 21.5213 34.9749 21.724 35.0371 21.9769C35.082 22.1589 35.095 22.3864 35.0764 22.6592C35.0653 22.9193 35.0278 23.1807 34.9637 23.4432C34.8971 23.6956 34.8028 23.9227 34.6808 24.1243C34.5664 24.3134 34.4283 24.4279 34.2665 24.4677C34.0844 24.5125 33.895 24.5055 33.6981 24.4467C33.4988 24.3778 33.283 24.3075 33.0508 24.236C32.8288 24.1619 32.594 24.1017 32.3466 24.0553C32.1068 23.9963 31.8504 24.0005 31.5773 24.0677Z"/>
</mask>
<path d="M31.5773 24.0677C31.203 24.1598 30.8992 24.3419 30.6658 24.6139C30.4299 24.8758 30.2544 25.2087 30.1392 25.6125C30.0216 26.0062 29.9556 26.4569 29.9411 26.9647C29.9242 27.4623 29.9437 27.9993 29.9997 28.5755C30.0558 29.1517 30.1433 29.747 30.2624 30.3614C30.3815 30.9757 30.5169 31.5914 30.6688 32.2084C30.868 33.0176 31.0951 33.8091 31.35 34.5832C31.6126 35.3446 31.826 36.059 31.9904 36.7266C32.0974 37.1615 32.019 37.5402 31.7551 37.8626C31.4937 38.1952 31.0646 38.4349 30.4678 38.5818C30.3566 38.6092 30.2277 38.6303 30.0811 38.6449C29.9345 38.6595 29.788 38.6527 29.6415 38.6244C29.5052 38.5936 29.3728 38.535 29.2443 38.4486C29.1283 38.3699 29.0429 38.2407 28.988 38.0611C28.6778 37.1935 28.3222 36.3155 27.9212 35.4273C27.5201 34.5391 27.0748 33.6671 26.5852 32.8114C26.1033 31.9431 25.5682 31.0987 24.9799 30.278C24.4018 29.4548 23.773 28.6656 23.0936 27.9103C22.9753 27.7785 22.8697 27.6543 22.7766 27.5377C22.6937 27.4187 22.6373 27.2985 22.6074 27.1771C22.57 27.0254 22.5959 26.8474 22.6851 26.6431C22.7819 26.4261 22.9127 26.2169 23.0777 26.0154C23.2527 25.8114 23.4504 25.634 23.6708 25.4832C23.8987 25.3198 24.129 25.2094 24.3617 25.1522C24.746 25.0575 25.1509 25.2422 25.5762 25.706C25.999 26.1598 26.48 26.9371 27.0192 28.038C27.1196 28.2279 27.1949 28.3595 27.2452 28.433C27.2954 28.5064 27.3459 28.5369 27.3964 28.5245C27.5077 28.4971 27.5362 28.3077 27.4819 27.9563C27.3667 26.9656 27.3711 26.0902 27.4951 25.3302C27.6166 24.56 27.84 23.8989 28.1654 23.3468C28.4984 22.7821 28.9219 22.3238 29.4361 21.9719C29.9603 21.6176 30.5663 21.3557 31.2541 21.1864C31.6486 21.0893 32.0568 21.0263 32.4789 20.9975C32.9009 20.9687 33.2911 20.9853 33.6497 21.0472C34.0082 21.1091 34.3135 21.2164 34.5656 21.3688C34.8177 21.5213 34.9749 21.724 35.0371 21.9769C35.082 22.1589 35.095 22.3864 35.0764 22.6592C35.0653 22.9193 35.0278 23.1807 34.9637 23.4432C34.8971 23.6956 34.8028 23.9227 34.6808 24.1243C34.5664 24.3134 34.4283 24.4279 34.2665 24.4677C34.0844 24.5125 33.895 24.5055 33.6981 24.4467C33.4988 24.3778 33.283 24.3075 33.0508 24.236C32.8288 24.1619 32.594 24.1017 32.3466 24.0553C32.1068 23.9963 31.8504 24.0005 31.5773 24.0677Z" fill="#FE6596"/>
<path d="M30.6658 24.6139L31.4088 25.2832L31.4169 25.2743L31.4247 25.2651L30.6658 24.6139ZM30.1392 25.6125L31.0975 25.8988L31.1009 25.8867L30.1392 25.6125ZM29.9411 26.9647L30.9405 26.9987L30.9407 26.9932L29.9411 26.9647ZM29.9997 28.5755L29.0044 28.6723L29.9997 28.5755ZM31.35 34.5832L30.4001 34.896L30.4046 34.9091L31.35 34.5832ZM31.7551 37.8626L30.9813 37.2293L30.975 37.2369L30.9689 37.2446L31.7551 37.8626ZM29.6415 38.6244L29.4211 39.5998L29.4363 39.6032L29.4517 39.6062L29.6415 38.6244ZM29.2443 38.4486L28.6824 39.2759L28.6866 39.2787L29.2443 38.4486ZM28.988 38.0611L29.9442 37.7686L29.9374 37.7464L29.9296 37.7245L28.988 38.0611ZM26.5852 32.8114L25.7108 33.2968L25.7172 33.308L26.5852 32.8114ZM24.9799 30.278L24.1616 30.8527L24.1672 30.8606L24.9799 30.278ZM23.0936 27.9103L22.3493 28.5781L22.3501 28.579L23.0936 27.9103ZM22.7766 27.5377L21.9561 28.1094L21.9748 28.1362L21.9952 28.1617L22.7766 27.5377ZM22.6851 26.6431L21.7718 26.2356L21.7686 26.2431L22.6851 26.6431ZM23.0777 26.0154L22.3188 25.3642L22.3112 25.373L22.3038 25.382L23.0777 26.0154ZM23.6708 25.4832L24.2355 26.3084L24.2445 26.3023L24.2534 26.2959L23.6708 25.4832ZM25.5762 25.706L24.8391 26.3818L24.8446 26.3877L25.5762 25.706ZM27.0192 28.038L26.1212 28.4779L26.128 28.4918L26.1352 28.5055L27.0192 28.038ZM27.4819 27.9563L26.4885 28.0718L26.4907 28.0905L26.4936 28.1091L27.4819 27.9563ZM27.4951 25.3302L28.482 25.4912L28.4829 25.486L27.4951 25.3302ZM28.1654 23.3468L27.304 22.8389L27.3039 22.8391L28.1654 23.3468ZM29.4361 21.9719L28.8761 21.1434L28.8713 21.1467L29.4361 21.9719ZM35.0764 22.6592L34.0787 22.5909L34.0778 22.6038L34.0773 22.6168L35.0764 22.6592ZM34.9637 23.4432L35.9306 23.6983L35.9329 23.6894L35.9351 23.6804L34.9637 23.4432ZM33.6981 24.4467L33.3713 25.3918L33.3914 25.3988L33.4118 25.4049L33.6981 24.4467ZM33.0508 24.236L32.7344 25.1846L32.7453 25.1882L32.7562 25.1916L33.0508 24.236ZM32.3466 24.0553L32.1078 25.0264L32.135 25.0331L32.1624 25.0382L32.3466 24.0553ZM31.5773 24.0677L31.3382 23.0967C30.7777 23.2347 30.2864 23.5204 29.9069 23.9627L30.6658 24.6139L31.4247 25.2651C31.512 25.1634 31.6284 25.085 31.8163 25.0387L31.5773 24.0677ZM30.6658 24.6139L29.9228 23.9447C29.5671 24.3395 29.3266 24.8156 29.1776 25.3383L30.1392 25.6125L31.1009 25.8867C31.1822 25.6017 31.2927 25.4121 31.4088 25.2832L30.6658 24.6139ZM30.1392 25.6125L29.1811 25.3262C29.0334 25.8207 28.9579 26.3608 28.9415 26.9362L29.9411 26.9647L30.9407 26.9932C30.9532 26.5531 31.0098 26.1917 31.0974 25.8988L30.1392 25.6125ZM29.9411 26.9647L28.9417 26.9307C28.923 27.4783 28.9448 28.0594 29.0044 28.6723L29.9997 28.5755L30.995 28.4787C30.9426 27.9391 30.9253 27.4464 30.9405 26.9987L29.9411 26.9647ZM29.9997 28.5755L29.0044 28.6723C29.0638 29.2823 29.1561 29.9088 29.2807 30.5516L30.2624 30.3614L31.2441 30.1711C31.1306 29.5852 31.0478 29.0212 30.995 28.4787L29.9997 28.5755ZM30.2624 30.3614L29.2807 30.5516C29.4029 31.1826 29.542 31.8145 29.6978 32.4474L30.6688 32.2084L31.6398 31.9693C31.4919 31.3683 31.36 30.7689 31.2441 30.1711L30.2624 30.3614ZM30.6688 32.2084L29.6978 32.4474C29.903 33.2809 30.1371 34.0971 30.4002 34.896L31.35 34.5832L32.2998 34.2703C32.0531 33.5212 31.8331 32.7542 31.6398 31.9693L30.6688 32.2084ZM31.35 34.5832L30.4046 34.9091C30.659 35.6467 30.8633 36.3319 31.0193 36.9657L31.9904 36.7266L32.9614 36.4876C32.7887 35.7862 32.5662 35.0424 32.2954 34.2572L31.35 34.5832ZM31.9904 36.7266L31.0193 36.9657C31.0577 37.1216 31.0291 37.1709 30.9813 37.2293L31.7551 37.8626L32.529 38.496C33.009 37.9095 33.1371 37.2015 32.9614 36.4876L31.9904 36.7266ZM31.7551 37.8626L30.9689 37.2446C30.8956 37.3379 30.7038 37.4939 30.2288 37.6108L30.4678 38.5818L30.7069 39.5529C31.4254 39.376 32.0918 39.0525 32.5413 38.4807L31.7551 37.8626ZM30.4678 38.5818L30.2288 37.6108C30.1743 37.6243 30.0938 37.6386 29.9817 37.6498L30.0811 38.6449L30.1804 39.6399C30.3615 39.6219 30.5389 39.5942 30.7069 39.5529L30.4678 38.5818ZM30.0811 38.6449L29.9817 37.6498C29.9329 37.6547 29.8838 37.6527 29.8314 37.6425L29.6415 38.6244L29.4517 39.6062C29.6922 39.6527 29.9361 39.6643 30.1804 39.6399L30.0811 38.6449ZM29.6415 38.6244L29.862 37.649C29.8584 37.6482 29.8391 37.6435 29.8019 37.6186L29.2443 38.4486L28.6866 39.2787C28.9065 39.4264 29.152 39.5389 29.4211 39.5998L29.6415 38.6244ZM29.2443 38.4486L29.8061 37.6214C29.9342 37.7083 29.9551 37.8043 29.9442 37.7686L28.988 38.0611L28.0317 38.3537C28.1307 38.6771 28.3225 39.0314 28.6824 39.2759L29.2443 38.4486ZM28.988 38.0611L29.9296 37.7245C29.6099 36.8301 29.2441 35.9272 28.8326 35.0158L27.9212 35.4273L27.0097 35.8388C27.4003 36.7039 27.7457 37.5568 28.0463 38.3977L28.988 38.0611ZM27.9212 35.4273L28.8326 35.0158C28.4183 34.0982 27.9584 33.1979 27.4532 32.3148L26.5852 32.8114L25.7172 33.308C26.1912 34.1364 26.622 34.98 27.0097 35.8388L27.9212 35.4273ZM26.5852 32.8114L27.4596 32.3261C26.9587 31.4237 26.4029 30.5468 25.7927 29.6954L24.9799 30.278L24.1672 30.8606C24.7334 31.6505 25.2479 32.4626 25.7109 33.2967L26.5852 32.8114ZM24.9799 30.278L25.7983 29.7032C25.1969 28.8469 24.5431 28.0263 23.8371 27.2415L23.0936 27.9103L22.3501 28.579C23.003 29.3048 23.6067 30.0627 24.1616 30.8527L24.9799 30.278ZM23.0936 27.9103L23.8379 27.2424C23.7301 27.1223 23.6372 27.0129 23.5581 26.9138L22.7766 27.5377L21.9952 28.1617C22.1022 28.2957 22.2205 28.4346 22.3493 28.5781L23.0936 27.9103ZM22.7766 27.5377L23.5971 26.966C23.5732 26.9318 23.5746 26.9228 23.5784 26.9381L22.6074 27.1771L21.6364 27.4162C21.6999 27.6742 21.8141 27.9056 21.9561 28.1094L22.7766 27.5377ZM22.6074 27.1771L23.5784 26.9381C23.5949 27.005 23.5912 27.0542 23.5884 27.0738C23.5859 27.0911 23.5846 27.0821 23.6016 27.043L22.6851 26.6431L21.7686 26.2431C21.628 26.5653 21.5283 26.9772 21.6364 27.4162L22.6074 27.1771ZM22.6851 26.6431L23.5983 27.0505C23.6556 26.9221 23.7375 26.788 23.8515 26.6488L23.0777 26.0154L22.3038 25.382C22.088 25.6458 21.9082 25.9301 21.7719 26.2356L22.6851 26.6431ZM23.0777 26.0154L23.8366 26.6666C23.9552 26.5283 24.0877 26.4096 24.2355 26.3084L23.6708 25.4832L23.106 24.6579C22.8131 24.8584 22.5503 25.0944 22.3188 25.3642L23.0777 26.0154ZM23.6708 25.4832L24.2534 26.2959C24.3953 26.1942 24.5108 26.1453 24.6007 26.1232L24.3617 25.1522L24.1226 24.1812C23.7473 24.2736 23.4022 24.4453 23.0882 24.6704L23.6708 25.4832ZM24.3617 25.1522L24.6007 26.1232C24.5812 26.128 24.5593 26.1293 24.5405 26.1271C24.5231 26.1251 24.5216 26.1217 24.5386 26.1295C24.5796 26.1482 24.6822 26.2108 24.8391 26.3818L25.5762 25.706L26.3132 25.0302C25.797 24.4671 25.0404 23.9552 24.1226 24.1812L24.3617 25.1522ZM25.5762 25.706L24.8446 26.3877C25.1629 26.7294 25.5917 27.3968 26.1212 28.4779L27.0192 28.038L27.9173 27.5982C27.3683 26.4774 26.835 25.5901 26.3078 25.0243L25.5762 25.706ZM27.0192 28.038L26.1352 28.5055C26.2355 28.6953 26.3341 28.8724 26.4199 28.9978L27.2452 28.433L28.0704 27.8682C28.0705 27.8683 28.0692 27.8664 28.0665 27.8622C28.0639 27.8581 28.0602 27.8523 28.0556 27.8448C28.0462 27.8294 28.0341 27.809 28.019 27.7826C27.9886 27.7294 27.9502 27.6594 27.9033 27.5706L27.0192 28.038ZM27.2452 28.433L26.4199 28.9978C26.5209 29.1453 26.9356 29.6678 27.6355 29.4955L27.3964 28.5245L27.1574 27.5535C27.4243 27.4878 27.669 27.5529 27.8383 27.6553C27.9813 27.7418 28.0523 27.8417 28.0704 27.8682L27.2452 28.433ZM27.3964 28.5245L27.6355 29.4955C28.3109 29.3292 28.4602 28.7097 28.4901 28.5106C28.5272 28.2642 28.5019 28.0091 28.4701 27.8036L27.4819 27.9563L26.4936 28.1091C26.5161 28.2549 26.5038 28.2703 26.5124 28.2132C26.517 28.1825 26.5366 28.0671 26.6239 27.9318C26.726 27.7734 26.9056 27.6155 27.1574 27.5535L27.3964 28.5245ZM27.4819 27.9563L28.4752 27.8409C28.3677 26.9165 28.3766 26.1374 28.482 25.4912L27.4951 25.3302L26.5081 25.1691C26.3656 26.0429 26.3656 27.0146 26.4885 28.0718L27.4819 27.9563ZM27.4951 25.3302L28.4829 25.486C28.5889 24.8139 28.7776 24.2776 29.0269 23.8545L28.1654 23.3468L27.3039 22.8391C26.9025 23.5202 26.6443 24.3061 26.5073 25.1743L27.4951 25.3302ZM28.1654 23.3468L29.0268 23.8547C29.2893 23.4095 29.6139 23.0619 30.0008 22.7972L29.4361 21.9719L28.8713 21.1467C28.2299 21.5856 27.7074 22.1547 27.304 22.8389L28.1654 23.3468ZM29.4361 21.9719L29.9961 22.8004C30.4116 22.5195 30.9063 22.3019 31.4932 22.1574L31.2541 21.1864L31.0151 20.2154C30.2263 20.4096 29.509 20.7156 28.8761 21.1434L29.4361 21.9719ZM31.2541 21.1864L31.4932 22.1574C31.8293 22.0747 32.1802 22.0203 32.5469 21.9952L32.4789 20.9975L32.4108 19.9999C31.9335 20.0324 31.4679 20.1039 31.0151 20.2154L31.2541 21.1864ZM32.4789 20.9975L32.5469 21.9952C32.9019 21.971 33.2111 21.9863 33.4795 22.0326L33.6497 21.0472L33.8199 20.0618C33.3712 19.9843 32.8999 19.9665 32.4108 19.9999L32.4789 20.9975ZM33.6497 21.0472L33.4795 22.0326C33.7431 22.0782 33.9245 22.1497 34.048 22.2245L34.5656 21.3688L35.0832 20.5132C34.7026 20.283 34.2734 20.1401 33.8199 20.0618L33.6497 21.0472ZM34.5656 21.3688L34.048 22.2245C34.0665 22.2357 34.0769 22.2439 34.0815 22.2479C34.0859 22.2517 34.0854 22.252 34.0823 22.248C34.0792 22.2439 34.0752 22.2379 34.0717 22.2306C34.0682 22.2233 34.0666 22.2179 34.0661 22.2159L35.0371 21.9769L36.0081 21.7378C35.874 21.1928 35.5297 20.7833 35.0832 20.5132L34.5656 21.3688ZM35.0371 21.9769L34.0661 22.2159C34.0777 22.263 34.0932 22.3785 34.0787 22.5909L35.0764 22.6592L36.074 22.7274C36.0968 22.3942 36.0862 22.0549 36.0081 21.7378L35.0371 21.9769ZM35.0764 22.6592L34.0773 22.6168C34.0691 22.8088 34.0413 23.0049 33.9922 23.206L34.9637 23.4432L35.9351 23.6804C36.0142 23.3564 36.0615 23.0298 36.0755 22.7015L35.0764 22.6592ZM34.9637 23.4432L33.9967 23.1881C33.9519 23.358 33.8927 23.4951 33.8251 23.6068L34.6808 24.1243L35.5364 24.6419C35.7128 24.3502 35.8422 24.0333 35.9306 23.6983L34.9637 23.4432ZM34.6808 24.1243L33.8251 23.6068C33.8129 23.627 33.8189 23.6105 33.8533 23.582C33.8914 23.5505 33.9509 23.5155 34.0274 23.4967L34.2665 24.4677L34.5055 25.4387C35.0004 25.3169 35.3311 24.9814 35.5364 24.6419L34.6808 24.1243ZM34.2665 24.4677L34.0274 23.4967C34.027 23.4968 34.0271 23.4968 34.0273 23.4967C34.0274 23.4967 34.0267 23.4968 34.0247 23.4967C34.0213 23.4966 34.0085 23.4958 33.9844 23.4886L33.6981 24.4467L33.4118 25.4049C33.7627 25.5097 34.134 25.5302 34.5055 25.4387L34.2665 24.4677ZM33.6981 24.4467L34.0249 23.5016C33.8134 23.4285 33.5868 23.3547 33.3454 23.2803L33.0508 24.236L32.7562 25.1916C32.9792 25.2603 33.1841 25.3271 33.3713 25.3918L33.6981 24.4467ZM33.0508 24.236L33.3672 23.2873C33.0988 23.1978 32.8197 23.1266 32.5308 23.0724L32.3466 24.0553L32.1624 25.0382C32.3684 25.0768 32.5587 25.126 32.7344 25.1846L33.0508 24.236ZM32.3466 24.0553L32.5854 23.0842C32.168 22.9816 31.7462 22.9962 31.3382 23.0967L31.5773 24.0677L31.8163 25.0387C31.9545 25.0047 32.0456 25.0111 32.1078 25.0264L32.3466 24.0553Z" fill="#FE6596" mask="url(#path-1-outside-1_14_141)"/>
<rect x="2.31737" y="13.3543" width="46.1698" height="46.1698" transform="rotate(-13.8305 2.31737 13.3543)" stroke="#FE6596"/>
<rect x="0.605029" y="12.3185" width="2.30189" height="2.30189" transform="rotate(-13.8305 0.605029 12.3185)" fill="#FE6596" stroke="#FE6596"/>
<rect x="45.9492" y="1.15529" width="2.30189" height="2.30189" transform="rotate(-13.8305 45.9492 1.15529)" fill="#FE6596" stroke="#FE6596"/>
<rect x="56.5417" y="46.1543" width="2.77358" height="2.77358" transform="rotate(-13.8305 56.5417 46.1543)" fill="#FE6596" stroke="#FE6596"/>
<rect x="11.7682" y="57.6627" width="2.30189" height="2.30189" transform="rotate(-13.8305 11.7682 57.6627)" fill="#FE6596" stroke="#FE6596"/>
</svg>
