<svg width="106" height="124" viewBox="0 0 106 124" fill="none" xmlns="http://www.w3.org/2000/svg">
<rect x="3.5" y="12.5" width="99" height="99" stroke="#FE6596"/>
<rect x="0.5" y="9.5" width="6" height="6" fill="#FE6596" stroke="#FE6596"/>
<rect x="99.5" y="9.5" width="6" height="6" fill="#FE6596" stroke="#FE6596"/>
<rect x="98.5" y="107.5" width="7" height="7" fill="#FE6596" stroke="#FE6596"/>
<rect x="0.5" y="108.5" width="6" height="6" fill="#FE6596" stroke="#FE6596"/>
<mask id="path-6-outside-1_3_29" maskUnits="userSpaceOnUse" x="26" y="30" width="54" height="67" fill="black">
<rect fill="white" x="26" y="30" width="54" height="67"/>
<path d="M78.56 92.135C77.138 93.083 75.479 93.8467 73.583 94.426C71.7397 95.0053 69.475 95.4793 66.789 95.848C66.2623 91.582 65.6567 87.6057 64.972 83.919C64.34 80.1797 63.629 76.651 62.839 73.333C59.4157 73.333 56.1503 73.4383 53.043 73.649C49.9883 73.807 47.0917 74.0703 44.353 74.439C43.247 77.283 42.1673 79.9163 41.114 82.339C40.0607 84.7617 38.981 87.0263 37.875 89.133C35.8737 88.7643 34.004 88.1323 32.266 87.237C30.5807 86.3417 29.2113 85.262 28.158 83.998C32.5293 76.0453 36.216 68.1717 39.218 60.377C42.22 52.5297 45.222 42.76 48.224 31.068C50.278 31.1207 52.1213 31.2523 53.754 31.463C55.3867 31.621 57.151 31.9107 59.047 32.332C63.787 40.6007 67.737 49.6067 70.897 59.35C74.1097 69.0407 76.664 79.969 78.56 92.135ZM53.438 44.814C52.49 48.606 51.4893 52.2927 50.436 55.874C49.4353 59.4553 48.382 62.8787 47.276 66.144C49.6987 65.828 52.016 65.591 54.228 65.433C56.44 65.2223 58.5993 65.0907 60.706 65.038C59.6527 61.3513 58.5203 57.8227 57.309 54.452C56.0977 51.0813 54.8073 47.8687 53.438 44.814Z"/>
</mask>
<path d="M78.56 92.135C77.138 93.083 75.479 93.8467 73.583 94.426C71.7397 95.0053 69.475 95.4793 66.789 95.848C66.2623 91.582 65.6567 87.6057 64.972 83.919C64.34 80.1797 63.629 76.651 62.839 73.333C59.4157 73.333 56.1503 73.4383 53.043 73.649C49.9883 73.807 47.0917 74.0703 44.353 74.439C43.247 77.283 42.1673 79.9163 41.114 82.339C40.0607 84.7617 38.981 87.0263 37.875 89.133C35.8737 88.7643 34.004 88.1323 32.266 87.237C30.5807 86.3417 29.2113 85.262 28.158 83.998C32.5293 76.0453 36.216 68.1717 39.218 60.377C42.22 52.5297 45.222 42.76 48.224 31.068C50.278 31.1207 52.1213 31.2523 53.754 31.463C55.3867 31.621 57.151 31.9107 59.047 32.332C63.787 40.6007 67.737 49.6067 70.897 59.35C74.1097 69.0407 76.664 79.969 78.56 92.135ZM53.438 44.814C52.49 48.606 51.4893 52.2927 50.436 55.874C49.4353 59.4553 48.382 62.8787 47.276 66.144C49.6987 65.828 52.016 65.591 54.228 65.433C56.44 65.2223 58.5993 65.0907 60.706 65.038C59.6527 61.3513 58.5203 57.8227 57.309 54.452C56.0977 51.0813 54.8073 47.8687 53.438 44.814Z" fill="#FE6596"/>
<path d="M78.56 92.135L79.1147 92.967L79.6465 92.6125L79.5481 91.981L78.56 92.135ZM73.583 94.426L73.2908 93.4696L73.2832 93.472L73.583 94.426ZM66.789 95.848L65.7965 95.9705L65.9207 96.9765L66.925 96.8387L66.789 95.848ZM64.972 83.919L63.986 84.0856L63.9873 84.0936L63.9888 84.1016L64.972 83.919ZM62.839 73.333L63.8118 73.1014L63.6289 72.333H62.839V73.333ZM53.043 73.649L53.0947 74.6477L53.1027 74.6472L53.1106 74.6467L53.043 73.649ZM44.353 74.439L44.2196 73.4479L43.6348 73.5267L43.421 74.0766L44.353 74.439ZM41.114 82.339L40.1969 81.9403V81.9403L41.114 82.339ZM37.875 89.133L37.6938 90.1165L38.4181 90.2499L38.7604 89.5978L37.875 89.133ZM32.266 87.237L31.7968 88.1202L31.808 88.126L32.266 87.237ZM28.158 83.998L27.2817 83.5163L26.9531 84.1141L27.3898 84.6382L28.158 83.998ZM39.218 60.377L40.1512 60.7364L40.152 60.7343L39.218 60.377ZM48.224 31.068L48.2496 30.0683L47.4535 30.0479L47.2554 30.8193L48.224 31.068ZM53.754 31.463L53.626 32.4548L53.6418 32.4568L53.6577 32.4584L53.754 31.463ZM59.047 32.332L59.9146 31.8347L59.695 31.4516L59.2639 31.3558L59.047 32.332ZM70.897 59.35L69.9458 59.6585L69.9478 59.6647L70.897 59.35ZM53.438 44.814L54.3505 44.4049L53.1686 41.7684L52.4679 44.5715L53.438 44.814ZM50.436 55.874L49.4765 55.5918L49.4729 55.6049L50.436 55.874ZM47.276 66.144L46.3289 65.8232L45.814 67.3432L47.4053 67.1356L47.276 66.144ZM54.228 65.433L54.2992 66.4305L54.311 66.4296L54.3228 66.4285L54.228 65.433ZM60.706 65.038L60.731 66.0377L62.0224 66.0054L61.6675 64.7633L60.706 65.038ZM57.309 54.452L58.2501 54.1138V54.1138L57.309 54.452ZM78.56 92.135L78.0053 91.3029C76.676 92.1891 75.1082 92.9143 73.2908 93.4697L73.583 94.426L73.8752 95.3824C75.8498 94.779 77.6 93.9769 79.1147 92.967L78.56 92.135ZM73.583 94.426L73.2832 93.472C71.5099 94.0293 69.3038 94.4935 66.653 94.8573L66.789 95.848L66.925 96.8387C69.6462 96.4652 71.9695 95.9813 73.8828 95.38L73.583 94.426ZM66.789 95.848L67.7815 95.7255C67.2527 91.4422 66.644 87.4456 65.9552 83.7364L64.972 83.919L63.9888 84.1016C64.6693 87.7657 65.272 91.7218 65.7965 95.9705L66.789 95.848ZM64.972 83.919L65.958 83.7523C65.3227 79.9936 64.6075 76.4431 63.8118 73.1014L62.839 73.333L61.8662 73.5646C62.6505 76.8589 63.3573 80.3657 63.986 84.0856L64.972 83.919ZM62.839 73.333V72.333C59.3953 72.333 56.1073 72.439 52.9754 72.6513L53.043 73.649L53.1106 74.6467C56.1934 74.4377 59.4361 74.333 62.839 74.333V73.333ZM53.043 73.649L52.9913 72.6503C49.9122 72.8096 46.9881 73.0753 44.2196 73.4479L44.353 74.439L44.4864 75.4301C47.1953 75.0654 50.0645 74.8044 53.0947 74.6477L53.043 73.649ZM44.353 74.439L43.421 74.0766C42.319 76.9102 41.2443 79.5313 40.1969 81.9403L41.114 82.339L42.0311 82.7377C43.0903 80.3014 44.175 77.6558 45.285 74.8014L44.353 74.439ZM41.114 82.339L40.1969 81.9403C39.1523 84.3429 38.0831 86.5853 36.9896 88.6682L37.875 89.133L38.7604 89.5978C39.8789 87.4673 40.969 85.1804 42.0311 82.7377L41.114 82.339ZM37.875 89.133L38.0562 88.1495C36.1473 87.7979 34.3713 87.1967 32.724 86.348L32.266 87.237L31.808 88.126C33.6367 89.068 35.6001 89.7308 37.6938 90.1165L37.875 89.133ZM32.266 87.237L32.7352 86.3539C31.1462 85.5098 29.8844 84.5076 28.9262 83.3578L28.158 83.998L27.3898 84.6382C28.5383 86.0164 30.0151 87.1736 31.7968 88.1201L32.266 87.237ZM28.158 83.998L29.0343 84.4797C33.4255 76.4909 37.1317 68.5765 40.1512 60.7364L39.218 60.377L38.2848 60.0176C35.3003 67.7668 31.6332 75.5997 27.2817 83.5163L28.158 83.998ZM39.218 60.377L40.152 60.7343C43.172 52.8398 46.1848 43.0311 49.1926 31.3167L48.224 31.068L47.2554 30.8193C44.2592 42.4889 41.268 52.2195 38.284 60.0197L39.218 60.377ZM48.224 31.068L48.1984 32.0677C50.2261 32.1197 52.0344 32.2494 53.626 32.4548L53.754 31.463L53.882 30.4712C52.2083 30.2553 50.3299 30.1217 48.2496 30.0683L48.224 31.068ZM53.754 31.463L53.6577 32.4584C55.2432 32.6118 56.9668 32.8941 58.8301 33.3082L59.047 32.332L59.2639 31.3558C57.3352 30.9272 55.5301 30.6302 53.8503 30.4676L53.754 31.463ZM59.047 32.332L58.1794 32.8293C62.8827 41.0338 66.8055 49.976 69.9458 59.6585L70.897 59.35L71.8482 59.0415C68.6685 49.2374 64.6913 40.1675 59.9146 31.8347L59.047 32.332ZM70.897 59.35L69.9478 59.6647C73.14 69.2936 75.6828 80.1668 77.5719 92.289L78.56 92.135L79.5481 91.981C77.6452 79.7712 75.0793 68.7878 71.8462 59.0353L70.897 59.35ZM53.438 44.814L52.4679 44.5715C51.523 48.3508 50.5259 52.0242 49.4766 55.5918L50.436 55.874L51.3954 56.1562C52.4527 52.5611 53.457 48.8612 54.4081 45.0565L53.438 44.814ZM50.436 55.874L49.4729 55.6049C48.4767 59.1702 47.4286 62.5762 46.3289 65.8232L47.276 66.144L48.2231 66.4648C49.3354 63.1811 50.394 59.7405 51.3991 56.1431L50.436 55.874ZM47.276 66.144L47.4053 67.1356C49.8106 66.8219 52.1085 66.5869 54.2992 66.4305L54.228 65.433L54.1568 64.4355C51.9235 64.5951 49.5867 64.8341 47.1467 65.1524L47.276 66.144ZM54.228 65.433L54.3228 66.4285C56.5128 66.2199 58.6489 66.0897 60.731 66.0377L60.706 65.038L60.681 64.0383C58.5498 64.0916 56.3672 64.2247 54.1332 64.4375L54.228 65.433ZM60.706 65.038L61.6675 64.7633C60.6085 61.0567 59.4694 57.5068 58.2501 54.1138L57.309 54.452L56.3679 54.7902C57.5712 58.1385 58.6968 61.646 59.7445 65.3127L60.706 65.038ZM57.309 54.452L58.2501 54.1138C57.0307 50.7208 55.731 47.4844 54.3505 44.4049L53.438 44.814L52.5255 45.2231C53.8837 48.2529 55.1646 51.4419 56.3679 54.7902L57.309 54.452Z" fill="#FE6596" mask="url(#path-6-outside-1_3_29)"/>
</svg>
