<svg width="68" height="68" viewBox="0 0 68 68" fill="none" xmlns="http://www.w3.org/2000/svg">
<mask id="path-1-outside-1_14_158" maskUnits="userSpaceOnUse" x="23.0402" y="23.0402" width="19.9257" height="20.7335" fill="black">
<rect fill="white" x="23.0402" y="23.0402" width="19.9257" height="20.7335"/>
<path d="M36.9955 27.7324C37.472 27.99 37.8975 28.309 38.2721 28.6892C38.6468 29.0695 38.9392 29.4704 39.1494 29.8919C39.3737 30.3093 39.5094 30.7261 39.5567 31.1425C39.6088 31.5496 39.5507 31.909 39.3822 32.2205C39.2732 32.4221 39.1254 32.5968 38.9389 32.7446C38.7573 32.8833 38.5582 32.9887 38.3415 33.061C38.1297 33.1241 37.912 33.1544 37.6884 33.1519C37.4697 33.1402 37.2641 33.0823 37.0717 32.9783C36.861 32.8643 36.7107 32.6824 36.6208 32.4325C36.5359 32.1734 36.4447 31.8931 36.3472 31.5917C36.2638 31.2861 36.1405 30.9885 35.9774 30.6989C35.8283 30.4052 35.5843 30.1666 35.2453 29.9833C34.9154 29.8049 34.5755 29.7217 34.2256 29.7338C33.8756 29.7459 33.5322 29.8444 33.1954 30.0293C32.8726 30.21 32.5568 30.4656 32.2479 30.7959C31.9531 31.122 31.6843 31.5095 31.4415 31.9585C30.7478 33.2413 30.4604 34.353 30.5793 35.2936C30.7032 36.2251 31.2187 36.9362 32.1258 37.4267C32.5565 37.6596 32.9601 37.7891 33.3368 37.8152C33.7227 37.8462 34.0747 37.8412 34.393 37.8002C34.7204 37.7641 35.0175 37.7293 35.2842 37.6959C35.551 37.6626 35.7851 37.7004 35.9867 37.8094C36.0967 37.8689 36.1868 37.965 36.2571 38.0977C36.3324 38.2213 36.3815 38.3604 36.4045 38.515C36.4416 38.6653 36.453 38.8195 36.4386 38.9775C36.4334 39.1404 36.3961 39.2861 36.3267 39.4143C36.1632 39.7167 35.8435 39.9465 35.3677 40.1036C34.9011 40.2658 34.3623 40.3533 33.7513 40.3663C33.1452 40.3702 32.509 40.2985 31.8426 40.1512C31.1853 40.0089 30.5864 39.7916 30.0458 39.4993C29.3219 39.1078 28.7344 38.6065 28.2833 37.9955C27.8272 37.3935 27.5131 36.7263 27.3408 35.9936C27.1736 35.2518 27.1545 34.4659 27.2837 33.6357C27.4221 32.8105 27.7192 31.9765 28.1751 31.1335C28.6706 30.2172 29.2593 29.4461 29.9413 28.8202C30.6324 28.1992 31.3673 27.738 32.146 27.4368C32.9389 27.1313 33.7494 27.0012 34.5776 27.0465C35.4107 27.0825 36.2167 27.3112 36.9955 27.7324Z"/>
</mask>
<path d="M36.9955 27.7324C37.472 27.99 37.8975 28.309 38.2721 28.6892C38.6468 29.0695 38.9392 29.4704 39.1494 29.8919C39.3737 30.3093 39.5094 30.7261 39.5567 31.1425C39.6088 31.5496 39.5507 31.909 39.3822 32.2205C39.2732 32.4221 39.1254 32.5968 38.9389 32.7446C38.7573 32.8833 38.5582 32.9887 38.3415 33.061C38.1297 33.1241 37.912 33.1544 37.6884 33.1519C37.4697 33.1402 37.2641 33.0823 37.0717 32.9783C36.861 32.8643 36.7107 32.6824 36.6208 32.4325C36.5359 32.1734 36.4447 31.8931 36.3472 31.5917C36.2638 31.2861 36.1405 30.9885 35.9774 30.6989C35.8283 30.4052 35.5843 30.1666 35.2453 29.9833C34.9154 29.8049 34.5755 29.7217 34.2256 29.7338C33.8756 29.7459 33.5322 29.8444 33.1954 30.0293C32.8726 30.21 32.5568 30.4656 32.2479 30.7959C31.9531 31.122 31.6843 31.5095 31.4415 31.9585C30.7478 33.2413 30.4604 34.353 30.5793 35.2936C30.7032 36.2251 31.2187 36.9362 32.1258 37.4267C32.5565 37.6596 32.9601 37.7891 33.3368 37.8152C33.7227 37.8462 34.0747 37.8412 34.393 37.8002C34.7204 37.7641 35.0175 37.7293 35.2842 37.6959C35.551 37.6626 35.7851 37.7004 35.9867 37.8094C36.0967 37.8689 36.1868 37.965 36.2571 38.0977C36.3324 38.2213 36.3815 38.3604 36.4045 38.515C36.4416 38.6653 36.453 38.8195 36.4386 38.9775C36.4334 39.1404 36.3961 39.2861 36.3267 39.4143C36.1632 39.7167 35.8435 39.9465 35.3677 40.1036C34.9011 40.2658 34.3623 40.3533 33.7513 40.3663C33.1452 40.3702 32.509 40.2985 31.8426 40.1512C31.1853 40.0089 30.5864 39.7916 30.0458 39.4993C29.3219 39.1078 28.7344 38.6065 28.2833 37.9955C27.8272 37.3935 27.5131 36.7263 27.3408 35.9936C27.1736 35.2518 27.1545 34.4659 27.2837 33.6357C27.4221 32.8105 27.7192 31.9765 28.1751 31.1335C28.6706 30.2172 29.2593 29.4461 29.9413 28.8202C30.6324 28.1992 31.3673 27.738 32.146 27.4368C32.9389 27.1313 33.7494 27.0012 34.5776 27.0465C35.4107 27.0825 36.2167 27.3112 36.9955 27.7324Z" fill="#FE6596"/>
<path d="M39.1494 29.8919L38.2544 30.3381L38.2613 30.3518L38.2685 30.3653L39.1494 29.8919ZM39.5567 31.1425L38.563 31.2552L38.5638 31.2624L38.5648 31.2696L39.5567 31.1425ZM38.9389 32.7446L39.5458 33.5394L39.553 33.5339L39.56 33.5283L38.9389 32.7446ZM38.3415 33.061L38.6271 34.0194L38.6425 34.0148L38.6578 34.0097L38.3415 33.061ZM37.6884 33.1519L37.635 34.1505L37.656 34.1516L37.6771 34.1518L37.6884 33.1519ZM36.6208 32.4325L35.6705 32.7439L35.675 32.7574L35.6798 32.7708L36.6208 32.4325ZM36.3472 31.5917L35.3825 31.855L35.3886 31.8774L35.3958 31.8995L36.3472 31.5917ZM35.9774 30.6989L35.0856 31.1514L35.0954 31.1708L35.1062 31.1898L35.9774 30.6989ZM33.1954 30.0293L32.7141 29.1527L32.7068 29.1568L33.1954 30.0293ZM32.2479 30.7959L31.5175 30.1129L31.5117 30.119L31.506 30.1253L32.2479 30.7959ZM30.5793 35.2936L29.5872 35.4191L29.5881 35.4255L30.5793 35.2936ZM33.3368 37.8152L33.417 36.8183L33.4059 36.8176L33.3368 37.8152ZM34.393 37.8002L34.2834 36.8062L34.2742 36.8072L34.2651 36.8084L34.393 37.8002ZM36.2571 38.0977L35.3734 38.5657L35.3874 38.5922L35.403 38.6178L36.2571 38.0977ZM36.4045 38.515L35.4154 38.6622L35.4224 38.7088L35.4337 38.7547L36.4045 38.515ZM36.4386 38.9775L35.4427 38.8867L35.4401 38.916L35.4391 38.9454L36.4386 38.9775ZM35.3677 40.1036L35.054 39.1541L35.0468 39.1565L35.0395 39.159L35.3677 40.1036ZM33.7513 40.3663L33.7576 41.3663L33.7651 41.3663L33.7725 41.3661L33.7513 40.3663ZM31.8426 40.1512L32.0583 39.1748L32.0541 39.1739L31.8426 40.1512ZM28.2833 37.9955L29.0879 37.4015L29.0803 37.3915L28.2833 37.9955ZM27.3408 35.9936L26.3653 36.2136L26.3674 36.2225L27.3408 35.9936ZM27.2837 33.6357L26.2974 33.4704L26.2956 33.4819L27.2837 33.6357ZM29.9413 28.8202L29.2729 28.0763L29.2651 28.0835L29.9413 28.8202ZM32.146 27.4368L31.7865 26.5036L31.7852 26.5041L32.146 27.4368ZM34.5776 27.0465L34.523 28.045L34.5343 28.0455L34.5776 27.0465ZM36.9955 27.7324L36.5198 28.612C36.9103 28.8231 37.2558 29.0825 37.5598 29.3911L38.2721 28.6892L38.9845 27.9874C38.5392 27.5354 38.0336 27.1569 37.4712 26.8527L36.9955 27.7324ZM38.2721 28.6892L37.5598 29.3911C37.8702 29.7061 38.0971 30.0225 38.2544 30.3381L39.1494 29.8919L40.0443 29.4457C39.7813 28.9182 39.4234 28.4328 38.9845 27.9874L38.2721 28.6892ZM39.1494 29.8919L38.2685 30.3653C38.4405 30.6853 38.5319 30.9806 38.563 31.2552L39.5567 31.1425L40.5503 31.0298C40.487 30.4717 40.3069 29.9333 40.0302 29.4185L39.1494 29.8919ZM39.5567 31.1425L38.5648 31.2696C38.5947 31.5032 38.5562 31.6457 38.5026 31.7448L39.3822 32.2205L40.2618 32.6962C40.5451 32.1723 40.623 31.5961 40.5485 31.0154L39.5567 31.1425ZM39.3822 32.2205L38.5026 31.7448C38.4605 31.8227 38.4024 31.8939 38.3178 31.9609L38.9389 32.7446L39.56 33.5283C39.8485 33.2997 40.0859 33.0215 40.2618 32.6962L39.3822 32.2205ZM38.9389 32.7446L38.332 31.9499C38.2381 32.0215 38.1372 32.075 38.0251 32.1124L38.3415 33.061L38.6578 34.0097C38.9792 33.9025 39.2766 33.745 39.5458 33.5394L38.9389 32.7446ZM38.3415 33.061L38.0559 32.1027C37.9416 32.1367 37.824 32.1534 37.6996 32.152L37.6884 33.1519L37.6771 34.1518C38 34.1555 38.3178 34.1115 38.6271 34.0194L38.3415 33.061ZM37.6884 33.1519L37.7417 32.1533C37.6707 32.1495 37.6094 32.1322 37.5474 32.0987L37.0717 32.9783L36.596 33.8579C36.9188 34.0325 37.2686 34.1309 37.635 34.1505L37.6884 33.1519ZM37.0717 32.9783L37.5474 32.0987C37.5492 32.0997 37.5535 32.1022 37.5589 32.1066C37.5643 32.1111 37.5688 32.1157 37.5719 32.1195C37.575 32.1232 37.5753 32.1243 37.5735 32.1212C37.5717 32.1179 37.5673 32.1094 37.5619 32.0941L36.6208 32.4325L35.6798 32.7708C35.8432 33.2252 36.1448 33.6139 36.596 33.8579L37.0717 32.9783ZM36.6208 32.4325L37.5711 32.1211C37.4867 31.8634 37.3958 31.5843 37.2986 31.2839L36.3472 31.5917L35.3958 31.8995C35.4936 32.202 35.5852 32.4834 35.6705 32.7439L36.6208 32.4325ZM36.3472 31.5917L37.3119 31.3285C37.2058 30.9396 37.0502 30.5658 36.8486 30.208L35.9774 30.6989L35.1062 31.1898C35.2309 31.4112 35.3218 31.6326 35.3825 31.855L36.3472 31.5917ZM35.9774 30.6989L36.8692 30.2465C36.6132 29.742 36.2077 29.3669 35.721 29.1037L35.2453 29.9833L34.7696 30.8629C34.9609 30.9664 35.0434 31.0683 35.0856 31.1514L35.9774 30.6989ZM35.2453 29.9833L35.721 29.1037C35.2462 28.8469 34.7314 28.7158 34.1911 28.7344L34.2256 29.7338L34.26 30.7332C34.4197 30.7277 34.5846 30.7629 34.7696 30.8629L35.2453 29.9833ZM34.2256 29.7338L34.1911 28.7344C33.6699 28.7524 33.1746 28.8999 32.7141 29.1527L33.1954 30.0293L33.6766 30.9059C33.8898 30.7888 34.0814 30.7394 34.26 30.7332L34.2256 29.7338ZM33.1954 30.0293L32.7068 29.1568C32.2767 29.3976 31.8817 29.7234 31.5175 30.1129L32.2479 30.7959L32.9783 31.4789C33.2319 31.2077 33.4685 31.0225 33.6839 30.9018L33.1954 30.0293ZM32.2479 30.7959L31.506 30.1253C31.1499 30.5192 30.8367 30.9746 30.5619 31.4828L31.4415 31.9585L32.3211 32.4342C32.5319 32.0445 32.7562 31.7248 32.9897 31.4665L32.2479 30.7959ZM31.4415 31.9585L30.5619 31.4828C29.8189 32.8568 29.4314 34.1868 29.5872 35.4191L30.5793 35.2936L31.5714 35.1682C31.4894 34.5191 31.6767 33.6258 32.3211 32.4342L31.4415 31.9585ZM30.5793 35.2936L29.5881 35.4255C29.7587 36.7087 30.4932 37.6807 31.6501 38.3063L32.1258 37.4267L32.6015 36.5471C31.9442 36.1916 31.6477 35.7416 31.5706 35.1618L30.5793 35.2936ZM32.1258 37.4267L31.6501 38.3063C32.1706 38.5878 32.713 38.7744 33.2678 38.8128L33.3368 37.8152L33.4059 36.8176C33.2072 36.8038 32.9423 36.7314 32.6015 36.5471L32.1258 37.4267ZM33.3368 37.8152L33.2566 38.812C33.6982 38.8475 34.1212 38.8435 34.5209 38.7919L34.393 37.8002L34.2651 36.8084C34.0282 36.8389 33.7472 36.845 33.417 36.8184L33.3368 37.8152ZM34.393 37.8002L34.5026 38.7941C34.8338 38.7576 35.1359 38.7223 35.4084 38.6882L35.2842 37.6959L35.1601 36.7037C34.8991 36.7363 34.607 36.7705 34.2834 36.8062L34.393 37.8002ZM35.2842 37.6959L35.4084 38.6882C35.4598 38.6818 35.4888 38.6846 35.5005 38.6865C35.5064 38.6874 35.5094 38.6884 35.5101 38.6886C35.5108 38.6889 35.5109 38.6889 35.511 38.689L35.9867 37.8094L36.4624 36.9298C36.0473 36.7053 35.5968 36.649 35.1601 36.7037L35.2842 37.6959ZM35.9867 37.8094L35.511 38.689C35.4664 38.6649 35.4318 38.6362 35.4073 38.6101C35.3838 38.585 35.3741 38.5671 35.3734 38.5657L36.2571 38.0977L37.1408 37.6297C36.997 37.3582 36.7785 37.1007 36.4624 36.9298L35.9867 37.8094ZM36.2571 38.0977L35.403 38.6178C35.4034 38.6186 35.4105 38.629 35.4154 38.6622L36.4045 38.515L37.3936 38.3677C37.3525 38.0918 37.2613 37.8241 37.1112 37.5776L36.2571 38.0977ZM36.4045 38.515L35.4337 38.7547C35.4435 38.7943 35.4473 38.8367 35.4427 38.8867L36.4386 38.9775L37.4345 39.0682C37.4587 38.8022 37.4398 38.5362 37.3754 38.2752L36.4045 38.515ZM36.4386 38.9775L35.4391 38.9454C35.4386 38.96 35.4371 38.9643 35.438 38.9608C35.4384 38.9591 35.4393 38.956 35.4409 38.952C35.4425 38.9479 35.4445 38.9433 35.4471 38.9386L36.3267 39.4143L37.2063 39.89C37.3579 39.6098 37.4285 39.3092 37.4381 39.0096L36.4386 38.9775ZM36.3267 39.4143L35.4471 38.9386C35.447 38.9387 35.4355 38.962 35.3806 39.0014C35.3222 39.0434 35.2205 39.0991 35.054 39.1541L35.3677 40.1036L35.6814 41.0532C36.2895 40.8523 36.8758 40.5011 37.2063 39.89L36.3267 39.4143ZM35.3677 40.1036L35.0395 39.159C34.6919 39.2798 34.2602 39.3553 33.73 39.3666L33.7513 40.3663L33.7725 41.3661C34.4643 41.3514 35.1103 41.2517 35.6959 41.0483L35.3677 40.1036ZM33.7513 40.3663L33.7449 39.3664C33.2222 39.3697 32.6608 39.3079 32.0583 39.1748L31.8426 40.1512L31.6268 41.1277C32.3572 41.2891 33.0682 41.3707 33.7576 41.3663L33.7513 40.3663ZM31.8426 40.1512L32.0541 39.1739C31.4805 39.0497 30.9716 38.8631 30.5214 38.6197L30.0458 39.4993L29.5701 40.3789C30.2011 40.7201 30.8901 40.9682 31.631 41.1286L31.8426 40.1512ZM30.0458 39.4993L30.5214 38.6197C29.9159 38.2922 29.4446 37.8848 29.0878 37.4015L28.2833 37.9955L27.4788 38.5894C28.0243 39.3283 28.7279 39.9234 29.5701 40.3789L30.0458 39.4993ZM28.2833 37.9955L29.0803 37.3915C28.7083 36.9006 28.4545 36.361 28.3143 35.7648L27.3408 35.9936L26.3674 36.2225C26.5717 37.0916 26.9461 37.8865 27.4863 38.5994L28.2833 37.9955ZM27.3408 35.9936L28.3163 35.7737C28.1795 35.1668 28.1599 34.5084 28.2718 33.7895L27.2837 33.6357L26.2956 33.4819C26.1491 34.4233 26.1676 35.3369 26.3653 36.2136L27.3408 35.9936ZM27.2837 33.6357L28.27 33.8011C28.3877 33.099 28.6437 32.3691 29.0547 31.6092L28.1751 31.1335L27.2955 30.6578C26.7947 31.5838 26.4565 32.5221 26.2975 33.4704L27.2837 33.6357ZM28.1751 31.1335L29.0547 31.6092C29.5039 30.7785 30.0269 30.099 30.6175 29.5569L29.9413 28.8202L29.2651 28.0835C28.4917 28.7933 27.8373 29.656 27.2955 30.6578L28.1751 31.1335ZM29.9413 28.8202L30.6097 29.564C31.2207 29.015 31.8533 28.6223 32.5068 28.3694L32.146 27.4368L31.7852 26.5041C30.8813 26.8538 30.0441 27.3834 29.2729 28.0763L29.9413 28.8202ZM32.146 27.4368L32.5055 28.3699C33.1698 28.114 33.8394 28.0076 34.523 28.045L34.5776 27.0465L34.6321 26.0479C33.6593 25.9948 32.7079 26.1487 31.7865 26.5036L32.146 27.4368ZM34.5776 27.0465L34.5343 28.0455C35.2068 28.0746 35.8658 28.2583 36.5198 28.612L36.9955 27.7324L37.4712 26.8527C36.5676 26.3641 35.6146 26.0904 34.6208 26.0474L34.5776 27.0465Z" fill="#FE6596" mask="url(#path-1-outside-1_14_158)"/>
<rect x="24.5582" y="2.59556" width="46.1698" height="46.1698" transform="rotate(28.4045 24.5582 2.59556)" stroke="#FE6596"/>
<rect x="23.9866" y="0.677652" width="2.30189" height="2.30189" transform="rotate(28.4045 23.9866 0.677652)" fill="#FE6596" stroke="#FE6596"/>
<rect x="65.0628" y="22.8916" width="2.30189" height="2.30189" transform="rotate(28.4045 65.0628 22.8916)" fill="#FE6596" stroke="#FE6596"/>
<rect x="42.6583" y="63.3285" width="2.77358" height="2.77358" transform="rotate(28.4045 42.6583 63.3285)" fill="#FE6596" stroke="#FE6596"/>
<rect x="1.77264" y="41.7538" width="2.30189" height="2.30189" transform="rotate(28.4045 1.77264 41.7538)" fill="#FE6596" stroke="#FE6596"/>
</svg>
