<svg width="61" height="61" viewBox="0 0 61 61" fill="none" xmlns="http://www.w3.org/2000/svg">
<mask id="path-1-outside-1_14_166" maskUnits="userSpaceOnUse" x="18.3842" y="15.4438" width="22.9291" height="26.6047" fill="black">
<rect fill="white" x="18.3842" y="15.4438" width="22.9291" height="26.6047"/>
<path d="M24.975 37.3298C24.7607 36.4493 24.5026 35.499 24.2007 34.479C23.8988 33.4589 23.5792 32.4325 23.242 31.3996C22.9125 30.3541 22.579 29.3364 22.2416 28.3465C21.9142 27.3541 21.6078 26.4477 21.3224 25.6274C21.047 24.8045 20.8102 24.0957 20.6117 23.5007C20.4133 22.9058 20.2845 22.4868 20.2254 22.2439C20.1269 21.8391 20.2035 21.4934 20.4554 21.207C20.7073 20.9205 21.1217 20.7071 21.6986 20.5667C21.9517 20.5051 22.1704 20.4786 22.3547 20.4874C22.5492 20.4936 22.7169 20.5439 22.8578 20.6383C22.9987 20.7326 23.1242 20.8736 23.2342 21.0613C23.3518 21.2363 23.4616 21.4669 23.5634 21.753C23.7024 22.148 23.8438 22.5746 23.9875 23.0328C24.1287 23.4808 24.2859 23.9947 24.4592 24.5743C24.6426 25.1515 24.8444 25.8046 25.0648 26.5336C25.2851 27.2626 25.5426 28.1004 25.8374 29.0471C25.8719 29.1888 25.9218 29.2839 25.9872 29.3323C26.0526 29.3807 26.1157 29.3975 26.1764 29.3827C26.2877 29.3556 26.3668 29.2399 26.4135 29.0356C26.8476 27.0752 27.4232 25.5199 28.1402 24.3698C28.8549 23.2095 29.6575 22.521 30.5481 22.3042C31.0744 22.1761 31.5276 22.2319 31.9076 22.4718C32.2876 22.7116 32.5417 23.0947 32.6698 23.621C32.8077 24.1878 32.8093 24.7449 32.6746 25.2923C32.5475 25.8271 32.3484 26.3526 32.0774 26.8689C31.8165 27.3827 31.514 27.8798 31.17 28.3602C30.8361 28.8381 30.525 29.2998 30.2367 29.7452C29.9586 30.1881 29.7349 30.6125 29.5656 31.0182C29.404 31.4113 29.3651 31.7799 29.4489 32.124C29.5252 32.4378 29.7862 32.7173 30.2319 32.9626C30.6852 33.1953 31.3005 33.3886 32.0777 33.5425C32.8524 33.6863 33.7828 33.7868 34.8688 33.8441C35.9524 33.8912 37.1701 33.895 38.522 33.8554C38.7367 33.8567 38.8981 33.9032 39.0062 33.9948C39.1244 34.084 39.2057 34.2196 39.25 34.4018C39.3042 34.6245 39.309 34.8645 39.2645 35.1219C39.2224 35.3895 39.1489 35.6379 39.0439 35.8671C38.9413 36.1065 38.8087 36.3103 38.6459 36.4786C38.4958 36.6545 38.3347 36.7634 38.1626 36.8053C37.8185 36.8891 37.3975 36.9433 36.8997 36.968C36.4018 36.9927 35.8548 36.9918 35.2587 36.9654C34.6752 36.9466 34.0641 36.9024 33.4253 36.8328C32.789 36.7732 32.163 36.6898 31.5472 36.5824C30.944 36.4826 30.3636 36.3666 29.8061 36.2343C29.2562 36.0894 28.7734 35.9335 28.3576 35.7667C28.2314 35.7331 28.128 35.7047 28.0473 35.6814C27.9768 35.6557 27.9162 35.649 27.8656 35.6614C27.8048 35.6761 27.7756 35.7101 27.7778 35.7631C27.7775 35.8061 27.7946 35.8984 27.8291 36.0401C27.9153 36.3943 27.9552 36.6902 27.9486 36.9276C27.9522 37.1626 27.903 37.3568 27.801 37.5103C27.7015 37.6739 27.5415 37.8094 27.321 37.9166C27.1005 38.0239 26.8182 38.1194 26.4741 38.2032C26.0187 38.3141 25.6789 38.3056 25.4549 38.1779C25.2409 38.0477 25.081 37.7651 24.975 37.3298Z"/>
</mask>
<path d="M24.975 37.3298C24.7607 36.4493 24.5026 35.499 24.2007 34.479C23.8988 33.4589 23.5792 32.4325 23.242 31.3996C22.9125 30.3541 22.579 29.3364 22.2416 28.3465C21.9142 27.3541 21.6078 26.4477 21.3224 25.6274C21.047 24.8045 20.8102 24.0957 20.6117 23.5007C20.4133 22.9058 20.2845 22.4868 20.2254 22.2439C20.1269 21.8391 20.2035 21.4934 20.4554 21.207C20.7073 20.9205 21.1217 20.7071 21.6986 20.5667C21.9517 20.5051 22.1704 20.4786 22.3547 20.4874C22.5492 20.4936 22.7169 20.5439 22.8578 20.6383C22.9987 20.7326 23.1242 20.8736 23.2342 21.0613C23.3518 21.2363 23.4616 21.4669 23.5634 21.753C23.7024 22.148 23.8438 22.5746 23.9875 23.0328C24.1287 23.4808 24.2859 23.9947 24.4592 24.5743C24.6426 25.1515 24.8444 25.8046 25.0648 26.5336C25.2851 27.2626 25.5426 28.1004 25.8374 29.0471C25.8719 29.1888 25.9218 29.2839 25.9872 29.3323C26.0526 29.3807 26.1157 29.3975 26.1764 29.3827C26.2877 29.3556 26.3668 29.2399 26.4135 29.0356C26.8476 27.0752 27.4232 25.5199 28.1402 24.3698C28.8549 23.2095 29.6575 22.521 30.5481 22.3042C31.0744 22.1761 31.5276 22.2319 31.9076 22.4718C32.2876 22.7116 32.5417 23.0947 32.6698 23.621C32.8077 24.1878 32.8093 24.7449 32.6746 25.2923C32.5475 25.8271 32.3484 26.3526 32.0774 26.8689C31.8165 27.3827 31.514 27.8798 31.17 28.3602C30.8361 28.8381 30.525 29.2998 30.2367 29.7452C29.9586 30.1881 29.7349 30.6125 29.5656 31.0182C29.404 31.4113 29.3651 31.7799 29.4489 32.124C29.5252 32.4378 29.7862 32.7173 30.2319 32.9626C30.6852 33.1953 31.3005 33.3886 32.0777 33.5425C32.8524 33.6863 33.7828 33.7868 34.8688 33.8441C35.9524 33.8912 37.1701 33.895 38.522 33.8554C38.7367 33.8567 38.8981 33.9032 39.0062 33.9948C39.1244 34.084 39.2057 34.2196 39.25 34.4018C39.3042 34.6245 39.309 34.8645 39.2645 35.1219C39.2224 35.3895 39.1489 35.6379 39.0439 35.8671C38.9413 36.1065 38.8087 36.3103 38.6459 36.4786C38.4958 36.6545 38.3347 36.7634 38.1626 36.8053C37.8185 36.8891 37.3975 36.9433 36.8997 36.968C36.4018 36.9927 35.8548 36.9918 35.2587 36.9654C34.6752 36.9466 34.0641 36.9024 33.4253 36.8328C32.789 36.7732 32.163 36.6898 31.5472 36.5824C30.944 36.4826 30.3636 36.3666 29.8061 36.2343C29.2562 36.0894 28.7734 35.9335 28.3576 35.7667C28.2314 35.7331 28.128 35.7047 28.0473 35.6814C27.9768 35.6557 27.9162 35.649 27.8656 35.6614C27.8048 35.6761 27.7756 35.7101 27.7778 35.7631C27.7775 35.8061 27.7946 35.8984 27.8291 36.0401C27.9153 36.3943 27.9552 36.6902 27.9486 36.9276C27.9522 37.1626 27.903 37.3568 27.801 37.5103C27.7015 37.6739 27.5415 37.8094 27.321 37.9166C27.1005 38.0239 26.8182 38.1194 26.4741 38.2032C26.0187 38.3141 25.6789 38.3056 25.4549 38.1779C25.2409 38.0477 25.081 37.7651 24.975 37.3298Z" fill="#FE6596"/>
<path d="M23.242 31.3996L22.2882 31.7002L22.2914 31.7099L23.242 31.3996ZM22.2416 28.3465L21.2918 28.6597L21.295 28.6691L22.2416 28.3465ZM21.3224 25.6274L20.374 25.9447L20.3779 25.956L21.3224 25.6274ZM22.3547 20.4874L22.3075 21.4862L22.315 21.4866L22.3226 21.4868L22.3547 20.4874ZM23.2342 21.0613L22.3715 21.567L22.387 21.5935L22.4042 21.6191L23.2342 21.0613ZM23.5634 21.753L24.5067 21.421L24.5055 21.4178L23.5634 21.753ZM23.9875 23.0328L23.0333 23.332L23.0337 23.3334L23.9875 23.0328ZM24.4592 24.5743L23.5011 24.8607L23.5035 24.8689L23.5061 24.8771L24.4592 24.5743ZM25.8374 29.0471L26.809 28.8106L26.8016 28.78L26.7922 28.7498L25.8374 29.0471ZM26.4135 29.0356L27.3884 29.2585L27.3899 29.2517L26.4135 29.0356ZM28.1402 24.3698L28.9888 24.8988L28.9917 24.8942L28.1402 24.3698ZM32.6746 25.2923L31.7035 25.0532L31.7017 25.061L32.6746 25.2923ZM32.0774 26.8689L31.1919 26.404L31.1858 26.4161L32.0774 26.8689ZM31.17 28.3602L30.3569 27.7779L30.3502 27.7874L31.17 28.3602ZM30.2367 29.7452L29.3971 29.2018L29.3898 29.2134L30.2367 29.7452ZM29.5656 31.0182L28.6427 30.6331L28.6407 30.638L29.5656 31.0182ZM30.2319 32.9626L29.7497 33.8387L29.7624 33.8456L29.7752 33.8522L30.2319 32.9626ZM32.0777 33.5425L31.8834 34.5236L31.8952 34.5257L32.0777 33.5425ZM34.8688 33.8441L34.8161 34.8427L34.8253 34.8431L34.8688 33.8441ZM38.522 33.8554L38.5282 32.8554L38.5105 32.8553L38.4927 32.8558L38.522 33.8554ZM39.0062 33.9948L38.3595 34.7576L38.3813 34.776L38.404 34.7931L39.0062 33.9948ZM39.2645 35.1219L38.2791 34.9514L38.2778 34.959L38.2766 34.9666L39.2645 35.1219ZM39.0439 35.8671L38.1347 35.4507L38.1295 35.462L38.1247 35.4734L39.0439 35.8671ZM38.6459 36.4786L37.9271 35.7834L37.9055 35.8057L37.8853 35.8294L38.6459 36.4786ZM35.2587 36.9654L35.303 35.9663L35.2909 35.9659L35.2587 36.9654ZM33.4253 36.8328L33.5337 35.8387L33.5261 35.8378L33.5185 35.8371L33.4253 36.8328ZM31.5472 36.5824L31.719 35.5972L31.7104 35.5958L31.5472 36.5824ZM29.8061 36.2343L29.5513 37.2013L29.5632 37.2044L29.5752 37.2073L29.8061 36.2343ZM28.3576 35.7667L28.7298 34.8386L28.6737 34.8161L28.6152 34.8005L28.3576 35.7667ZM28.0473 35.6814L27.7052 36.6211L27.7375 36.6329L27.7706 36.6424L28.0473 35.6814ZM27.7778 35.7631L28.7777 35.7693L28.7779 35.7455L28.7769 35.7218L27.7778 35.7631ZM27.9486 36.9276L26.949 36.9002L26.9484 36.9215L26.9488 36.9429L27.9486 36.9276ZM27.801 37.5103L26.9682 36.9568L26.9571 36.9734L26.9467 36.9905L27.801 37.5103ZM25.4549 38.1779L24.935 39.0322L24.9473 39.0396L24.9597 39.0467L25.4549 38.1779ZM24.975 37.3298L25.9467 37.0933C25.7279 36.1945 25.4653 35.2283 25.1596 34.1952L24.2007 34.479L23.2418 34.7628C23.5398 35.7698 23.7935 36.7041 24.0034 37.5664L24.975 37.3298ZM24.2007 34.479L25.1596 34.1952C24.855 33.1661 24.5327 32.1308 24.1927 31.0893L23.242 31.3996L22.2914 31.7099C22.6258 32.7342 22.9426 33.7518 23.2418 34.7628L24.2007 34.479ZM23.242 31.3996L24.1958 31.099C23.864 30.0465 23.5281 29.0214 23.1881 28.0238L22.2416 28.3465L21.295 28.6691C21.6299 29.6514 21.961 30.6618 22.2883 31.7002L23.242 31.3996ZM22.2416 28.3465L23.1912 28.0332C22.8625 27.0367 22.5544 26.1251 22.2668 25.2987L21.3224 25.6274L20.3779 25.956C20.6613 26.7703 20.9659 27.6715 21.2919 28.6597L22.2416 28.3465ZM21.3224 25.6274L22.2707 25.31C21.9954 24.4874 21.7586 23.7789 21.5604 23.1843L20.6117 23.5007L19.6631 23.8171C19.8617 24.4125 20.0987 25.1217 20.3741 25.9447L21.3224 25.6274ZM20.6117 23.5007L21.5604 23.1843C21.3615 22.5882 21.2452 22.2052 21.197 22.0074L20.2254 22.2439L19.2538 22.4804C19.3239 22.7685 19.4651 23.2234 19.6631 23.8171L20.6117 23.5007ZM20.2254 22.2439L21.197 22.0074C21.1871 21.9668 21.1844 21.939 21.1839 21.9223C21.1834 21.906 21.185 21.8987 21.1853 21.8976C21.1854 21.8968 21.1855 21.8963 21.1866 21.8941C21.1879 21.8916 21.193 21.8826 21.2064 21.8673L20.4554 21.207L19.7045 20.5466C19.2148 21.1035 19.0864 21.7928 19.2538 22.4804L20.2254 22.2439ZM20.4554 21.207L21.2064 21.8673C21.2665 21.799 21.4545 21.6553 21.9351 21.5383L21.6986 20.5667L21.4621 19.595C20.789 19.7589 20.1482 20.042 19.7045 20.5466L20.4554 21.207ZM21.6986 20.5667L21.9351 21.5383C22.1302 21.4908 22.2487 21.4835 22.3075 21.4862L22.3547 20.4874L22.402 19.4885C22.092 19.4738 21.7731 19.5193 21.4621 19.595L21.6986 20.5667ZM22.3547 20.4874L22.3226 21.4868C22.3428 21.4875 22.3467 21.4899 22.339 21.4876C22.3353 21.4865 22.3297 21.4845 22.3227 21.4812C22.3157 21.4779 22.3084 21.4739 22.3014 21.4692L22.8578 20.6383L23.4142 19.8074C23.0959 19.5942 22.7403 19.4992 22.3869 19.4879L22.3547 20.4874ZM22.8578 20.6383L22.3014 21.4692C22.2868 21.4594 22.3169 21.4739 22.3715 21.567L23.2342 21.0613L24.0969 20.5555C23.9314 20.2733 23.7107 20.0059 23.4142 19.8074L22.8578 20.6383ZM23.2342 21.0613L22.4042 21.6191C22.4599 21.7019 22.5363 21.8495 22.6212 22.0883L23.5634 21.753L24.5055 21.4178C24.3869 21.0843 24.2438 20.7707 24.0641 20.5034L23.2342 21.0613ZM23.5634 21.753L22.6201 22.085C22.7548 22.4677 22.8925 22.8833 23.0333 23.332L23.9875 23.0328L24.9416 22.7335C24.795 22.2659 24.65 21.8283 24.5066 21.421L23.5634 21.753ZM23.9875 23.0328L23.0337 23.3334C23.1731 23.7756 23.3289 24.2846 23.5011 24.8607L24.4592 24.5743L25.4173 24.2879C25.243 23.7048 25.0843 23.1861 24.9412 22.7322L23.9875 23.0328ZM24.4592 24.5743L23.5061 24.8771C23.6878 25.4489 23.8882 26.0973 24.1075 26.8229L25.0648 26.5336L26.022 26.2442C25.8006 25.5118 25.5973 24.8541 25.4122 24.2715L24.4592 24.5743ZM25.0648 26.5336L24.1075 26.8229C24.3289 27.5552 24.5873 28.3958 24.8826 29.3444L25.8374 29.0471L26.7922 28.7498C26.498 27.805 26.2413 26.9699 26.022 26.2442L25.0648 26.5336ZM25.8374 29.0471L24.8658 29.2836C24.9165 29.4919 25.0388 29.8744 25.3922 30.136L25.9872 29.3323L26.5822 28.5286C26.7028 28.6178 26.7624 28.7146 26.786 28.7596C26.8098 28.805 26.8133 28.8283 26.809 28.8106L25.8374 29.0471ZM25.9872 29.3323L25.3922 30.136C25.6189 30.3038 25.9819 30.4593 26.4129 30.3544L26.1764 29.3827L25.9399 28.4111C26.0794 28.3771 26.2185 28.3822 26.3412 28.415C26.4573 28.4459 26.5378 28.4957 26.5822 28.5286L25.9872 29.3323ZM26.1764 29.3827L26.4129 30.3544C27.1243 30.1812 27.3285 29.5201 27.3883 29.2585L26.4135 29.0356L25.4387 28.8126C25.4307 28.8474 25.4364 28.7951 25.4934 28.7116C25.5607 28.6131 25.7048 28.4683 25.9399 28.4111L26.1764 29.3827ZM26.4135 29.0356L27.3899 29.2517C27.8101 27.354 28.3533 25.9182 28.9888 24.8988L28.1402 24.3698L27.2917 23.8407C26.4931 25.1216 25.8851 26.7964 25.4372 28.8194L26.4135 29.0356ZM28.1402 24.3698L28.9917 24.8942C29.6347 23.8501 30.2512 23.4057 30.7847 23.2758L30.5481 22.3042L30.3116 21.3326C29.0638 21.6363 28.075 22.5689 27.2888 23.8454L28.1402 24.3698ZM30.5481 22.3042L30.7847 23.2758C31.1058 23.1976 31.269 23.2512 31.3739 23.3174L31.9076 22.4718L32.4413 21.6261C31.7862 21.2126 31.0431 21.1545 30.3116 21.3326L30.5481 22.3042ZM31.9076 22.4718L31.3739 23.3174C31.4907 23.3912 31.618 23.5283 31.6982 23.8575L32.6698 23.621L33.6414 23.3845C33.4653 22.6611 33.0845 22.0321 32.4413 21.6261L31.9076 22.4718ZM32.6698 23.621L31.6982 23.8575C31.7995 24.2736 31.7985 24.6675 31.7036 25.0532L32.6746 25.2923L33.6456 25.5313C33.8202 24.8222 33.816 24.1019 33.6414 23.3845L32.6698 23.621ZM32.6746 25.2923L31.7017 25.061C31.595 25.5099 31.4265 25.9573 31.192 26.4041L32.0774 26.8689L32.9628 27.3337C33.2703 26.748 33.4999 26.1443 33.6475 25.5235L32.6746 25.2923ZM32.0774 26.8689L31.1858 26.4161C30.9483 26.8837 30.6723 27.3376 30.357 27.7779L31.17 28.3602L31.983 28.9424C32.3557 28.4219 32.6847 27.8816 32.969 27.3216L32.0774 26.8689ZM31.17 28.3602L30.3502 27.7874C30.0102 28.2742 29.6924 28.7457 29.3972 29.2019L30.2367 29.7452L31.0762 30.2885C31.3575 29.854 31.6619 29.4021 31.9897 28.9329L31.17 28.3602ZM30.2367 29.7452L29.3898 29.2134C29.0877 29.6946 28.8368 30.168 28.6427 30.6331L29.5656 31.0182L30.4885 31.4032C30.633 31.0569 30.8295 30.6817 31.0836 30.277L30.2367 29.7452ZM29.5656 31.0182L28.6407 30.638C28.4152 31.1865 28.3341 31.7726 28.4772 32.3605L29.4489 32.124L30.4205 31.8875C30.3961 31.7872 30.3928 31.6361 30.4905 31.3984L29.5656 31.0182ZM29.4489 32.124L28.4772 32.3605C28.6498 33.0697 29.1972 33.5346 29.7497 33.8387L30.2319 32.9626L30.7141 32.0866C30.5553 31.9991 30.4718 31.9283 30.4328 31.8865C30.3978 31.8491 30.4111 31.8492 30.4205 31.8875L29.4489 32.124ZM30.2319 32.9626L29.7752 33.8522C30.3439 34.1442 31.0595 34.3603 31.8834 34.5235L32.0777 33.5425L32.2719 32.5616C31.5414 32.4169 31.0266 32.2465 30.6886 32.073L30.2319 32.9626ZM32.0777 33.5425L31.8952 34.5257C32.7255 34.6798 33.7016 34.7839 34.8162 34.8427L34.8688 33.8441L34.9215 32.8455C33.8639 32.7897 32.9793 32.6928 32.2601 32.5593L32.0777 33.5425ZM34.8688 33.8441L34.8253 34.8431C35.9382 34.8915 37.1808 34.8951 38.5513 34.8549L38.522 33.8554L38.4927 32.8558C37.1594 32.8949 35.9666 32.8909 34.9123 32.845L34.8688 33.8441ZM38.522 33.8554L38.5158 34.8553C38.5557 34.8556 38.5551 34.8602 38.5274 34.8522C38.497 34.8434 38.4316 34.8186 38.3595 34.7576L39.0062 33.9948L39.6529 33.232C39.2936 32.9275 38.8615 32.8575 38.5282 32.8554L38.522 33.8554ZM39.0062 33.9948L38.404 34.7931C38.3535 34.755 38.3189 34.7122 38.2979 34.6773C38.2784 34.6447 38.2757 34.6273 38.2784 34.6383L39.25 34.4018L40.2217 34.1653C40.1376 33.8199 39.9555 33.4583 39.6084 33.1965L39.0062 33.9948ZM39.25 34.4018L38.2784 34.6383C38.2959 34.7103 38.3036 34.8103 38.2791 34.9514L39.2645 35.1219L40.2499 35.2925C40.3145 34.9187 40.3125 34.5387 40.2217 34.1653L39.25 34.4018ZM39.2645 35.1219L38.2766 34.9666C38.2477 35.1505 38.199 35.3104 38.1347 35.4507L39.0439 35.8671L39.953 36.2836C40.0988 35.9654 40.1971 35.6284 40.2524 35.2773L39.2645 35.1219ZM39.0439 35.8671L38.1247 35.4734C38.0646 35.6134 37.9963 35.7119 37.9271 35.7834L38.6459 36.4786L39.3648 37.1738C39.6211 36.9088 39.818 36.5996 39.9631 36.2609L39.0439 35.8671ZM38.6459 36.4786L37.8853 35.8294C37.858 35.8614 37.8459 35.8682 37.8525 35.8637C37.8561 35.8613 37.8643 35.8562 37.8773 35.8503C37.8904 35.8444 37.9068 35.8384 37.9261 35.8337L38.1626 36.8053L38.3991 37.7769C38.83 37.6721 39.1615 37.4149 39.4066 37.1278L38.6459 36.4786ZM38.1626 36.8053L37.9261 35.8337C37.6624 35.8979 37.3082 35.9465 36.8501 35.9692L36.8997 36.968L36.9492 37.9668C37.4868 37.9401 37.9746 37.8803 38.3991 37.7769L38.1626 36.8053ZM36.8997 36.968L36.8501 35.9692C36.3889 35.9921 35.8737 35.9917 35.303 35.9664L35.2587 36.9654L35.2144 37.9644C35.8359 37.992 36.4147 37.9933 36.9492 37.9668L36.8997 36.968ZM35.2587 36.9654L35.2909 35.9659C34.7353 35.948 34.1497 35.9058 33.5337 35.8387L33.4253 36.8328L33.3169 37.8269C33.9786 37.899 34.6152 37.9452 35.2266 37.9649L35.2587 36.9654ZM33.4253 36.8328L33.5185 35.8371C32.908 35.78 32.3082 35.7 31.719 35.5972L31.5472 36.5824L31.3754 37.5675C32.0178 37.6795 32.6701 37.7665 33.3322 37.8284L33.4253 36.8328ZM31.5472 36.5824L31.7104 35.5958C31.1284 35.4995 30.5707 35.3879 30.037 35.2613L29.8061 36.2343L29.5752 37.2073C30.1566 37.3452 30.7596 37.4657 31.3841 37.569L31.5472 36.5824ZM29.8061 36.2343L30.0609 35.2673C29.5409 35.1303 29.0988 34.9866 28.7298 34.8386L28.3576 35.7667L27.9853 36.6949C28.448 36.8805 28.9716 37.0485 29.5513 37.2013L29.8061 36.2343ZM28.3576 35.7667L28.6152 34.8005C28.4924 34.7677 28.396 34.7412 28.324 34.7205L28.0473 35.6814L27.7706 36.6424C27.8601 36.6682 27.9705 36.6985 28.0999 36.733L28.3576 35.7667ZM28.0473 35.6814L28.3895 34.7418C28.2116 34.677 27.9389 34.6143 27.629 34.6897L27.8656 35.6614L28.1021 36.633C27.8935 36.6838 27.7419 36.6345 27.7052 36.6211L28.0473 35.6814ZM27.8656 35.6614L27.629 34.6897C27.4739 34.7275 27.2359 34.8186 27.0409 35.0447C26.8302 35.2889 26.7691 35.5742 26.7786 35.8045L27.7778 35.7631L28.7769 35.7218C28.7842 35.899 28.7367 36.1408 28.5553 36.3511C28.3895 36.5433 28.1965 36.61 28.1021 36.633L27.8656 35.6614ZM27.7778 35.7631L26.7778 35.7569C26.7766 35.9471 26.8307 36.1666 26.8575 36.2766L27.8291 36.0401L28.8007 35.8036C28.7935 35.7738 28.7876 35.7486 28.783 35.7278C28.7784 35.7067 28.7754 35.6918 28.7736 35.6823C28.7717 35.672 28.7721 35.6725 28.7732 35.681C28.7737 35.6856 28.7748 35.6949 28.7758 35.708C28.7767 35.7205 28.7779 35.7418 28.7777 35.7693L27.7778 35.7631ZM27.8291 36.0401L26.8575 36.2766C26.9326 36.5853 26.9522 36.7855 26.949 36.9002L27.9486 36.9276L28.9483 36.9551C28.9582 36.5948 28.898 36.2034 28.8007 35.8036L27.8291 36.0401ZM27.9486 36.9276L26.9488 36.9429C26.9494 36.9872 26.9447 37.0053 26.9451 37.004C26.9453 37.0031 26.9468 36.9976 26.9506 36.9888C26.9545 36.9798 26.9602 36.9688 26.9682 36.9568L27.801 37.5103L28.6339 38.0639C28.875 37.701 28.9544 37.2939 28.9485 36.9123L27.9486 36.9276ZM27.801 37.5103L26.9467 36.9905C26.9579 36.9722 26.966 36.9665 26.9603 36.9713C26.9535 36.977 26.9311 36.9943 26.8835 37.0174L27.321 37.9166L27.7585 38.8158C28.1036 38.648 28.4316 38.3977 28.6553 38.0301L27.801 37.5103ZM27.321 37.9166L26.8835 37.0174C26.7487 37.083 26.5401 37.1579 26.2376 37.2316L26.4741 38.2032L26.7106 39.1748C27.0964 39.0809 27.4524 38.9648 27.7585 38.8158L27.321 37.9166ZM26.4741 38.2032L26.2376 37.2316C26.0656 37.2734 25.9583 37.2817 25.9025 37.2803C25.8472 37.279 25.8801 37.2693 25.9501 37.3091L25.4549 38.1779L24.9597 39.0467C25.5278 39.3705 26.19 39.3016 26.7106 39.1748L26.4741 38.2032ZM25.4549 38.1779L25.9747 37.3236C26.0505 37.3698 26.065 37.4116 26.0448 37.3758C26.0237 37.3386 25.9854 37.2526 25.9467 37.0933L24.975 37.3298L24.0034 37.5664C24.1268 38.0731 24.3713 38.6892 24.935 39.0322L25.4549 38.1779Z" fill="#FE6596" mask="url(#path-1-outside-1_14_166)"/>
<rect x="2.31373" y="13.2335" width="46.1698" height="46.1698" transform="rotate(-13.6808 2.31373 13.2335)" stroke="#FE6596"/>
<rect x="0.604071" y="12.1932" width="2.30189" height="2.30189" transform="rotate(-13.6808 0.604071 12.1932)" fill="#FE6596" stroke="#FE6596"/>
<rect x="45.9773" y="1.14851" width="2.30189" height="2.30189" transform="rotate(-13.6808 45.9773 1.14851)" fill="#FE6596" stroke="#FE6596"/>
<rect x="56.4521" y="46.1749" width="2.77358" height="2.77358" transform="rotate(-13.6808 56.4521 46.1749)" fill="#FE6596" stroke="#FE6596"/>
<rect x="11.6487" y="57.5664" width="2.30189" height="2.30189" transform="rotate(-13.6808 11.6487 57.5664)" fill="#FE6596" stroke="#FE6596"/>
</svg>
