<svg width="69" height="69" viewBox="0 0 69 69" fill="none" xmlns="http://www.w3.org/2000/svg">
<mask id="path-1-outside-1_14_174" maskUnits="userSpaceOnUse" x="21.7187" y="22.3496" width="22.9804" height="24.8175" fill="black">
<rect fill="white" x="21.7187" y="22.3496" width="22.9804" height="24.8175"/>
<path d="M36.3454 26.6836C36.9502 27.0319 37.5262 27.4719 38.0735 28.0035C38.626 28.5261 39.0957 29.0671 39.4827 29.6266C39.8749 30.1771 40.1541 30.7046 40.3203 31.209C40.4865 31.7135 40.4864 32.1102 40.3201 32.399C40.2369 32.5434 40.0801 32.6695 39.8498 32.7772C39.6246 32.8759 39.375 32.9545 39.1009 33.013C38.8319 33.0625 38.558 33.079 38.2789 33.0625C38.0141 33.0422 37.8005 32.9853 37.638 32.8917C37.4214 32.7669 37.2297 32.5363 37.0629 32.1998C36.9051 31.8685 36.7261 31.5009 36.526 31.0971C36.34 30.6895 36.1095 30.2862 35.8344 29.8873C35.5592 29.4884 35.2005 29.1616 34.7582 28.9069C34.4694 28.7405 34.1886 28.6749 33.9159 28.7102C33.6573 28.7416 33.4553 28.8836 33.3097 29.1364C33.1797 29.362 33.1555 29.6546 33.2369 30.0141C33.3236 30.3645 33.4727 30.763 33.6844 31.2094C33.9051 31.6611 34.1631 32.1523 34.4584 32.6831C34.7538 33.2138 35.0477 33.7678 35.3403 34.3451C35.6419 34.9276 35.9144 35.5293 36.1578 36.1503C36.4011 36.7713 36.5766 37.3953 36.6843 38.0223C36.801 38.6545 36.8221 39.2858 36.7475 39.916C36.6782 40.5373 36.4746 41.1412 36.1366 41.728C35.8455 42.2334 35.4901 42.6418 35.0704 42.953C34.6507 43.2642 34.1881 43.4726 33.6825 43.5781C33.177 43.6836 32.6472 43.685 32.0933 43.5823C31.5394 43.4796 30.9871 43.2697 30.4365 42.9526C29.7415 42.5522 29.163 42.0748 28.701 41.5202C28.2339 40.9746 27.8948 40.3946 27.6837 39.7802C27.4727 39.1657 27.3935 38.5311 27.4461 37.8762C27.5078 37.2265 27.7154 36.5948 28.0689 35.981C28.5265 35.1867 28.9991 34.6896 29.4869 34.4897C29.9837 34.295 30.539 34.3744 31.1528 34.728C31.5319 34.9464 31.7927 35.1927 31.9352 35.4671C32.0776 35.7415 32.0891 35.9825 31.9695 36.1902C31.9071 36.2985 31.8241 36.4009 31.7204 36.4974C31.6219 36.585 31.5137 36.6789 31.3957 36.7793C31.2921 36.8758 31.1832 36.9814 31.0691 37.096C30.964 37.2158 30.8725 37.3434 30.7945 37.4788C30.6593 37.7135 30.5835 37.9703 30.567 38.2494C30.5506 38.5284 30.5858 38.8011 30.6727 39.0676C30.7635 39.3483 30.9021 39.6084 31.0887 39.8481C31.2752 40.0878 31.5038 40.2856 31.7746 40.4416C32.4967 40.8575 33.0294 40.7676 33.3725 40.1719C33.6429 39.7025 33.7126 39.1536 33.5817 38.5252C33.456 37.8878 33.2277 37.2094 32.8968 36.4899C32.5711 35.7613 32.2003 35.0068 31.7844 34.2263C31.3775 33.4509 31.0216 32.681 30.7167 31.9163C30.4119 31.1517 30.2174 30.4145 30.1332 29.7049C30.0543 28.9863 30.1838 28.3336 30.5218 27.7469C30.8025 27.2595 31.1592 26.8698 31.5917 26.578C32.0333 26.2914 32.5133 26.1051 33.0317 26.019C33.5553 25.9239 34.0986 25.9303 34.6615 26.0382C35.2335 26.1513 35.7948 26.3664 36.3454 26.6836Z"/>
</mask>
<path d="M36.3454 26.6836C36.9502 27.0319 37.5262 27.4719 38.0735 28.0035C38.626 28.5261 39.0957 29.0671 39.4827 29.6266C39.8749 30.1771 40.1541 30.7046 40.3203 31.209C40.4865 31.7135 40.4864 32.1102 40.3201 32.399C40.2369 32.5434 40.0801 32.6695 39.8498 32.7772C39.6246 32.8759 39.375 32.9545 39.1009 33.013C38.8319 33.0625 38.558 33.079 38.2789 33.0625C38.0141 33.0422 37.8005 32.9853 37.638 32.8917C37.4214 32.7669 37.2297 32.5363 37.0629 32.1998C36.9051 31.8685 36.7261 31.5009 36.526 31.0971C36.34 30.6895 36.1095 30.2862 35.8344 29.8873C35.5592 29.4884 35.2005 29.1616 34.7582 28.9069C34.4694 28.7405 34.1886 28.6749 33.9159 28.7102C33.6573 28.7416 33.4553 28.8836 33.3097 29.1364C33.1797 29.362 33.1555 29.6546 33.2369 30.0141C33.3236 30.3645 33.4727 30.763 33.6844 31.2094C33.9051 31.6611 34.1631 32.1523 34.4584 32.6831C34.7538 33.2138 35.0477 33.7678 35.3403 34.3451C35.6419 34.9276 35.9144 35.5293 36.1578 36.1503C36.4011 36.7713 36.5766 37.3953 36.6843 38.0223C36.801 38.6545 36.8221 39.2858 36.7475 39.916C36.6782 40.5373 36.4746 41.1412 36.1366 41.728C35.8455 42.2334 35.4901 42.6418 35.0704 42.953C34.6507 43.2642 34.1881 43.4726 33.6825 43.5781C33.177 43.6836 32.6472 43.685 32.0933 43.5823C31.5394 43.4796 30.9871 43.2697 30.4365 42.9526C29.7415 42.5522 29.163 42.0748 28.701 41.5202C28.2339 40.9746 27.8948 40.3946 27.6837 39.7802C27.4727 39.1657 27.3935 38.5311 27.4461 37.8762C27.5078 37.2265 27.7154 36.5948 28.0689 35.981C28.5265 35.1867 28.9991 34.6896 29.4869 34.4897C29.9837 34.295 30.539 34.3744 31.1528 34.728C31.5319 34.9464 31.7927 35.1927 31.9352 35.4671C32.0776 35.7415 32.0891 35.9825 31.9695 36.1902C31.9071 36.2985 31.8241 36.4009 31.7204 36.4974C31.6219 36.585 31.5137 36.6789 31.3957 36.7793C31.2921 36.8758 31.1832 36.9814 31.0691 37.096C30.964 37.2158 30.8725 37.3434 30.7945 37.4788C30.6593 37.7135 30.5835 37.9703 30.567 38.2494C30.5506 38.5284 30.5858 38.8011 30.6727 39.0676C30.7635 39.3483 30.9021 39.6084 31.0887 39.8481C31.2752 40.0878 31.5038 40.2856 31.7746 40.4416C32.4967 40.8575 33.0294 40.7676 33.3725 40.1719C33.6429 39.7025 33.7126 39.1536 33.5817 38.5252C33.456 37.8878 33.2277 37.2094 32.8968 36.4899C32.5711 35.7613 32.2003 35.0068 31.7844 34.2263C31.3775 33.4509 31.0216 32.681 30.7167 31.9163C30.4119 31.1517 30.2174 30.4145 30.1332 29.7049C30.0543 28.9863 30.1838 28.3336 30.5218 27.7469C30.8025 27.2595 31.1592 26.8698 31.5917 26.578C32.0333 26.2914 32.5133 26.1051 33.0317 26.019C33.5553 25.9239 34.0986 25.9303 34.6615 26.0382C35.2335 26.1513 35.7948 26.3664 36.3454 26.6836Z" fill="#FE6596"/>
<path d="M38.0735 28.0035L37.3767 28.7209L37.3863 28.73L38.0735 28.0035ZM39.4827 29.6266L38.6602 30.1955L38.6682 30.2069L39.4827 29.6266ZM39.8498 32.7772L40.2513 33.6931L40.2624 33.6882L40.2734 33.6831L39.8498 32.7772ZM39.1009 33.013L39.2818 33.9965L39.2957 33.994L39.3095 33.991L39.1009 33.013ZM38.2789 33.0625L38.2025 34.0596L38.2113 34.0603L38.22 34.0608L38.2789 33.0625ZM37.0629 32.1998L36.16 32.6298L36.1634 32.6369L36.1669 32.6439L37.0629 32.1998ZM36.526 31.0971L35.6161 31.5121L35.6228 31.5268L35.63 31.5413L36.526 31.0971ZM33.9159 28.7102L34.0365 29.7029L34.044 29.7019L33.9159 28.7102ZM33.2369 30.0141L32.2617 30.2351L32.2638 30.2446L32.2662 30.2541L33.2369 30.0141ZM33.6844 31.2094L32.7807 31.6378L32.7859 31.6484L33.6844 31.2094ZM35.3403 34.3451L34.4483 34.7972L34.4523 34.805L35.3403 34.3451ZM36.6843 38.0223L35.6986 38.1916L35.7009 38.2039L36.6843 38.0223ZM36.7475 39.916L35.7544 39.7986L35.7537 39.8051L36.7475 39.916ZM28.701 41.5202L29.4695 40.8801L29.4606 40.8698L28.701 41.5202ZM27.4461 37.8762L26.4506 37.7817L26.4499 37.7889L26.4493 37.7961L27.4461 37.8762ZM29.4869 34.4897L29.122 33.5586L29.1149 33.5614L29.1077 33.5644L29.4869 34.4897ZM31.7204 36.4974L32.3846 37.245L32.3933 37.2373L32.4018 37.2293L31.7204 36.4974ZM31.3957 36.7793L30.7476 36.0178L30.7306 36.0322L30.7143 36.0474L31.3957 36.7793ZM31.0691 37.096L30.3604 36.3905L30.3381 36.4129L30.3172 36.4366L31.0691 37.096ZM30.6727 39.0676L31.6242 38.7599L31.6234 38.7574L30.6727 39.0676ZM33.5817 38.5252L32.6005 38.7188L32.6027 38.7292L33.5817 38.5252ZM32.8968 36.4899L31.9838 36.898L31.9883 36.9077L32.8968 36.4899ZM31.7844 34.2263L30.8989 34.691L30.9019 34.6965L31.7844 34.2263ZM30.1332 29.7049L29.1392 29.8141L29.1402 29.8226L30.1332 29.7049ZM31.5917 26.578L31.0473 25.7392L31.0398 25.7441L31.0325 25.749L31.5917 26.578ZM33.0317 26.019L33.1955 27.0055L33.2029 27.0043L33.2104 27.0029L33.0317 26.019ZM34.6615 26.0382L34.8555 25.0572L34.8497 25.0561L34.6615 26.0382ZM36.3454 26.6836L35.8463 27.5501C36.3729 27.8534 36.8834 28.2416 37.3767 28.7208L38.0735 28.0035L38.7703 27.2862C38.169 26.7022 37.5274 26.2104 36.8445 25.817L36.3454 26.6836ZM38.0735 28.0035L37.3863 28.73C37.8942 29.2104 38.3171 29.6993 38.6602 30.1955L39.4827 29.6266L40.3051 29.0578C39.8743 28.435 39.3578 27.8418 38.7607 27.277L38.0735 28.0035ZM39.4827 29.6266L38.6682 30.2069C39.0172 30.6967 39.2429 31.1348 39.3705 31.522L40.3203 31.209L41.27 30.8961C41.0652 30.2744 40.7325 29.6575 40.2971 29.0464L39.4827 29.6266ZM40.3203 31.209L39.3705 31.522C39.4309 31.7052 39.4449 31.8219 39.4449 31.8847C39.4449 31.9413 39.434 31.9337 39.4535 31.8999L40.3201 32.399L41.1866 32.8981C41.5607 32.2486 41.4735 31.5135 41.27 30.8961L40.3203 31.209ZM40.3201 32.399L39.4535 31.8999C39.4852 31.8449 39.5146 31.8216 39.5134 31.8226C39.513 31.823 39.5065 31.8281 39.4917 31.837C39.477 31.8459 39.4556 31.8576 39.4261 31.8714L39.8498 32.7772L40.2734 33.6831C40.5981 33.5312 40.9601 33.2914 41.1866 32.8981L40.3201 32.399ZM39.8498 32.7772L39.4482 31.8614C39.293 31.9294 39.1091 31.9888 38.8922 32.0351L39.1009 33.013L39.3095 33.991C39.6408 33.9203 39.9562 33.8225 40.2513 33.6931L39.8498 32.7772ZM39.1009 33.013L38.9199 32.0295C38.7318 32.0641 38.5384 32.0761 38.3379 32.0643L38.2789 33.0625L38.22 34.0608C38.5775 34.0819 38.932 34.0609 39.2818 33.9965L39.1009 33.013ZM38.2789 33.0625L38.3554 32.0655C38.1816 32.0521 38.128 32.0199 38.1372 32.0252L37.638 32.8917L37.1389 33.7583C37.4731 33.9507 37.8467 34.0323 38.2025 34.0596L38.2789 33.0625ZM37.638 32.8917L38.1372 32.0252C38.1498 32.0325 38.1356 32.0278 38.1008 31.9859C38.0653 31.9433 38.0159 31.8708 37.9588 31.7557L37.0629 32.1998L36.1669 32.6439C36.3801 33.074 36.6853 33.497 37.1389 33.7583L37.638 32.8917ZM37.0629 32.1998L37.9657 31.7698C37.8052 31.4329 37.6239 31.0605 37.4219 30.653L36.526 31.0971L35.63 31.5413C35.8283 31.9414 36.005 32.3041 36.16 32.6298L37.0629 32.1998ZM36.526 31.0971L37.4358 30.6821C37.2236 30.217 36.9633 29.7629 36.6576 29.3196L35.8344 29.8873L35.0112 30.4551C35.2557 30.8096 35.4564 31.162 35.6161 31.5121L36.526 31.0971ZM35.8344 29.8873L36.6576 29.3196C36.2935 28.7917 35.8215 28.3653 35.2574 28.0403L34.7582 28.9069L34.2591 29.7734C34.5796 29.958 34.825 30.1852 35.0112 30.4551L35.8344 29.8873ZM34.7582 28.9069L35.2574 28.0403C34.8201 27.7885 34.3206 27.6495 33.7877 27.7184L33.9159 28.7102L34.044 29.7019C34.0566 29.7003 34.1187 29.6925 34.2591 29.7734L34.7582 28.9069ZM33.9159 28.7102L33.7952 27.7175C33.1836 27.7918 32.7242 28.1493 32.4432 28.6373L33.3097 29.1364L34.1763 29.6355C34.1893 29.6128 34.1834 29.6317 34.1456 29.6583C34.1274 29.6711 34.1067 29.6821 34.0851 29.6903C34.0637 29.6983 34.0465 29.7016 34.0365 29.7029L33.9159 28.7102ZM33.3097 29.1364L32.4432 28.6373C32.1439 29.1568 32.1477 29.7321 32.2617 30.2351L33.2369 30.0141L34.2122 29.7931C34.1885 29.6886 34.1888 29.6301 34.1906 29.6077C34.1921 29.5894 34.1936 29.6054 34.1763 29.6355L33.3097 29.1364ZM33.2369 30.0141L32.2662 30.2541C32.3735 30.6882 32.5502 31.1514 32.7808 31.6378L33.6844 31.2094L34.588 30.7811C34.3953 30.3746 34.2737 30.0409 34.2077 29.774L33.2369 30.0141ZM33.6844 31.2094L32.7859 31.6484C33.0158 32.1189 33.2823 32.6261 33.5846 33.1693L34.4584 32.6831L35.3322 32.1968C35.0438 31.6786 34.7944 31.2033 34.5829 30.7705L33.6844 31.2094ZM34.4584 32.6831L33.5846 33.1693C33.8733 33.6881 34.1612 34.2307 34.4484 34.7972L35.3403 34.3451L36.2323 33.893C35.9342 33.305 35.6342 32.7396 35.3322 32.1968L34.4584 32.6831ZM35.3403 34.3451L34.4523 34.805C34.7377 35.356 34.9958 35.926 35.2267 36.5152L36.1578 36.1503L37.0888 35.7855C36.833 35.1326 36.5462 34.4991 36.2283 33.8853L35.3403 34.3451ZM36.1578 36.1503L35.2267 36.5152C35.4465 37.076 35.6031 37.6346 35.6987 38.1916L36.6843 38.0223L37.6699 37.8531C37.5502 37.1561 37.3558 36.4666 37.0888 35.7855L36.1578 36.1503ZM36.6843 38.0223L35.7009 38.2039C35.7996 38.7388 35.8171 39.2692 35.7545 39.7986L36.7475 39.916L37.7406 40.0335C37.8271 39.3023 37.8023 38.5703 37.6677 37.8408L36.6843 38.0223ZM36.7475 39.916L35.7537 39.8051C35.7009 40.2785 35.5451 40.7514 35.2701 41.2288L36.1366 41.728L37.0032 42.2271C37.404 41.5311 37.6556 40.796 37.7414 40.0269L36.7475 39.916ZM36.1366 41.728L35.2701 41.2288C35.0394 41.6293 34.772 41.9293 34.4747 42.1498L35.0704 42.953L35.666 43.7563C36.2081 43.3543 36.6515 42.8376 37.0032 42.2271L36.1366 41.728ZM35.0704 42.953L34.4747 42.1498C34.1698 42.3759 33.8404 42.5236 33.4782 42.5992L33.6825 43.5781L33.8868 44.557C34.5357 44.4216 35.1315 44.1526 35.666 43.7563L35.0704 42.953ZM33.6825 43.5781L33.4782 42.5992C33.1112 42.6758 32.7133 42.6802 32.2756 42.5991L32.0933 43.5823L31.911 44.5656C32.5812 44.6898 33.2428 44.6914 33.8868 44.557L33.6825 43.5781ZM32.0933 43.5823L32.2756 42.5991C31.8464 42.5195 31.4004 42.3538 30.9356 42.086L30.4365 42.9526L29.9374 43.8191C30.5738 44.1857 31.2323 44.4398 31.911 44.5656L32.0933 43.5823ZM30.4365 42.9526L30.9356 42.086C30.3317 41.7382 29.8477 41.3344 29.4694 40.8802L28.701 41.5202L27.9327 42.1602C28.4782 42.8151 29.1512 43.3663 29.9374 43.8191L30.4365 42.9526ZM28.701 41.5202L29.4606 40.8698C29.0669 40.4099 28.7955 39.9385 28.6295 39.4553L27.6837 39.7802L26.738 40.1051C26.9941 40.8508 27.4009 41.5393 27.9414 42.1706L28.701 41.5202ZM27.6837 39.7802L28.6295 39.4553C28.4636 38.9724 28.4011 38.4757 28.4429 37.9563L27.4461 37.8762L26.4493 37.7961C26.3858 38.5864 26.4817 39.3591 26.738 40.1051L27.6837 39.7802ZM27.4461 37.8762L28.4416 37.9707C28.4886 37.4754 28.6472 36.9806 28.9355 36.4801L28.0689 35.981L27.2024 35.4819C26.7836 36.209 26.5269 36.9776 26.4506 37.7817L27.4461 37.8762ZM28.0689 35.981L28.9355 36.4801C29.3556 35.7506 29.6872 35.4883 29.8661 35.415L29.4869 34.4897L29.1077 33.5644C28.311 33.8908 27.6973 34.6227 27.2024 35.4819L28.0689 35.981ZM29.4869 34.4897L29.8517 35.4208C29.9793 35.3708 30.2106 35.3393 30.6537 35.5945L31.1528 34.728L31.6519 33.8615C30.8675 33.4096 29.9881 33.2192 29.122 33.5586L29.4869 34.4897ZM31.1528 34.728L30.6537 35.5945C30.9329 35.7553 31.0226 35.8797 31.0477 35.9279L31.9352 35.4671L32.8227 35.0063C32.5628 34.5058 32.1309 34.1374 31.6519 33.8615L31.1528 34.728ZM31.9352 35.4671L31.0477 35.9279C31.0704 35.9718 31.0545 35.9594 31.0517 35.9011C31.0503 35.871 31.0528 35.8341 31.0625 35.7939C31.0722 35.7536 31.087 35.7187 31.103 35.691L31.9695 36.1902L32.836 36.6893C33.175 36.1008 33.0707 35.484 32.8227 35.0063L31.9352 35.4671ZM31.9695 36.1902L31.103 35.691C31.0965 35.7023 31.0793 35.728 31.0389 35.7656L31.7204 36.4974L32.4018 37.2293C32.5689 37.0738 32.7178 36.8946 32.836 36.6893L31.9695 36.1902ZM31.7204 36.4974L31.0561 35.7499C30.9638 35.832 30.861 35.9212 30.7476 36.0178L31.3957 36.7793L32.0439 37.5408C32.1663 37.4366 32.28 37.3379 32.3846 37.245L31.7204 36.4974ZM31.3957 36.7793L30.7143 36.0474C30.6002 36.1537 30.4822 36.2681 30.3604 36.3905L31.0691 37.096L31.7777 37.8015C31.8841 37.6947 31.9839 37.598 32.0772 37.5112L31.3957 36.7793ZM31.0691 37.096L30.3172 36.4366C30.1696 36.605 30.0395 36.7861 29.928 36.9797L30.7945 37.4788L31.661 37.9779C31.7055 37.9007 31.7584 37.8266 31.8209 37.7554L31.0691 37.096ZM30.7945 37.4788L29.928 36.9797C29.7128 37.3533 29.5941 37.7616 29.5688 38.1904L30.567 38.2494L31.5653 38.3083C31.5729 38.1791 31.6058 38.0737 31.661 37.9779L30.7945 37.4788ZM30.567 38.2494L29.5688 38.1904C29.5449 38.5948 29.5964 38.9927 29.7221 39.3778L30.6727 39.0676L31.6234 38.7574C31.5752 38.6096 31.5562 38.462 31.5653 38.3083L30.567 38.2494ZM30.6727 39.0676L29.7212 39.3753C29.8489 39.7701 30.0436 40.1334 30.2995 40.4623L31.0887 39.8481L31.8778 39.2339C31.7607 39.0834 31.6781 38.9265 31.6242 38.7599L30.6727 39.0676ZM31.0887 39.8481L30.2995 40.4623C30.5678 40.807 30.8959 41.0895 31.2755 41.3081L31.7746 40.4416L32.2738 39.575C32.1117 39.4817 31.9826 39.3685 31.8778 39.2339L31.0887 39.8481ZM31.7746 40.4416L31.2755 41.3081C31.7339 41.5722 32.2914 41.7719 32.8821 41.6722C33.5199 41.5645 33.9625 41.1511 34.239 40.671L33.3725 40.1719L32.506 39.6727C32.4696 39.7359 32.4508 39.7462 32.4632 39.7364C32.4808 39.7226 32.5132 39.7061 32.5492 39.7C32.5801 39.6948 32.5794 39.7031 32.5322 39.6908C32.4826 39.678 32.3975 39.6463 32.2738 39.575L31.7746 40.4416ZM33.3725 40.1719L34.239 40.671C34.6539 39.9508 34.7318 39.1429 34.5607 38.3213L33.5817 38.5252L32.6027 38.7292C32.6933 39.1643 32.6319 39.4542 32.506 39.6727L33.3725 40.1719ZM33.5817 38.5252L34.5628 38.3317C34.4189 37.6023 34.1623 36.8482 33.8053 36.0721L32.8968 36.4899L31.9883 36.9077C32.2931 37.5705 32.493 38.1734 32.6006 38.7188L33.5817 38.5252ZM32.8968 36.4899L33.8097 36.0818C33.4737 35.33 33.0926 34.5547 32.6669 33.756L31.7844 34.2263L30.9019 34.6965C31.3081 35.4589 31.6686 36.1926 31.9839 36.898L32.8968 36.4899ZM31.7844 34.2263L32.6699 33.7616C32.278 33.015 31.9369 32.2765 31.6456 31.546L30.7167 31.9163L29.7878 32.2867C30.1063 33.0855 30.4769 33.8869 30.8989 34.691L31.7844 34.2263ZM30.7167 31.9163L31.6456 31.546C31.3683 30.8504 31.1987 30.1982 31.1263 29.5872L30.1332 29.7049L29.1402 29.8226C29.236 30.6309 29.4554 31.453 29.7878 32.2867L30.7167 31.9163ZM30.1332 29.7049L31.1273 29.5958C31.0699 29.0731 31.1638 28.6358 31.3883 28.246L30.5218 27.7469L29.6552 27.2478C29.2039 28.0314 29.0388 28.8995 29.1392 29.8141L30.1332 29.7049ZM30.5218 27.7469L31.3883 28.246C31.5991 27.88 31.8543 27.6072 32.151 27.407L31.5917 26.578L31.0325 25.749C30.4641 26.1325 30.0059 26.6389 29.6552 27.2478L30.5218 27.7469ZM31.5917 26.578L32.1362 27.4169C32.4626 27.205 32.813 27.069 33.1955 27.0055L33.0317 26.019L32.8679 25.0325C32.2136 25.1412 31.604 25.3779 31.0473 25.7392L31.5917 26.578ZM33.0317 26.019L33.2104 27.0029C33.6035 26.9315 34.0221 26.9339 34.4733 27.0203L34.6615 26.0382L34.8497 25.0561C34.175 24.9268 33.507 24.9163 32.853 25.0351L33.0317 26.019ZM34.6615 26.0382L34.4676 27.0192C34.923 27.1093 35.382 27.2826 35.8463 27.5501L36.3454 26.6836L36.8445 25.817C36.2076 25.4502 35.544 25.1933 34.8555 25.0572L34.6615 26.0382Z" fill="#FE6596" mask="url(#path-1-outside-1_14_174)"/>
<rect x="25.6598" y="2.61538" width="46.1698" height="46.1698" transform="rotate(29.9421 25.6598 2.61538)" stroke="#FE6596"/>
<rect x="25.1399" y="0.682827" width="2.30189" height="2.30189" transform="rotate(29.9421 25.1399 0.682827)" fill="#FE6596" stroke="#FE6596"/>
<rect x="65.6053" y="23.991" width="2.30189" height="2.30189" transform="rotate(29.9421 65.6053 23.991)" fill="#FE6596" stroke="#FE6596"/>
<rect x="42.1238" y="63.8122" width="2.77358" height="2.77358" transform="rotate(29.9421 42.1238 63.8122)" fill="#FE6596" stroke="#FE6596"/>
<rect x="1.83178" y="41.1482" width="2.30189" height="2.30189" transform="rotate(29.9421 1.83178 41.1482)" fill="#FE6596" stroke="#FE6596"/>
</svg>
