<svg width="106" height="124" viewBox="0 0 106 124" fill="none" xmlns="http://www.w3.org/2000/svg">
<rect x="3.5" y="12.5" width="99" height="99" stroke="#FE6596"/>
<rect x="0.5" y="9.5" width="6" height="6" fill="#FE6596" stroke="#FE6596"/>
<rect x="99.5" y="9.5" width="6" height="6" fill="#FE6596" stroke="#FE6596"/>
<rect x="98.5" y="107.5" width="7" height="7" fill="#FE6596" stroke="#FE6596"/>
<rect x="0.5" y="108.5" width="6" height="6" fill="#FE6596" stroke="#FE6596"/>
<mask id="path-6-outside-1_40_18" maskUnits="userSpaceOnUse" x="19" y="41" width="67" height="51" fill="black">
<rect fill="white" x="19" y="41" width="67" height="51"/>
<path d="M40.567 62.036C44.8857 64.88 47.756 67.3553 49.178 69.462C50.6 71.5687 51.311 73.9123 51.311 76.493C51.311 80.4957 49.731 83.8137 46.571 86.447C43.4637 89.0803 39.619 90.397 35.037 90.397C30.8237 90.397 27.3213 89.054 24.53 86.368C21.7913 83.6293 20.422 80.2587 20.422 76.256C21.4753 75.782 22.792 75.4133 24.372 75.15C25.952 74.834 27.3213 74.7023 28.48 74.755C28.4273 77.5463 28.9803 79.7847 30.139 81.47C31.2977 83.1027 32.904 83.919 34.958 83.919C36.4853 83.919 37.6703 83.4977 38.513 82.655C39.4083 81.7597 39.856 80.522 39.856 78.942C39.856 77.5727 39.382 76.2823 38.434 75.071C37.5387 73.807 35.511 72.1217 32.351 70.015C28.1377 67.171 25.3463 64.722 23.977 62.668C22.6603 60.5613 22.002 58.2177 22.002 55.637C22.002 51.7923 23.345 48.6587 26.031 46.236C28.7697 43.7607 32.3247 42.523 36.696 42.523C41.0147 42.523 44.4643 43.5763 47.045 45.683C49.6783 47.737 51.39 50.7917 52.18 54.847C51.0213 55.5843 49.6783 56.1637 48.151 56.585C46.6763 57.0063 44.8067 57.296 42.542 57.454C42.1733 54.7153 41.5413 52.714 40.646 51.45C39.7507 50.186 38.5393 49.554 37.012 49.554C35.8007 49.554 34.8527 49.9227 34.168 50.66C33.536 51.3973 33.22 52.4243 33.22 53.741C33.22 55.005 33.6677 56.2163 34.563 57.375C35.4583 58.481 37.4597 60.0347 40.567 62.036ZM73.0681 62.036C77.3868 64.88 80.2571 67.3553 81.6791 69.462C83.1011 71.5687 83.8121 73.9123 83.8121 76.493C83.8121 80.4957 82.2321 83.8137 79.0721 86.447C75.9648 89.0803 72.1201 90.397 67.5381 90.397C63.3248 90.397 59.8224 89.054 57.0311 86.368C54.2924 83.6293 52.9231 80.2587 52.9231 76.256C53.9764 75.782 55.2931 75.4133 56.8731 75.15C58.4531 74.834 59.8224 74.7023 60.9811 74.755C60.9284 77.5463 61.4814 79.7847 62.6401 81.47C63.7988 83.1027 65.4051 83.919 67.4591 83.919C68.9864 83.919 70.1714 83.4977 71.0141 82.655C71.9094 81.7597 72.3571 80.522 72.3571 78.942C72.3571 77.5727 71.8831 76.2823 70.9351 75.071C70.0398 73.807 68.0121 72.1217 64.8521 70.015C60.6388 67.171 57.8474 64.722 56.4781 62.668C55.1614 60.5613 54.5031 58.2177 54.5031 55.637C54.5031 51.7923 55.8461 48.6587 58.5321 46.236C61.2708 43.7607 64.8258 42.523 69.1971 42.523C73.5158 42.523 76.9654 43.5763 79.5461 45.683C82.1794 47.737 83.8911 50.7917 84.6811 54.847C83.5224 55.5843 82.1794 56.1637 80.6521 56.585C79.1774 57.0063 77.3078 57.296 75.0431 57.454C74.6744 54.7153 74.0424 52.714 73.1471 51.45C72.2518 50.186 71.0404 49.554 69.5131 49.554C68.3018 49.554 67.3538 49.9227 66.6691 50.66C66.0371 51.3973 65.7211 52.4243 65.7211 53.741C65.7211 55.005 66.1688 56.2163 67.0641 57.375C67.9594 58.481 69.9608 60.0347 73.0681 62.036Z"/>
</mask>
<path d="M40.567 62.036C44.8857 64.88 47.756 67.3553 49.178 69.462C50.6 71.5687 51.311 73.9123 51.311 76.493C51.311 80.4957 49.731 83.8137 46.571 86.447C43.4637 89.0803 39.619 90.397 35.037 90.397C30.8237 90.397 27.3213 89.054 24.53 86.368C21.7913 83.6293 20.422 80.2587 20.422 76.256C21.4753 75.782 22.792 75.4133 24.372 75.15C25.952 74.834 27.3213 74.7023 28.48 74.755C28.4273 77.5463 28.9803 79.7847 30.139 81.47C31.2977 83.1027 32.904 83.919 34.958 83.919C36.4853 83.919 37.6703 83.4977 38.513 82.655C39.4083 81.7597 39.856 80.522 39.856 78.942C39.856 77.5727 39.382 76.2823 38.434 75.071C37.5387 73.807 35.511 72.1217 32.351 70.015C28.1377 67.171 25.3463 64.722 23.977 62.668C22.6603 60.5613 22.002 58.2177 22.002 55.637C22.002 51.7923 23.345 48.6587 26.031 46.236C28.7697 43.7607 32.3247 42.523 36.696 42.523C41.0147 42.523 44.4643 43.5763 47.045 45.683C49.6783 47.737 51.39 50.7917 52.18 54.847C51.0213 55.5843 49.6783 56.1637 48.151 56.585C46.6763 57.0063 44.8067 57.296 42.542 57.454C42.1733 54.7153 41.5413 52.714 40.646 51.45C39.7507 50.186 38.5393 49.554 37.012 49.554C35.8007 49.554 34.8527 49.9227 34.168 50.66C33.536 51.3973 33.22 52.4243 33.22 53.741C33.22 55.005 33.6677 56.2163 34.563 57.375C35.4583 58.481 37.4597 60.0347 40.567 62.036ZM73.0681 62.036C77.3868 64.88 80.2571 67.3553 81.6791 69.462C83.1011 71.5687 83.8121 73.9123 83.8121 76.493C83.8121 80.4957 82.2321 83.8137 79.0721 86.447C75.9648 89.0803 72.1201 90.397 67.5381 90.397C63.3248 90.397 59.8224 89.054 57.0311 86.368C54.2924 83.6293 52.9231 80.2587 52.9231 76.256C53.9764 75.782 55.2931 75.4133 56.8731 75.15C58.4531 74.834 59.8224 74.7023 60.9811 74.755C60.9284 77.5463 61.4814 79.7847 62.6401 81.47C63.7988 83.1027 65.4051 83.919 67.4591 83.919C68.9864 83.919 70.1714 83.4977 71.0141 82.655C71.9094 81.7597 72.3571 80.522 72.3571 78.942C72.3571 77.5727 71.8831 76.2823 70.9351 75.071C70.0398 73.807 68.0121 72.1217 64.8521 70.015C60.6388 67.171 57.8474 64.722 56.4781 62.668C55.1614 60.5613 54.5031 58.2177 54.5031 55.637C54.5031 51.7923 55.8461 48.6587 58.5321 46.236C61.2708 43.7607 64.8258 42.523 69.1971 42.523C73.5158 42.523 76.9654 43.5763 79.5461 45.683C82.1794 47.737 83.8911 50.7917 84.6811 54.847C83.5224 55.5843 82.1794 56.1637 80.6521 56.585C79.1774 57.0063 77.3078 57.296 75.0431 57.454C74.6744 54.7153 74.0424 52.714 73.1471 51.45C72.2518 50.186 71.0404 49.554 69.5131 49.554C68.3018 49.554 67.3538 49.9227 66.6691 50.66C66.0371 51.3973 65.7211 52.4243 65.7211 53.741C65.7211 55.005 66.1688 56.2163 67.0641 57.375C67.9594 58.481 69.9608 60.0347 73.0681 62.036Z" fill="#FE6596"/>
<path d="M40.567 62.036L41.117 61.2008L41.1085 61.1953L40.567 62.036ZM49.178 69.462L50.0069 68.9025V68.9025L49.178 69.462ZM46.571 86.447L45.9308 85.6787L45.9245 85.6841L46.571 86.447ZM24.53 86.368L23.8229 87.0751L23.8297 87.0819L23.8366 87.0886L24.53 86.368ZM20.422 76.256L20.0116 75.3441L19.422 75.6094V76.256H20.422ZM24.372 75.15L24.5364 76.1364L24.5523 76.1337L24.5681 76.1306L24.372 75.15ZM28.48 74.755L29.4798 74.7739L29.4982 73.8002L28.5254 73.756L28.48 74.755ZM30.139 81.47L29.315 82.0365L29.3192 82.0427L29.3235 82.0487L30.139 81.47ZM38.513 82.655L39.2201 83.3621V83.3621L38.513 82.655ZM38.434 75.071L37.618 75.649L37.6318 75.6685L37.6465 75.6873L38.434 75.071ZM32.351 70.015L31.7915 70.8439L31.7963 70.847L32.351 70.015ZM23.977 62.668L23.129 63.198L23.1368 63.2105L23.1449 63.2227L23.977 62.668ZM26.031 46.236L26.7008 46.9786L26.7015 46.9779L26.031 46.236ZM47.045 45.683L46.4126 46.4577L46.4212 46.4647L46.43 46.4715L47.045 45.683ZM52.18 54.847L52.7169 55.6907L53.2919 55.3248L53.1615 54.6558L52.18 54.847ZM48.151 56.585L47.8851 55.621L47.8763 55.6235L48.151 56.585ZM42.542 57.454L41.5509 57.5874L41.6761 58.5168L42.6116 58.4516L42.542 57.454ZM40.646 51.45L41.462 50.872V50.872L40.646 51.45ZM34.168 50.66L33.4352 49.9795L33.4217 49.9941L33.4087 50.0092L34.168 50.66ZM34.563 57.375L33.7717 57.9864L33.7786 57.9954L33.7858 58.0042L34.563 57.375ZM40.567 62.036L40.017 62.8712C44.3158 65.7021 47.0439 68.0878 48.3492 70.0215L49.178 69.462L50.0069 68.9025C48.4681 66.6229 45.4555 64.0579 41.117 61.2008L40.567 62.036ZM49.178 69.462L48.3492 70.0215C49.6578 71.9602 50.311 74.1085 50.311 76.493H51.311H52.311C52.311 73.7162 51.5422 71.1771 50.0069 68.9025L49.178 69.462ZM51.311 76.493H50.311C50.311 80.1895 48.8701 83.2294 45.9308 85.6788L46.571 86.447L47.2112 87.2152C50.5919 84.398 52.311 80.8018 52.311 76.493H51.311ZM46.571 86.447L45.9245 85.6841C43.0205 88.1451 39.4137 89.397 35.037 89.397V90.397V91.397C39.8243 91.397 43.9069 90.0155 47.2175 87.2099L46.571 86.447ZM35.037 90.397V89.397C31.0574 89.397 27.8112 88.1376 25.2234 85.6474L24.53 86.368L23.8366 87.0886C26.8314 89.9704 30.5899 91.397 35.037 91.397V90.397ZM24.53 86.368L25.2371 85.6609C22.6929 83.1167 21.422 80.0034 21.422 76.256H20.422H19.422C19.422 80.514 20.8898 84.142 23.8229 87.0751L24.53 86.368ZM20.422 76.256L20.8324 77.1679C21.7836 76.7399 23.0112 76.3906 24.5364 76.1364L24.372 75.15L24.2076 74.1636C22.5728 74.4361 21.1671 74.8241 20.0116 75.3441L20.422 76.256ZM24.372 75.15L24.5681 76.1306C26.097 75.8248 27.3814 75.7061 28.4346 75.754L28.48 74.755L28.5254 73.756C27.2613 73.6986 25.807 73.8432 24.1759 74.1694L24.372 75.15ZM28.48 74.755L27.4802 74.7361C27.425 77.6615 28.0018 80.1265 29.315 82.0365L30.139 81.47L30.963 80.9035C29.9589 79.4428 29.4297 77.4311 29.4798 74.7739L28.48 74.755ZM30.139 81.47L29.3235 82.0487C30.6754 83.9537 32.59 84.919 34.958 84.919V83.919V82.919C33.218 82.919 31.9199 82.2516 30.9545 80.8913L30.139 81.47ZM34.958 83.919V84.919C36.6723 84.919 38.141 84.4412 39.2201 83.3621L38.513 82.655L37.8059 81.9479C37.1997 82.5541 36.2984 82.919 34.958 82.919V83.919ZM38.513 82.655L39.2201 83.3621C40.347 82.2352 40.856 80.7178 40.856 78.942H39.856H38.856C38.856 80.3262 38.4697 81.2841 37.8059 81.9479L38.513 82.655ZM39.856 78.942H40.856C40.856 77.3218 40.2893 75.8191 39.2215 74.4547L38.434 75.071L37.6465 75.6873C38.4747 76.7456 38.856 77.8235 38.856 78.942H39.856ZM38.434 75.071L39.25 74.493C38.2358 73.0611 36.0615 71.2868 32.9057 69.183L32.351 70.015L31.7963 70.847C34.9605 72.9565 36.8416 74.5529 37.618 75.649L38.434 75.071ZM32.351 70.015L32.9105 69.1861C28.7151 66.3542 26.0638 63.9954 24.8091 62.1133L23.977 62.668L23.1449 63.2227C24.6289 65.4486 27.5603 67.9878 31.7915 70.8438L32.351 70.015ZM23.977 62.668L24.825 62.138C23.6116 60.1966 23.002 58.0379 23.002 55.637H22.002H21.002C21.002 58.3974 21.709 60.926 23.129 63.198L23.977 62.668ZM22.002 55.637H23.002C23.002 52.0554 24.2395 49.1986 26.7008 46.9786L26.031 46.236L25.3612 45.4934C22.4505 48.1188 21.002 51.5293 21.002 55.637H22.002ZM26.031 46.236L26.7015 46.9779C29.2235 44.6984 32.5241 43.523 36.696 43.523V42.523V41.523C32.1252 41.523 28.3159 42.8229 25.3605 45.4941L26.031 46.236ZM36.696 42.523V43.523C40.8534 43.523 44.0576 44.5352 46.4126 46.4577L47.045 45.683L47.6774 44.9083C44.8711 42.6175 41.1759 41.523 36.696 41.523V42.523ZM47.045 45.683L46.43 46.4715C48.831 48.3443 50.4432 51.1614 51.1985 55.0382L52.18 54.847L53.1615 54.6558C52.3368 50.422 50.5257 47.1297 47.66 44.8945L47.045 45.683ZM52.18 54.847L51.6431 54.0033C50.58 54.6799 49.331 55.2221 47.8851 55.621L48.151 56.585L48.4169 57.549C50.0257 57.1052 51.4626 56.4888 52.7169 55.6907L52.18 54.847ZM48.151 56.585L47.8763 55.6235C46.4921 56.0189 44.6974 56.3012 42.4724 56.4564L42.542 57.454L42.6116 58.4516C44.916 58.2908 46.8605 57.9937 48.4257 57.5465L48.151 56.585ZM42.542 57.454L43.5331 57.3206C43.1573 54.529 42.4979 52.3344 41.462 50.872L40.646 51.45L39.83 52.028C40.5848 53.0936 41.1894 54.9016 41.5509 57.5874L42.542 57.454ZM40.646 51.45L41.462 50.872C40.3824 49.3478 38.8691 48.554 37.012 48.554V49.554V50.554C38.2095 50.554 39.119 51.0242 39.83 52.028L40.646 51.45ZM37.012 49.554V48.554C35.5839 48.554 34.3471 48.9975 33.4352 49.9795L34.168 50.66L34.9008 51.3405C35.3582 50.8479 36.0174 50.554 37.012 50.554V49.554ZM34.168 50.66L33.4087 50.0092C32.5737 50.9835 32.22 52.2709 32.22 53.741H33.22H34.22C34.22 52.5778 34.4983 51.8112 34.9273 51.3108L34.168 50.66ZM33.22 53.741H32.22C32.22 55.2603 32.7634 56.6816 33.7717 57.9864L34.563 57.375L35.3543 56.7635C34.5719 55.751 34.22 54.7497 34.22 53.741H33.22ZM34.563 57.375L33.7858 58.0042C34.7949 59.2508 36.9274 60.8813 40.0255 62.8767L40.567 62.036L41.1085 61.1953C37.9919 59.188 36.1217 57.7112 35.3402 56.7458L34.563 57.375ZM73.0681 62.036L73.6181 61.2008L73.6096 61.1953L73.0681 62.036ZM81.6791 69.462L82.5079 68.9025V68.9025L81.6791 69.462ZM79.0721 86.447L78.4319 85.6787L78.4256 85.6841L79.0721 86.447ZM57.0311 86.368L56.324 87.0751L56.3308 87.0819L56.3377 87.0886L57.0311 86.368ZM52.9231 76.256L52.5127 75.3441L51.9231 75.6094V76.256H52.9231ZM56.8731 75.15L57.0375 76.1364L57.0534 76.1337L57.0692 76.1306L56.8731 75.15ZM60.9811 74.755L61.9809 74.7739L61.9993 73.8002L61.0265 73.756L60.9811 74.755ZM62.6401 81.47L61.8161 82.0365L61.8203 82.0427L61.8246 82.0487L62.6401 81.47ZM71.0141 82.655L71.7212 83.3621V83.3621L71.0141 82.655ZM70.9351 75.071L70.1191 75.649L70.1329 75.6685L70.1476 75.6873L70.9351 75.071ZM64.8521 70.015L64.2926 70.8439L64.2974 70.847L64.8521 70.015ZM56.4781 62.668L55.6301 63.198L55.6379 63.2105L55.646 63.2227L56.4781 62.668ZM58.5321 46.236L59.2019 46.9786L59.2026 46.9779L58.5321 46.236ZM79.5461 45.683L78.9137 46.4577L78.9223 46.4647L78.9311 46.4715L79.5461 45.683ZM84.6811 54.847L85.218 55.6907L85.793 55.3248L85.6626 54.6558L84.6811 54.847ZM80.6521 56.585L80.3862 55.621L80.3774 55.6235L80.6521 56.585ZM75.0431 57.454L74.052 57.5874L74.1772 58.5168L75.1127 58.4516L75.0431 57.454ZM73.1471 51.45L73.9631 50.872V50.872L73.1471 51.45ZM66.6691 50.66L65.9363 49.9795L65.9228 49.9941L65.9098 50.0092L66.6691 50.66ZM67.0641 57.375L66.2728 57.9864L66.2797 57.9954L66.2868 58.0042L67.0641 57.375ZM73.0681 62.036L72.5181 62.8712C76.8169 65.7021 79.545 68.0878 80.8503 70.0215L81.6791 69.462L82.5079 68.9025C80.9692 66.6229 77.9566 64.0579 73.6181 61.2008L73.0681 62.036ZM81.6791 69.462L80.8503 70.0215C82.1589 71.9602 82.8121 74.1085 82.8121 76.493H83.8121H84.8121C84.8121 73.7162 84.0433 71.1771 82.5079 68.9025L81.6791 69.462ZM83.8121 76.493H82.8121C82.8121 80.1895 81.3712 83.2294 78.4319 85.6788L79.0721 86.447L79.7123 87.2152C83.093 84.398 84.8121 80.8018 84.8121 76.493H83.8121ZM79.0721 86.447L78.4256 85.6841C75.5216 88.1451 71.9148 89.397 67.5381 89.397V90.397V91.397C72.3254 91.397 76.408 90.0155 79.7186 87.2099L79.0721 86.447ZM67.5381 90.397V89.397C63.5585 89.397 60.3123 88.1376 57.7245 85.6474L57.0311 86.368L56.3377 87.0886C59.3325 89.9704 63.091 91.397 67.5381 91.397V90.397ZM57.0311 86.368L57.7382 85.6609C55.194 83.1167 53.9231 80.0034 53.9231 76.256H52.9231H51.9231C51.9231 80.514 53.3909 84.142 56.324 87.0751L57.0311 86.368ZM52.9231 76.256L53.3335 77.1679C54.2847 76.7399 55.5123 76.3906 57.0375 76.1364L56.8731 75.15L56.7087 74.1636C55.0739 74.4361 53.6682 74.8241 52.5127 75.3441L52.9231 76.256ZM56.8731 75.15L57.0692 76.1306C58.5981 75.8248 59.8825 75.7061 60.9357 75.754L60.9811 74.755L61.0265 73.756C59.7624 73.6986 58.3081 73.8432 56.677 74.1694L56.8731 75.15ZM60.9811 74.755L59.9813 74.7361C59.9261 77.6615 60.5029 80.1265 61.8161 82.0365L62.6401 81.47L63.4641 80.9035C62.4599 79.4428 61.9308 77.4311 61.9809 74.7739L60.9811 74.755ZM62.6401 81.47L61.8246 82.0487C63.1765 83.9537 65.0911 84.919 67.4591 84.919V83.919V82.919C65.7191 82.919 64.421 82.2516 63.4556 80.8913L62.6401 81.47ZM67.4591 83.919V84.919C69.1734 84.919 70.6421 84.4412 71.7212 83.3621L71.0141 82.655L70.307 81.9479C69.7008 82.5541 68.7994 82.919 67.4591 82.919V83.919ZM71.0141 82.655L71.7212 83.3621C72.8481 82.2352 73.3571 80.7178 73.3571 78.942H72.3571H71.3571C71.3571 80.3262 70.9708 81.2841 70.307 81.9479L71.0141 82.655ZM72.3571 78.942H73.3571C73.3571 77.3218 72.7904 75.8191 71.7226 74.4547L70.9351 75.071L70.1476 75.6873C70.9758 76.7456 71.3571 77.8235 71.3571 78.942H72.3571ZM70.9351 75.071L71.7511 74.493C70.7369 73.0611 68.5626 71.2868 65.4068 69.183L64.8521 70.015L64.2974 70.847C67.4616 72.9565 69.3427 74.5529 70.1191 75.649L70.9351 75.071ZM64.8521 70.015L65.4116 69.1861C61.2162 66.3542 58.5649 63.9954 57.3101 62.1133L56.4781 62.668L55.646 63.2227C57.13 65.4486 60.0614 67.9878 64.2926 70.8438L64.8521 70.015ZM56.4781 62.668L57.3261 62.138C56.1127 60.1966 55.5031 58.0379 55.5031 55.637H54.5031H53.5031C53.5031 58.3974 54.2101 60.926 55.6301 63.198L56.4781 62.668ZM54.5031 55.637H55.5031C55.5031 52.0554 56.7406 49.1986 59.2019 46.9786L58.5321 46.236L57.8623 45.4934C54.9516 48.1188 53.5031 51.5293 53.5031 55.637H54.5031ZM58.5321 46.236L59.2026 46.9779C61.7246 44.6984 65.0252 43.523 69.1971 43.523V42.523V41.523C64.6263 41.523 60.817 42.8229 57.8616 45.4941L58.5321 46.236ZM69.1971 42.523V43.523C73.3545 43.523 76.5587 44.5352 78.9137 46.4577L79.5461 45.683L80.1785 44.9083C77.3722 42.6175 73.677 41.523 69.1971 41.523V42.523ZM79.5461 45.683L78.9311 46.4715C81.3321 48.3443 82.9443 51.1614 83.6995 55.0382L84.6811 54.847L85.6626 54.6558C84.8379 50.422 83.0268 47.1297 80.1611 44.8945L79.5461 45.683ZM84.6811 54.847L84.1442 54.0033C83.0811 54.6799 81.8321 55.2221 80.3862 55.621L80.6521 56.585L80.918 57.549C82.5268 57.1052 83.9637 56.4888 85.218 55.6907L84.6811 54.847ZM80.6521 56.585L80.3774 55.6235C78.9932 56.0189 77.1985 56.3012 74.9735 56.4564L75.0431 57.454L75.1127 58.4516C77.4171 58.2908 79.3616 57.9937 80.9268 57.5465L80.6521 56.585ZM75.0431 57.454L76.0342 57.3206C75.6584 54.529 74.999 52.3344 73.9631 50.872L73.1471 51.45L72.3311 52.028C73.0858 53.0936 73.6905 54.9016 74.052 57.5874L75.0431 57.454ZM73.1471 51.45L73.9631 50.872C72.8835 49.3478 71.3702 48.554 69.5131 48.554V49.554V50.554C70.7106 50.554 71.62 51.0242 72.3311 52.028L73.1471 51.45ZM69.5131 49.554V48.554C68.085 48.554 66.8482 48.9975 65.9363 49.9795L66.6691 50.66L67.4019 51.3405C67.8593 50.8479 68.5185 50.554 69.5131 50.554V49.554ZM66.6691 50.66L65.9098 50.0092C65.0748 50.9835 64.7211 52.2709 64.7211 53.741H65.7211H66.7211C66.7211 52.5778 66.9994 51.8112 67.4284 51.3108L66.6691 50.66ZM65.7211 53.741H64.7211C64.7211 55.2603 65.2645 56.6816 66.2728 57.9864L67.0641 57.375L67.8554 56.7635C67.073 55.751 66.7211 54.7497 66.7211 53.741H65.7211ZM67.0641 57.375L66.2868 58.0042C67.296 59.2508 69.4285 60.8813 72.5266 62.8767L73.0681 62.036L73.6096 61.1953C70.493 59.188 68.6228 57.7112 67.8413 56.7458L67.0641 57.375Z" fill="#FE6596" mask="url(#path-6-outside-1_40_18)"/>
</svg>
